<svg id="Layer_1" data-name="Layer 1" xmlns="http://www.w3.org/2000/svg" viewBox="0 0 208.67 50"><defs><style>.cls-1{fill:#231f20;}</style></defs><title>DoHCrest</title><path class="cls-1" d="M78.2,24.35a2.94,2.94,0,0,1-.91-.16.65.65,0,0,1-.31-.58,2,2,0,0,1,.19-.74l.39-.9h3.26l.49,1.15q.19.45.21.51a.82.82,0,0,1,0,.26.36.36,0,0,1-.15.31,1.42,1.42,0,0,1-.76.15h-.18v.25h4.47v-.25a1,1,0,0,1-.66-.25,4.6,4.6,0,0,1-.78-1.35l-3.33-7.58H80l-3.3,7.37a5.88,5.88,0,0,1-.79,1.4,1.43,1.43,0,0,1-.82.41v.25H78.2Zm1-6.06,1.37,3.18H77.8Z"/><path class="cls-1" d="M85.1,19.62v2.52a5.58,5.58,0,0,0,.14,1.55,1.66,1.66,0,0,0,.56.78,1.56,1.56,0,0,0,1,.32,2.13,2.13,0,0,0,1-.24,3.44,3.44,0,0,0,.91-.8v.85h2.6v-.24a.81.81,0,0,1-.55-.23,1.82,1.82,0,0,1-.14-.91v-5H88v.25a.81.81,0,0,1,.55.24,1.78,1.78,0,0,1,.13.9V23a2.82,2.82,0,0,1-.65.72.84.84,0,0,1-.44.13.55.55,0,0,1-.33-.11.52.52,0,0,1-.2-.3,3.13,3.13,0,0,1-.07-.87V18.23H84.41v.25a.81.81,0,0,1,.55.24A1.74,1.74,0,0,1,85.1,19.62Z"/><path class="cls-1" d="M93.6,22.31a5,5,0,0,1,.91.72.83.83,0,0,1,.21.56.65.65,0,0,1-.21.49.72.72,0,0,1-.53.2,1.64,1.64,0,0,1-1-.45,3.07,3.07,0,0,1-.84-1.35h-.23L92,24.77h.22c.1-.22.23-.34.38-.34a1.13,1.13,0,0,1,.28.08,3.67,3.67,0,0,0,1.22.28,2.18,2.18,0,0,0,1.07-.27,1.88,1.88,0,0,0,.75-.78,2.33,2.33,0,0,0,.26-1,1.76,1.76,0,0,0-.32-1.05,5,5,0,0,0-1.31-1.15,6.88,6.88,0,0,1-1.22-1,.58.58,0,0,1-.14-.36.6.6,0,0,1,.2-.43.69.69,0,0,1,.48-.19,1.39,1.39,0,0,1,.88.36,3.32,3.32,0,0,1,.87,1.32h.23l-.1-2.17h-.24a1.48,1.48,0,0,1-.23.29.39.39,0,0,1-.2,0,.65.65,0,0,1-.3-.11,2.24,2.24,0,0,0-1-.25,1.82,1.82,0,0,0-1.47.6A2,2,0,0,0,91.8,20a1.91,1.91,0,0,0,.45,1.23A7.21,7.21,0,0,0,93.6,22.31Z"/><path class="cls-1" d="M97.21,22.35a5.93,5.93,0,0,0,.07,1.25,1.52,1.52,0,0,0,.53.76,1.63,1.63,0,0,0,1,.33,1.86,1.86,0,0,0,1.79-1.31l-.2-.15c-.27.45-.55.68-.84.68a.4.4,0,0,1-.24-.1.48.48,0,0,1-.18-.26,2.7,2.7,0,0,1,0-.71V18.91h1.51v-.68H99.12V15.9h-.23a7.66,7.66,0,0,1-1,1.49,8.85,8.85,0,0,1-1.46,1.28v.24h.83Z"/><path class="cls-1" d="M104.58,24.36a1.54,1.54,0,0,1-.55-.11.52.52,0,0,1-.23-.27,1.34,1.34,0,0,1,0-.5V21.64a4.52,4.52,0,0,1,.22-1.46,1.37,1.37,0,0,1,.42-.66.57.57,0,0,1,.38-.15.24.24,0,0,1,.15,0,4,4,0,0,1,.32.26.91.91,0,0,0,.62.23.66.66,0,0,0,.53-.25,1,1,0,0,0,.23-.71.9.9,0,0,0-.23-.66.79.79,0,0,0-.61-.24,1.64,1.64,0,0,0-.92.33,4.48,4.48,0,0,0-1.11,1.31V18.23h-2.6v.25a1.16,1.16,0,0,1,.46.13.54.54,0,0,1,.19.28,2.38,2.38,0,0,1,.06.69V23.1a2.08,2.08,0,0,1-.15,1,.77.77,0,0,1-.56.23v.24h3.44Z"/><path class="cls-1" d="M107.38,22.13a1.75,1.75,0,0,0-.63,1.31,1.22,1.22,0,0,0,.36.9,1.26,1.26,0,0,0,.91.35,3.36,3.36,0,0,0,2.09-1,1.16,1.16,0,0,0,.37.78,1.3,1.3,0,0,0,.85.25,1.54,1.54,0,0,0,.83-.22,2.66,2.66,0,0,0,.71-.74l-.21-.16c-.12.16-.24.25-.36.25a.2.2,0,0,1-.15-.06.33.33,0,0,1-.11-.16,3,3,0,0,1,0-.55V20.58a5,5,0,0,0-.1-1.32,1.74,1.74,0,0,0-.68-.83A2.36,2.36,0,0,0,109.8,18a4.41,4.41,0,0,0-1.45.24,2.46,2.46,0,0,0-1.08.69,1.37,1.37,0,0,0-.39.93.77.77,0,0,0,.29.61,1,1,0,0,0,.72.26.9.9,0,0,0,.64-.23.77.77,0,0,0,.26-.58.87.87,0,0,0-.26-.56.57.57,0,0,1-.19-.36.35.35,0,0,1,.17-.28,1.3,1.3,0,0,1,.73-.2.91.91,0,0,1,.49.14.67.67,0,0,1,.3.33,3.1,3.1,0,0,1,.08.91v.64A11.28,11.28,0,0,0,107.38,22.13Zm2.73,1a1.31,1.31,0,0,1-.79.39.64.64,0,0,1-.48-.19.77.77,0,0,1-.22-.55,1.28,1.28,0,0,1,.26-.74,4,4,0,0,1,1.23-1Z"/><path class="cls-1" d="M116.41,24.36a.89.89,0,0,1-.61-.21,1.6,1.6,0,0,1-.16-.87V15.36H113v.26a.83.83,0,0,1,.61.21,1.55,1.55,0,0,1,.16.86v6.59a1.5,1.5,0,0,1-.14.83.82.82,0,0,1-.63.25v.24h3.44Z"/><path class="cls-1" d="M118.56,17.25a1.08,1.08,0,0,0,1.06-1.05,1.06,1.06,0,0,0-1.06-1,1.05,1.05,0,0,0,0,2.1Z"/><path class="cls-1" d="M120.28,24.36a.87.87,0,0,1-.61-.21,1.6,1.6,0,0,1-.16-.87V18.23h-2.67v.25a.87.87,0,0,1,.61.22,1.55,1.55,0,0,1,.16.86v3.72a1.5,1.5,0,0,1-.14.83.83.83,0,0,1-.63.25v.24h3.44Z"/><path class="cls-1" d="M121.27,22.13a1.75,1.75,0,0,0-.63,1.31,1.22,1.22,0,0,0,.36.9,1.26,1.26,0,0,0,.91.35,3.34,3.34,0,0,0,2.09-1,1.16,1.16,0,0,0,.37.78,1.32,1.32,0,0,0,.86.25,1.53,1.53,0,0,0,.82-.22,2.53,2.53,0,0,0,.71-.74l-.21-.16c-.12.16-.24.25-.36.25a.2.2,0,0,1-.15-.06.33.33,0,0,1-.11-.16,3,3,0,0,1,0-.55V20.58a5,5,0,0,0-.1-1.32,1.74,1.74,0,0,0-.68-.83,2.36,2.36,0,0,0-1.43-.39,4.45,4.45,0,0,0-1.45.24,2.46,2.46,0,0,0-1.08.69,1.37,1.37,0,0,0-.39.93.81.81,0,0,0,.29.61,1,1,0,0,0,.72.26.94.94,0,0,0,.65-.23.79.79,0,0,0,.25-.58.87.87,0,0,0-.26-.56.57.57,0,0,1-.19-.36.34.34,0,0,1,.18-.28,1.25,1.25,0,0,1,.72-.2.88.88,0,0,1,.49.14.67.67,0,0,1,.3.33,3.1,3.1,0,0,1,.08.91v.64A11.71,11.71,0,0,0,121.27,22.13Zm2.73,1a1.29,1.29,0,0,1-.79.39.64.64,0,0,1-.48-.19.77.77,0,0,1-.22-.55,1.28,1.28,0,0,1,.26-.74A4,4,0,0,1,124,21Z"/><path class="cls-1" d="M130.13,24.36a.72.72,0,0,1-.5-.24,2.05,2.05,0,0,1-.13-.91V19.8c.34-.56.7-.84,1.09-.84a.47.47,0,0,1,.32.12.61.61,0,0,1,.22.31,4.8,4.8,0,0,1,.06,1v2.83a2,2,0,0,1-.11.85.71.71,0,0,1-.52.3v.24h3.22v-.24a.84.84,0,0,1-.56-.23,2,2,0,0,1-.13-.92V20.73a7,7,0,0,0-.1-1.49,1.73,1.73,0,0,0-.55-.85,1.53,1.53,0,0,0-1-.35,2,2,0,0,0-1,.25,3.79,3.79,0,0,0-.94.77v-.83h-2.59v.25a.81.81,0,0,1,.55.24,1.74,1.74,0,0,1,.14.9v3.59a1.87,1.87,0,0,1-.12.89.81.81,0,0,1-.57.26v.24h3.22Z"/><path class="cls-1" d="M138.78,23.53a5.15,5.15,0,0,0,3.72,1.29,9.77,9.77,0,0,0,2-.2,9.09,9.09,0,0,0,1.85-.6V22.1a1.94,1.94,0,0,1,.06-.63.63.63,0,0,1,.31-.35,1.88,1.88,0,0,1,.71-.14v-.25h-4.49V21h.24a1.14,1.14,0,0,1,.57.13.63.63,0,0,1,.31.29,2,2,0,0,1,.07.7V24a4.89,4.89,0,0,1-.72.21,3.21,3.21,0,0,1-.68.07,2.86,2.86,0,0,1-1.66-.47,2.65,2.65,0,0,1-1-1.47,7.78,7.78,0,0,1-.31-2.33,8.11,8.11,0,0,1,.28-2.14,3.16,3.16,0,0,1,1-1.62,2.56,2.56,0,0,1,1.72-.59,3.27,3.27,0,0,1,2,.7,4.17,4.17,0,0,1,1.37,2h.25V15.15h-.25a1.21,1.21,0,0,1-.3.53.51.51,0,0,1-.36.14,3.75,3.75,0,0,1-.79-.25,5.79,5.79,0,0,0-1-.31,5.9,5.9,0,0,0-1.24-.11,5.09,5.09,0,0,0-3.69,1.43,4.78,4.78,0,0,0-1.46,3.53,4.69,4.69,0,0,0,.47,2.1A4.5,4.5,0,0,0,138.78,23.53Z"/><path class="cls-1" d="M150.77,24.79a2.74,2.74,0,0,0,2.3-1.1,3.73,3.73,0,0,0,.68-2.27,4,4,0,0,0-.37-1.73,2.79,2.79,0,0,0-1.08-1.22,3,3,0,0,0-1.55-.43,2.62,2.62,0,0,0-2.18,1,3.78,3.78,0,0,0-.79,2.39,3.7,3.7,0,0,0,.78,2.33A2.59,2.59,0,0,0,150.77,24.79Zm-.92-5a1.85,1.85,0,0,1,.33-1,.79.79,0,0,1,.6-.26.68.68,0,0,1,.46.14,1.15,1.15,0,0,1,.38.63,6.29,6.29,0,0,1,.13,1.59,16.22,16.22,0,0,1-.13,2.62,1.13,1.13,0,0,1-.36.64.73.73,0,0,1-.51.17.75.75,0,0,1-.56-.25,1.34,1.34,0,0,1-.32-.74,9.6,9.6,0,0,1-.09-1.36C149.78,21.06,149.8,20.34,149.85,19.83Z"/><path class="cls-1" d="M154.61,19.85l2.15,4.94h.32l2.12-5a4.08,4.08,0,0,1,.58-1.08.87.87,0,0,1,.49-.23v-.25h-2.09v.25a.87.87,0,0,1,.54.15.41.41,0,0,1,.16.34,4,4,0,0,1-.36,1.26l-.84,2.06-1.05-2.39a3,3,0,0,1-.3-.95.46.46,0,0,1,.16-.35.63.63,0,0,1,.44-.12v-.25h-3.39v.25a1,1,0,0,1,.47.24A5.35,5.35,0,0,1,154.61,19.85Z"/><path class="cls-1" d="M160.54,23.7a2.4,2.4,0,0,0,2.14,1.09,2.51,2.51,0,0,0,1.46-.43,4.09,4.09,0,0,0,1.14-1.5l-.23-.15a2.89,2.89,0,0,1-.72.82,1.3,1.3,0,0,1-.74.23,1.42,1.42,0,0,1-1.13-.57,3.35,3.35,0,0,1-.68-2h3.5a3.6,3.6,0,0,0-.77-2.35,2.18,2.18,0,0,0-1.68-.8,2.67,2.67,0,0,0-2,.95,3.62,3.62,0,0,0-.86,2.53A3.83,3.83,0,0,0,160.54,23.7Zm1.21-3.21a3,3,0,0,1,.4-1.66.68.68,0,0,1,.58-.35.56.56,0,0,1,.38.13,1.19,1.19,0,0,1,.37.62,6.18,6.18,0,0,1,.12,1.5h-1.85Z"/><path class="cls-1" d="M169.14,24.36a1.49,1.49,0,0,1-.55-.11.52.52,0,0,1-.23-.27,1.34,1.34,0,0,1-.05-.5V21.64a4.52,4.52,0,0,1,.22-1.46,1.37,1.37,0,0,1,.42-.66.57.57,0,0,1,.38-.15.26.26,0,0,1,.15,0l.32.26a.91.91,0,0,0,.62.23.66.66,0,0,0,.53-.25,1,1,0,0,0,.23-.71.9.9,0,0,0-.23-.66.79.79,0,0,0-.61-.24,1.64,1.64,0,0,0-.92.33,4.48,4.48,0,0,0-1.11,1.31V18.23h-2.6v.25a1.16,1.16,0,0,1,.46.13.54.54,0,0,1,.19.28,2.38,2.38,0,0,1,.06.69V23.1a2.08,2.08,0,0,1-.15,1,.77.77,0,0,1-.56.23v.24h3.44Z"/><path class="cls-1" d="M174.8,24.36a.72.72,0,0,1-.5-.24,2.05,2.05,0,0,1-.13-.91V19.8c.34-.56.7-.84,1.09-.84a.47.47,0,0,1,.32.12.54.54,0,0,1,.21.31,4,4,0,0,1,.07,1v2.83a2,2,0,0,1-.11.85.71.71,0,0,1-.52.3v.24h3.22v-.24a.84.84,0,0,1-.56-.23,2,2,0,0,1-.13-.92V20.73a6.18,6.18,0,0,0-.11-1.49,1.64,1.64,0,0,0-.54-.85,1.55,1.55,0,0,0-1-.35,2,2,0,0,0-1,.25,3.62,3.62,0,0,0-.94.77v-.83h-2.59v.25a.81.81,0,0,1,.55.24,1.74,1.74,0,0,1,.14.9v3.59a1.87,1.87,0,0,1-.12.89.81.81,0,0,1-.57.26v.24h3.22Z"/><path class="cls-1" d="M182.24,24.36a.71.71,0,0,1-.56-.26,2.12,2.12,0,0,1-.12-.89V19.79a2.65,2.65,0,0,1,.68-.72.85.85,0,0,1,.49-.14.52.52,0,0,1,.34.12.71.71,0,0,1,.24.34,5.67,5.67,0,0,1,.06,1.08v2.74a2.89,2.89,0,0,1-.05.73.57.57,0,0,1-.2.29.8.8,0,0,1-.42.13v.24H186v-.24a.69.69,0,0,1-.6-.28,1.91,1.91,0,0,1-.12-.87V19.79a2.91,2.91,0,0,1,.61-.64,1,1,0,0,1,.59-.22.5.5,0,0,1,.34.12.65.65,0,0,1,.22.34,5.5,5.5,0,0,1,.07,1.08v2.74a1.73,1.73,0,0,1-.13.85.76.76,0,0,1-.57.3v.24h3.29v-.24a.89.89,0,0,1-.56-.23,2.1,2.1,0,0,1-.12-.92V20.6a5.55,5.55,0,0,0-.16-1.48,1.47,1.47,0,0,0-.55-.77,1.62,1.62,0,0,0-1.05-.31,2.22,2.22,0,0,0-1,.27,4.41,4.41,0,0,0-1,.89A1.65,1.65,0,0,0,183.5,18a2.17,2.17,0,0,0-1,.23,3.58,3.58,0,0,0-1,.8v-.84H179v.25a.79.79,0,0,1,.55.24,1.74,1.74,0,0,1,.14.9v3.59a1.87,1.87,0,0,1-.12.89.81.81,0,0,1-.57.26v.24h3.28Z"/><path class="cls-1" d="M192.78,24.79a2.48,2.48,0,0,0,1.45-.43,4,4,0,0,0,1.14-1.5l-.23-.15a2.75,2.75,0,0,1-.72.82,1.3,1.3,0,0,1-.74.23,1.42,1.42,0,0,1-1.13-.57,3.28,3.28,0,0,1-.67-2h3.49a3.55,3.55,0,0,0-.77-2.35,2.17,2.17,0,0,0-1.67-.8,2.68,2.68,0,0,0-2,.95,3.62,3.62,0,0,0-.86,2.53,3.83,3.83,0,0,0,.59,2.18A2.41,2.41,0,0,0,192.78,24.79Zm-.94-4.3a3.06,3.06,0,0,1,.4-1.66.68.68,0,0,1,.58-.35.61.61,0,0,1,.39.13,1.18,1.18,0,0,1,.36.62,6,6,0,0,1,.13,1.5h-1.86Z"/><path class="cls-1" d="M198.84,24.36a.72.72,0,0,1-.5-.24,2.05,2.05,0,0,1-.13-.91V19.8c.34-.56.7-.84,1.09-.84a.47.47,0,0,1,.32.12.54.54,0,0,1,.21.31,4,4,0,0,1,.07,1v2.83a2,2,0,0,1-.11.85.71.71,0,0,1-.52.3v.24h3.22v-.24a.84.84,0,0,1-.56-.23,2,2,0,0,1-.13-.92V20.73a6.18,6.18,0,0,0-.11-1.49,1.64,1.64,0,0,0-.54-.85,1.55,1.55,0,0,0-1-.35,1.92,1.92,0,0,0-1,.25,3.62,3.62,0,0,0-.94.77v-.83h-2.59v.25a.81.81,0,0,1,.55.24,1.74,1.74,0,0,1,.14.9v3.59a1.87,1.87,0,0,1-.12.89.81.81,0,0,1-.57.26v.24h3.22Z"/><path class="cls-1" d="M206.71,18.91v-.68H205.2V15.9H205a8.15,8.15,0,0,1-1.06,1.49,8.85,8.85,0,0,1-1.46,1.28v.24h.83v3.44a5.93,5.93,0,0,0,.07,1.25,1.52,1.52,0,0,0,.53.76,1.63,1.63,0,0,0,1,.33,1.86,1.86,0,0,0,1.79-1.31l-.2-.15c-.27.45-.55.68-.84.68a.4.4,0,0,1-.24-.1.53.53,0,0,1-.18-.26,3.26,3.26,0,0,1-.05-.71V18.91Z"/><path class="cls-1" d="M23.68,39.81,23.5,40A.49.49,0,0,0,23.68,39.81Z"/><path class="cls-1" d="M25.61,27a.34.34,0,1,0-.67,0,.34.34,0,0,0,.67,0Z"/><path class="cls-1" d="M28.71,13.24h0V23a2.24,2.24,0,0,0,.94,2l4.62,2.76a.61.61,0,0,0,.43.19.56.56,0,0,0,.37-.15l4.7-2.8a2.24,2.24,0,0,0,.94-2V13.24h-12Zm2,.93.2,0L31,14l.12.2.19,0-.09.17.15.16-.19,0v.21L31,14.61l-.17.13v-.21l-.19,0,.14-.16Zm-.05,2.19c.35,0,.25.33.31.33s0-.33.23-.33.78.89.39.89c-.17,0,0-.13,0-.15s-.09-.08-.13-.08-.15.18-.25.19-.12,0-.12-.08.15-.11.2-.16c-.78,0-.79.35-.92.35s.18-.37.28-.48c-.15,0-.25-.22-.42-.32.08-.12.13-.07.23,0C30.39,16.45,30.45,16.36,30.63,16.36Zm0,3,.14-.16L30.68,19l.2,0,.11-.2.12.2.19,0-.09.17.15.16-.19,0v.21L31,19.43l-.17.13v-.21Zm-1.58-5.76h1.26v2.49H29.05Zm.15,3.36.15-.16-.09-.17.19,0,.12-.2.11.2.2,0-.09.17.15.16-.19,0v.21L29.57,17l-.18.13V17Zm-.15.73h1.26V20H29.05Zm3.65,8.74-2.87-1.72a2.05,2.05,0,0,1-.78-1.6V20.34H32.7Zm0-6.38h-1V17.65h1ZM32,16.59l.2,0,.12-.2.11.2.2,0-.09.17.14.16-.18,0v.21L32.32,17l-.18.13V17l-.19,0,.15-.16Zm.7-.54h-1V13.56h1Zm3.71,10.54-1.33.79h0a.62.62,0,0,1-.35.12.57.57,0,0,1-.36-.13L33,26.59V20.34h3.38Zm0-6.58H33V13.56h3.38Zm4,3.06a2.05,2.05,0,0,1-.78,1.6l-2.87,1.72V20.34h3.65Zm0-3.06H36.74V13.56h3.65Z"/><path class="cls-1" d="M29.2,22c0,.05,0,.11.11.16s-.07.11-.07.34c0,.76.48,1.12.84,1.12s.21-.18.24-.26c0,.13.13-.06.13.16s-.24.14-.24.34.38,0,.38.29a4,4,0,0,1,0,.5c0,.1.4-.13.38-.17s.09.32.27.31.14-.29.23-.32.36.28.36.15c0-.36-.14-.21-.14-.45s.49-.19.42-.3-.12,0-.17-.21c0,0-.39-.57.08-.26s.56-.75.53-.81-.24.06-.32.11a1.6,1.6,0,0,1,.35-.47c0-.15-.21,0-.42.1.69-1,.25-.58-.14-.51.62-.66.45-.65,0-.44.36-.29.43-.62.38-.72-.33.45-.64.38-.64.79a1.71,1.71,0,0,1-.23.86c-.18.19,0-.72-.51-.72-.15,0-.51,0-.62.17.1,0,.24.24.24.34s.09.36-.07.36-.35-.34-.35-.5,0-.12,0-.35a1.3,1.3,0,0,0-.89-.94c0,.27.36.34.36.68-.15,0-.37-.28-.37-.1s.23.2.23.35-.26-.05-.26.11.14.12.18.26C29.31,21.91,29.22,21.92,29.2,22Z"/><path class="cls-1" d="M45.33,25.1a.37.37,0,0,0,.4-.35.38.38,0,0,0-.4-.35.37.37,0,0,0-.39.35A.36.36,0,0,0,45.33,25.1Z"/><path class="cls-1" d="M43.34,25.7a.4.4,0,1,0,.39-.35A.38.38,0,0,0,43.34,25.7Z"/><path class="cls-1" d="M24.74,27.54a.38.38,0,0,0-.4.35.4.4,0,1,0,.4-.35Z"/><path class="cls-1" d="M26,28.35a.35.35,0,1,0,0-.7.35.35,0,1,0,0,.7Z"/><path class="cls-1" d="M60.46,14.39a2.47,2.47,0,0,0-.29-2.62c-.15-.15,0-.48-.32-.53a3.17,3.17,0,0,0,.38,2.66C60.27,14.07,60.23,14.37,60.46,14.39Z"/><path class="cls-1" d="M9.8,14.3c.1,0,.08.19.18.09a3.92,3.92,0,0,1,0-1.67,1.5,1.5,0,0,0-.62-1,.16.16,0,0,0-.21,0C9.36,12.55,9,13.71,9.8,14.3Z"/><path class="cls-1" d="M61.7,13.35c.17-.1.4-.33.27-.57a.54.54,0,0,0-.54-.21.5.5,0,0,0-.26.55A.53.53,0,0,0,61.7,13.35Z"/><path class="cls-1" d="M8.43,14.18a.67.67,0,0,0,.28-.47c-.07-.17-.21-.21-.36-.27a.48.48,0,0,0-.4.19.38.38,0,0,0,.09.44C8.12,14.18,8.31,14.18,8.43,14.18Z"/><path class="cls-1" d="M62.22,14.6a.49.49,0,0,0,.57-.19.5.5,0,0,0,0-.34.7.7,0,0,0-.44-.21.62.62,0,0,0-.36.38A.57.57,0,0,0,62.22,14.6Z"/><path class="cls-1" d="M61.17,14.73c.19.06.34-.11.44-.21s.15-.34,0-.43a.53.53,0,0,0-.39-.1.46.46,0,0,0-.3.48C60.94,14.62,61.07,14.62,61.17,14.73Z"/><path class="cls-1" d="M59.81,15c.27,0,.25-.34.25-.57a.55.55,0,0,0-.42-.23.49.49,0,0,0-.31.5A.4.4,0,0,0,59.81,15Z"/><path class="cls-1" d="M10.72,15c.12-.11.33-.23.27-.44a.39.39,0,0,0-.61-.19c0,.12-.23.25-.08.4A.43.43,0,0,0,10.72,15Z"/><path class="cls-1" d="M9.5,15a.42.42,0,0,0,.23-.4c-.08-.15-.23-.36-.46-.28a.37.37,0,0,0-.19.49A.39.39,0,0,0,9.5,15Z"/><path class="cls-1" d="M55.18,17.39c.29-.28.15-.81.23-1.21A4.38,4.38,0,0,0,55,14.66c-.06-.1-.06-.31-.23-.25a3.62,3.62,0,0,0-.08,2.32C54.87,16.92,54.89,17.28,55.18,17.39Z"/><path class="cls-1" d="M8.22,14.64a.56.56,0,0,0-.27.51c.11.17.27.36.53.29s.33-.27.27-.52A.56.56,0,0,0,8.22,14.64Z"/><path class="cls-1" d="M58.41,17.56a3.06,3.06,0,0,0-.11-2A.83.83,0,0,1,58,14.9c-.07-.13-.15-.26-.3-.15a2.93,2.93,0,0,0-.25,1.2,8.56,8.56,0,0,0,.86,1.71Z"/><path class="cls-1" d="M60.38,14.9a.43.43,0,0,0-.23.5.38.38,0,0,0,.48.26.55.55,0,0,0,.31-.51C60.84,15,60.61,14.77,60.38,14.9Z"/><path class="cls-1" d="M9.44,16.2a.44.44,0,0,0,.31-.4c0-.21-.23-.29-.41-.4s-.28,0-.34.17a.5.5,0,0,0,0,.49C9.15,16.12,9.27,16.33,9.44,16.2Z"/><path class="cls-1" d="M10,15.87c.11.14.23.33.49.25.08-.11.31-.21.23-.42s-.23-.36-.49-.3S9.92,15.66,10,15.87Z"/><path class="cls-1" d="M61.05,16.46c0-.28.46-.55.48-.83a3.12,3.12,0,0,0-1.7,1.1c-.23.38-.61.76-.56,1.18a1,1,0,0,0,.48-.27A2.14,2.14,0,0,0,61.05,16.46Z"/><path class="cls-1" d="M10.05,17.72a.16.16,0,0,0,.14-.21,7.28,7.28,0,0,1-.85-1c-.28-.36-.68-.44-1-.72-.15,0-.42-.17-.48.07C8.33,16.61,9,17.66,10.05,17.72Z"/><path class="cls-1" d="M59.81,19.27c.23.14.48-.09.71-.17a2.72,2.72,0,0,0,1.3-2.28h-.16A10.33,10.33,0,0,0,59.81,19.27Z"/><path class="cls-1" d="M57.44,18a.51.51,0,0,0,.36-.61c-.11-.11-.17-.21-.29-.25a.39.39,0,0,0-.26.06.44.44,0,0,0-.29.46C57.07,17.87,57.21,18.06,57.44,18Z"/><path class="cls-1" d="M9.31,18.61a10.4,10.4,0,0,0-1.13-1,3.82,3.82,0,0,0-1.28-.28c-.14.07-.42,0-.44.22.74.21,1.22.82,1.93,1.07C8.71,18.63,9,18.8,9.31,18.61Z"/><path class="cls-1" d="M13.9,18.48a.46.46,0,0,0,.32-.48c0-.19-.25-.21-.42-.25s-.38.25-.29.48S13.74,18.42,13.9,18.48Z"/><path class="cls-1" d="M12.44,18.55c.12.17.35.06.5-.07a.47.47,0,0,0-.08-.48c-.17-.17-.42,0-.57.1S12.31,18.42,12.44,18.55Z"/><path class="cls-1" d="M57.57,18.38a.42.42,0,0,0-.32.32c0,.27.28.31.49.38.16-.09.35-.26.27-.49A.41.41,0,0,0,57.57,18.38Z"/><path class="cls-1" d="M59,19.1c.06-.09.13-.11.21-.17s0-.28,0-.38-.21-.19-.36-.15-.35.21-.31.44A.41.41,0,0,0,59,19.1Z"/><path class="cls-1" d="M6.86,18.8a1,1,0,0,0,.17.28.41.41,0,0,0,.56-.28.5.5,0,0,0-.5-.36A.39.39,0,0,0,6.86,18.8Z"/><path class="cls-1" d="M13.84,19.27c.11.14.25.31.46.29s.34-.23.36-.4a.48.48,0,0,0-.57-.32A.45.45,0,0,0,13.84,19.27Z"/><path class="cls-1" d="M12.73,19.12c0,.21.1.29.23.4s.4-.06.53-.17a.32.32,0,0,0-.07-.34c-.12-.08-.21-.19-.37-.14A.8.8,0,0,0,12.73,19.12Z"/><path class="cls-1" d="M61.91,19a.72.72,0,0,0-.4.27c0,.11,0,.28.08.32a.42.42,0,0,0,.46.11.59.59,0,0,0,.28-.4A.76.76,0,0,0,61.91,19Z"/><path class="cls-1" d="M63.27,19.84a.53.53,0,0,0,.4-.38.38.38,0,0,0-.53-.22.39.39,0,0,0-.18.34C62.91,19.77,63.14,19.81,63.27,19.84Z"/><path class="cls-1" d="M9.59,19.5c-.13.08-.32,0-.36.23a.36.36,0,0,0,.11.42c.1.09.25.19.39.11a.41.41,0,0,0,.25-.51A.48.48,0,0,0,9.59,19.5Z"/><path class="cls-1" d="M10.84,20.3c.05-.13.23-.19.17-.36s-.54-.42-.71-.1,0,.38.17.5S10.74,20.36,10.84,20.3Z"/><path class="cls-1" d="M60.61,19.67a.42.42,0,0,0-.23.4.36.36,0,0,0,.42.25c.12-.13.31-.27.29-.48A.45.45,0,0,0,60.61,19.67Z"/><path class="cls-1" d="M62,20.17a.4.4,0,0,0,.09.45.61.61,0,0,0,.5.08c.21-.12.19-.34.23-.53-.13-.06-.17-.17-.32-.25A.5.5,0,0,0,62,20.17Z"/><path class="cls-1" d="M8.54,20.47c0,.11-.09.32.06.4a.42.42,0,0,0,.42,0c.06-.08.25-.12.17-.29S8.73,20.11,8.54,20.47Z"/><path class="cls-1" d="M59,20.66a6.19,6.19,0,0,1,.84.46,1.6,1.6,0,0,0,1.7.09s.06-.17,0-.19c-.67,0-1.15-.59-1.76-.68C59.46,20.41,59.08,20.38,59,20.66Z"/><path class="cls-1" d="M9.57,20.7a.37.37,0,0,0,.14.53c.11,0,.27.08.36,0s.17-.19.12-.36A.37.37,0,0,0,9.57,20.7Z"/><path class="cls-1" d="M11.83,21.42c.17-.11.29-.27.21-.46s-.52-.41-.71-.09c-.19.17,0,.34.1.49S11.68,21.5,11.83,21.42Z"/><path class="cls-1" d="M33.59,24.84c.27.74,1.15.38,1.75.44a1.9,1.9,0,0,0,.8-.68c0-.35.11-.79-.08-1.07a3.19,3.19,0,0,1-.42-1.18c-.1-.56.59-.08.63-.5-.19-.22-.49-.62-.85-.34a.69.69,0,0,0-.24.7c.08.54.32,1,.4,1.54a1.87,1.87,0,0,1-.3-.26c-.42-.54-1.2-.38-1.67-.88-.58,0,.37.64-.3.76,0,.14.14.22.14.36s-.14.06-.2.1A3,3,0,0,0,33.59,24.84Z"/><path class="cls-1" d="M13.65,22.16c.13-.11.3-.23.23-.44a.45.45,0,0,0-.39-.22c-.13.11-.28.22-.21.43S13.46,22.24,13.65,22.16Z"/><path class="cls-1" d="M26.46,22c-.23.82-.65,1.92-.08,2.7.23,0,.16-.25.19-.42a2.89,2.89,0,0,0,.25-2.36C26.75,21.72,26.5,21.8,26.46,22Z"/><path class="cls-1" d="M44.8,24.29a2.39,2.39,0,0,0,0-2c-.08-.17-.06-.55-.36-.49A4.78,4.78,0,0,1,44.15,23a4.8,4.8,0,0,0,.49,1.5Z"/><path class="cls-1" d="M12.94,23.4A2.49,2.49,0,0,0,14.81,23c.23-.16.58-.23.71-.48,0-.11-.15-.06-.19-.15A2.28,2.28,0,0,0,12.94,23.4Z"/><path class="cls-1" d="M8.35,25.39A5.64,5.64,0,0,0,6.9,23.32c-.08,0-.21,0-.21.08A2.34,2.34,0,0,0,8,25.58c.23,0,.4.21.57.08S8.41,25.47,8.35,25.39Z"/><path class="cls-1" d="M43.75,24.46c.17-.06.21-.27.19-.49a.36.36,0,0,0-.56-.1c0,.1-.17.19-.11.34A.39.39,0,0,0,43.75,24.46Z"/><path class="cls-1" d="M60.55,26.63a5.21,5.21,0,0,0,2.55-2.36.7.7,0,0,0-.56.08c-1.11.28-1.49,1.46-2.2,2.22C60.38,26.68,60.46,26.63,60.55,26.63Z"/><path class="cls-1" d="M5.67,25.6c.19,0,.1-.21.21-.3,0-.21-.21-.27-.38-.35a.36.36,0,0,0-.27.46A.34.34,0,0,0,5.67,25.6Z"/><path class="cls-1" d="M9.25,25.22a2.28,2.28,0,0,0,2.41.61c.11,0,.32,0,.25-.23-.71-.53-1.72-.36-2.57-.57C9.25,25.05,9.25,25.14,9.25,25.22Z"/><path class="cls-1" d="M6.27,25.56a.72.72,0,0,0,.28.27.46.46,0,0,0,.52-.19.6.6,0,0,0,0-.32.66.66,0,0,0-.4-.16A.51.51,0,0,0,6.27,25.56Z"/><path class="cls-1" d="M26.13,25.26a.31.31,0,0,0-.15.4.41.41,0,0,0,.44.17c.12-.08.29-.21.25-.4S26.31,25.22,26.13,25.26Z"/><path class="cls-1" d="M63.12,25.56c0,.15.09.23.11.33a.45.45,0,0,0,.4.07c.14-.13.33-.23.27-.44s-.19-.13-.29-.22A.47.47,0,0,0,63.12,25.56Z"/><path class="cls-1" d="M64.82,26a.29.29,0,0,0,.38-.12c.1-.15.21-.3.08-.49-.16,0-.25-.21-.46-.13s-.31.19-.31.36S64.7,25.92,64.82,26Z"/><path class="cls-1" d="M4.51,26.49c.13,0,.23,0,.34-.09S5,26.19,5,26a.55.55,0,0,0-.42-.31.54.54,0,0,0-.38.42A.65.65,0,0,0,4.51,26.49Z"/><path class="cls-1" d="M48.45,26.09c-.06.19.08.31.21.44s.38,0,.5-.21a.67.67,0,0,0,0-.28A.41.41,0,0,0,48.45,26.09Z"/><path class="cls-1" d="M7.89,26c-.19.1-.17.29-.17.48s.17.26.36.24.25-.17.29-.32A.38.38,0,0,0,7.89,26Z"/><path class="cls-1" d="M5.58,26.57a.51.51,0,0,0,.57.3.47.47,0,0,0,.21-.47c-.11-.1-.21-.31-.4-.31A.59.59,0,0,0,5.58,26.57Z"/><path class="cls-1" d="M50.3,26.87a.44.44,0,0,0,.23-.51.48.48,0,0,0-.42-.23c-.26,0-.28.27-.38.44A.52.52,0,0,0,50.3,26.87Z"/><path class="cls-1" d="M7.24,26.76c0-.1.17-.17.1-.32A.39.39,0,0,0,7,26.15c-.15.08-.3.19-.28.4s.19.19.28.3S7.13,26.76,7.24,26.76Z"/><path class="cls-1" d="M62,26.4c0,.11-.08.3,0,.38s.23.21.4.17a.63.63,0,0,0,.36-.34A.42.42,0,0,0,62,26.4Z"/><path class="cls-1" d="M63.58,26.57c-.14.25.07.4.26.49a.54.54,0,0,0,.5-.36.4.4,0,0,0-.5-.32C63.71,26.4,63.67,26.49,63.58,26.57Z"/><path class="cls-1" d="M54,26.61a.49.49,0,0,0-.29.55.88.88,0,0,0,.4.17c.17-.13.42-.21.31-.48A.5.5,0,0,0,54,26.61Z"/><path class="cls-1" d="M48,27.12a.35.35,0,0,0,.21.4c.19.13.35-.08.48-.17s.06-.21,0-.25A.39.39,0,0,0,48,27.12Z"/><path class="cls-1" d="M49.41,27a.47.47,0,0,0-.27.16.36.36,0,0,0,0,.32c.15,0,.32.21.46.06a.27.27,0,0,0,.17-.33C49.73,27.08,49.56,27.08,49.41,27Z"/><path class="cls-1" d="M14.18,27.67c0-.13.16-.28,0-.4a.7.7,0,0,0-.42-.21c-.17,0-.17.14-.29.19s-.07.44.14.52A.42.42,0,0,0,14.18,27.67Z"/><path class="cls-1" d="M56.31,27.69c.15,0,.36-.13.32-.34S56.29,27,56,27.1c0,.1-.17.19-.17.32S56.06,27.77,56.31,27.69Z"/><path class="cls-1" d="M55,27.1c-.14,0-.21.17-.33.27s0,.26.1.32a.4.4,0,0,0,.46.08c.09-.1.32-.21.23-.42A.53.53,0,0,0,55,27.1Z"/><path class="cls-1" d="M65,27.6l-.07-.06c-.9,0-1.82-.74-2.72-.17-.17.11-.48,0-.55.28.84.31,2,.72,2.86.19C64.61,27.75,65,27.9,65,27.6Z"/><path class="cls-1" d="M4.79,28a3.43,3.43,0,0,0,2.7-.49l.08-.15-.06-.06a3.79,3.79,0,0,0-2.81.57Z"/><path class="cls-1" d="M58.76,27.5c-.08-.21-.33-.23-.48-.23s-.33.23-.27.4a.41.41,0,0,0,.54.23A.46.46,0,0,0,58.76,27.5Z"/><path class="cls-1" d="M11.07,28c.21-.09.17-.26.26-.43-.13-.19-.32-.38-.57-.25-.1.11-.27.17-.21.4A.46.46,0,0,0,11.07,28Z"/><path class="cls-1" d="M9.31,28.09A.4.4,0,0,0,9.73,28c0-.11.17-.19.11-.34a.47.47,0,0,0-.42-.34,1.56,1.56,0,0,0-.34.23C9,27.82,9.17,28,9.31,28.09Z"/><path class="cls-1" d="M60.23,28.18a.45.45,0,0,0-.38-.34c-.08,0-.23,0-.27.1a.33.33,0,0,0-.08.4.47.47,0,0,0,.4.22A.46.46,0,0,0,60.23,28.18Z"/><path class="cls-1" d="M7.72,29.21a3,3,0,0,0,.46-.91c0-.12.17-.19.11-.36l-.07,0a5.43,5.43,0,0,0-2.11,1.77l.08.17C6.76,29.7,7.32,29.7,7.72,29.21Z"/><path class="cls-1" d="M58.87,28.81c.14-.11.35-.15.31-.4a.42.42,0,0,0-.46-.28c-.12.11-.33.19-.27.43A.48.48,0,0,0,58.87,28.81Z"/><path class="cls-1" d="M10.19,28.22a.35.35,0,0,0-.21.48.58.58,0,0,0,.47.21c.12-.1.29-.16.31-.4,0,0-.08-.06-.06-.1C10.63,28.22,10.38,28.2,10.19,28.22Z"/><path class="cls-1" d="M63.75,29.44c.17-.1.36-.23.28-.48a.53.53,0,0,0-.51-.24c-.23.05-.27.3-.48.32a2,2,0,0,0-1.45-.82c-.23.17.17.31.25.5A2.67,2.67,0,0,0,63.35,30c.07,0,.21.07.26,0a.69.69,0,0,0-.3-.42C63.29,29.32,63.61,29.55,63.75,29.44Z"/><path class="cls-1" d="M65,28.79a.31.31,0,0,0,0-.4.56.56,0,0,0-.48-.15.63.63,0,0,0-.31.27c-.05.17.06.28.16.38S64.93,29,65,28.79Z"/><path class="cls-1" d="M55.6,28.39c0,.14.14.25.21.33.27.85,1.19,1.29,1.91,1.69,0,0,.14,0,.18,0a2.9,2.9,0,0,0-.46-.84c-.08-.24-.25-.34-.4-.55A1.9,1.9,0,0,0,55.6,28.39Z"/><path class="cls-1" d="M8.85,29a.51.51,0,0,0,.49.17c.1-.09.27-.24.18-.43s-.21-.27-.37-.25S8.71,28.75,8.85,29Z"/><path class="cls-1" d="M59.35,29.06c-.13.11,0,.28,0,.38s.32.09.48.07.23-.17.21-.3S59.58,28.77,59.35,29.06Z"/><path class="cls-1" d="M65,30a.47.47,0,0,0,.29-.52,1,1,0,0,0-.25-.22.53.53,0,0,0-.54.15c0,.15-.11.28,0,.4A.51.51,0,0,0,65,30Z"/><path class="cls-1" d="M50.78,32.42a3.1,3.1,0,0,0-2.85.57v.13a4.48,4.48,0,0,0,2.2-.32C50.32,32.61,50.78,32.67,50.78,32.42Z"/><path class="cls-1" d="M19.88,33.69a.4.4,0,0,0,.31-.36.48.48,0,0,0-.4-.32c-.14.11-.35.21-.27.46A.42.42,0,0,0,19.88,33.69Z"/><path class="cls-1" d="M49.64,33.9c.15.08.28.19.47.14a.58.58,0,0,0,.31-.48.45.45,0,0,0-.84,0C49.6,33.66,49.54,33.81,49.64,33.9Z"/><path class="cls-1" d="M54.59,33.52c-1.09-.09-2.35-.09-3,.76l.11.08,1.13,0a3.4,3.4,0,0,0,1.8-.74Z"/><path class="cls-1" d="M13.9,33.88a.37.37,0,0,0-.16.48.38.38,0,0,0,.71-.21C14.37,34,14.13,33.73,13.9,33.88Z"/><path class="cls-1" d="M15.14,34.09c-.06.08-.19.06-.25.19a.27.27,0,0,0,.13.36c.1.1.27.06.39,0s.15-.17.09-.28A.58.58,0,0,0,15.14,34.09Z"/><path class="cls-1" d="M6.69,36.3c.23.13.57.45.78.19-.48-.63-.65-1.3-1.36-1.71a2,2,0,0,1-.44-.23c-.15,0-.34-.23-.42,0C6,35.06,6,35.88,6.69,36.3Z"/><path class="cls-1" d="M67,27.44a1.44,1.44,0,0,0-1.17.86,1,1,0,0,0,.4,1.16.32.32,0,0,0,.42-.1c.1-.28-.19-.28-.24-.49a.72.72,0,0,1,.24-.74c.2-.21.56-.1.81-.1a1.43,1.43,0,0,1,.63.61,1.66,1.66,0,0,1,0,1.12,1.88,1.88,0,0,1-1.3,1.06C65.05,31.07,46,31,46,31c-2.25.21-4.8-.42-6.73.76A3.36,3.36,0,0,0,37.68,34,15.17,15.17,0,0,0,36,35.67L36,35.61c.1-.51.33-1,.44-1.46A8.76,8.76,0,0,0,37,32.69a11.73,11.73,0,0,1,2.79-3.5c.53-.7,1.45-.57,2.24-.57a5.55,5.55,0,0,0,2.92.42.19.19,0,0,0,.06-.15c-.29-.27-.78-.38-1.11-.65-.84-.4-1.64.13-2.52.06,0,0-.08-.06-.06-.12a12.1,12.1,0,0,1,2.6-1.4,18.67,18.67,0,0,1,2.28-.91c.32,0,.61-.27.91-.08a15.52,15.52,0,0,1-2.16,3.57c-.32,0-.51.34-.82.36-.17.23-.5.06-.71.14-.65.28-1.58.11-2,.72a.25.25,0,0,0,.16.11c1.28,0,2.71.1,4.07,0a.49.49,0,0,0,.33-.4c-.18-.36.07-.68.23-.95.11-.51.45-.82.59-1.31.44-.87,1-1.71,1.43-2.58,0,0,.08.09.17.07a11.37,11.37,0,0,1,3.2,0l.15.12a14.94,14.94,0,0,1-.19,3.06c-.36,1.23-1.76,1.1-2.77,1.38-.25.16-.73.08-.73.5a18.42,18.42,0,0,0,3.94.09c.21-.09.25-.28.36-.47s.31-.5.23-.8,0-.76-.09-1.16a.55.55,0,0,0,0-.4c.17-.61.13-1.35.26-1.95.37.05.54.49.94.51.21-.29-.23-.42-.34-.61a2.28,2.28,0,0,1,1.41.21l-.21.23c-.13.24.06.4.25.49s.25-.06.36-.11c.27-.19,0-.38.06-.55a20.37,20.37,0,0,1,4.46,1.27,3.57,3.57,0,0,0,1.22.4,5.51,5.51,0,0,0-1.59-.84c-.36-.21-.86-.23-1.14-.53.07-.11.21-.06.28-.15A3.08,3.08,0,0,0,60.23,25c0-.13.27-.08.25-.25-.19-.22-.5.06-.75,0-.88.17-1.26,1.2-2.14,1.39-1.07-.25-2.16-.5-3.23-.78a6.37,6.37,0,0,1-1.57-.34,8.75,8.75,0,0,1,.15-1.16.77.77,0,0,0,.08-.44,1,1,0,0,1,.21-.21l.44-.2a5,5,0,0,1,1.68,0,4.12,4.12,0,0,0,1,.23.77.77,0,0,1,.53-.11c.67-.36.23-1.14.27-1.75a13.64,13.64,0,0,0,1.59-1.73.38.38,0,0,0-.23-.4.37.37,0,0,0-.42.08c-.25.19,0,.43,0,.66a3.5,3.5,0,0,1-1,.82L57,21l-.05-.13a3.07,3.07,0,0,1-.17-.42c-.12-.15-.21-.43-.33-.57a8.48,8.48,0,0,0-1.64-2.2,8.87,8.87,0,0,0-4.42-2.72c-1.66-.57-3.33.17-4.82.69a1.2,1.2,0,0,1-.82-.88,4.17,4.17,0,0,1,.4-2.24,8.73,8.73,0,0,1,.56-1.42,14.68,14.68,0,0,0,.86-3.63,1.89,1.89,0,0,0-1.13-1.67A1.14,1.14,0,0,0,44.28,6a3,3,0,0,1-1.36,1.22c-.05.36.39.13.54.26.46.08,1-.07,1.36.23a3.53,3.53,0,0,1-.88,2.17,16.78,16.78,0,0,0-1.9,3.3l0,0v-1.1H32.08c-.51-.18-.9-.7-1.45-.7-1.17-.46-1.95.76-3.14.61-.15.09-.11.23-.19.34s-.17,0-.23,0c-.06-.51-.23-1-.29-1.46-.13-.21-.07-.5-.17-.72-.67-1.83,1.63-.44,2.09-1.52.4-.93-.77-1-1.13-1.68V6.64c-.33-.34-.69-.44-.9-.89a3,3,0,0,0,.06-1.62c0-.13-.1-.3-.29-.23-.4.54-.69,1-1.07,1.52a10.55,10.55,0,0,0-1.24-.93c-.31,0-.6-.36-1-.24a.3.3,0,0,0,.06.32,3,3,0,0,0,1,2.07l.06.32A9.52,9.52,0,0,0,24,9.74a15.57,15.57,0,0,1-4.55,6.4c-1.2,1.35-2.62,2.66-2.81,4.52-.07.3,0,.65-.19.86a7.28,7.28,0,0,1-1.95-1c-1-.68-2.35-.59-3-1.82-.25-.48.07-1,.3-1.33a2.45,2.45,0,0,0,.23-2.7c-.09,0-.11.09-.17.11-.06,1.24-1.05,2.11-.67,3.48.08.4.29.66.4,1-.15-.05-.36-.05-.49-.11A5.49,5.49,0,0,0,9.67,19c-1,.44-2.28-.1-3.06.78-.13,0-.29,0-.25.23.46,0,.9.13,1.36.11.73.13,1.22-.49,1.72-.76h.13c.21-.21.56-.09.83-.13a8.39,8.39,0,0,1,3.44,1.44v.08c-.42.19-.9.32-1.32.55a2.8,2.8,0,0,0-1.17,1.42c-.34.52.1,1,.31,1.43,0,.21,0,.47.23.55.67-.72,0-1.6.15-2.43a1.7,1.7,0,0,1,1.36-1.09c1.2-.51,2.06.46,3,1a15,15,0,0,1-.1,2.85,2.8,2.8,0,0,1-1,.15c-1.66.12-3,1-4.44,1.54-.67.23-1.47.21-2.14.46a5.15,5.15,0,0,0,1.61-.06c2.06-.3,3.63-1.88,5.85-1.61l0,.07a4.82,4.82,0,0,1-1,1.37c-.07-.23-.09-.42-.3-.55a.4.4,0,0,0-.48.17.31.31,0,0,0,0,.32.67.67,0,0,0,.46.29c0,.19-.27.28-.4.44-.58,1-1.78.6-2.47,1.29-.1.15-.48.24-.31.47a3.2,3.2,0,0,0,2.16-.55c.77-.87,1.59-1.69,2.36-2.51a2.49,2.49,0,0,1-.46,1.92,2.2,2.2,0,0,0-.56-.32.51.51,0,0,0-.38.42,1.31,1.31,0,0,0,.31.43,7.77,7.77,0,0,1-2.43.78,41,41,0,0,1-4.57.33,9.49,9.49,0,0,1-2.26,0c-.8.15-1.66-.1-2.31.34-.08.11,0,.21,0,.32,1,.63,2.29.13,3.38.32h8.26a3.77,3.77,0,0,0,1.7-.32,6.15,6.15,0,0,0,2.2-2.79,4.49,4.49,0,0,0,.44-1.26,1.82,1.82,0,0,1,1.57-1.29,9.82,9.82,0,0,1-.36,3.21c-.12.67-.56,1.33-.29,2,.06.34.42.34.69.39,2.54-.05,5.07-.15,7.76,0a6.57,6.57,0,0,0,1.42.21c0-.07.19-.09.13-.21a.77.77,0,0,0-.5-.59c-.05-.13-.23-.09-.3-.17-1.34-.76-2.95-.36-4.53-.34a3.4,3.4,0,0,1-2.32-.23c-.32-.38-.09-1.59-.09-1.59a15.48,15.48,0,0,1,.66-2.3,15.12,15.12,0,0,1,2.22,1.14,15.06,15.06,0,0,1,2.09,1.12,14.43,14.43,0,0,1,6,7.12c0,.23.23.48.08.71a12,12,0,0,0-1.59-1.6,3.1,3.1,0,0,0-1.59-2.34c-.32-.47-1-.51-1.51-.66l-7.63,0c-6.21-.09-11.87.19-18,.08-.86-.08-1.91-.38-2.16-1.29a1.38,1.38,0,0,1,0-1.16,1.3,1.3,0,0,1,1.07-.57,1.15,1.15,0,0,1,.71.6c0,.27-.23.52-.33.76,0,.08.1.25.25.19A1,1,0,0,0,3.61,29c0-.15.09-.36-.06-.46a1.39,1.39,0,0,0-1-.87,1.73,1.73,0,0,0-1.42.49A1.76,1.76,0,0,0,.8,30a2.84,2.84,0,0,0,2.27,1.69l20.39.08c2,.11,4.24-.23,6.25.17a2.42,2.42,0,0,1,1.7,1.61s-.09,0-.15,0a9.07,9.07,0,0,0-6-1.23,7.41,7.41,0,0,0-2.35.49,1.21,1.21,0,0,1-1-.34,3.47,3.47,0,0,0-3-.38c0,.06,0,.13,0,.15,1-.09,1.64.8,2.56.91.21,0,.38-.19.57,0a19,19,0,0,1-2.92,1.3c-.31-.06-.48-.36-.73-.52-.4-.45-1.13-.26-1.68-.3-.19,0-.35-.08-.48,0a1.82,1.82,0,0,0,.9.7c.53.23,1.13,0,1.62.29-.13.15-.3.19-.44.3-1,.38-1.81,1.26-2.9,1.2a3.73,3.73,0,0,1-3.1-1,2.1,2.1,0,0,0-2.12-1.23c-.06.05-.14.05-.12.15.46.28.82.82,1.28,1.14.29.36.86,0,1.13.4a3.57,3.57,0,0,0,1.36.59,6.23,6.23,0,0,0,1.09.3l-.14.08a17.92,17.92,0,0,1-6.25.62c-.63,0-1.24-.21-1.87-.19a1.27,1.27,0,0,0,.51.29,1.23,1.23,0,0,1-.57.17,3.94,3.94,0,0,0-.8.21,2.2,2.2,0,0,0-.9.21,4.13,4.13,0,0,1-1.19,1c0,.09,0,.22.08.22.4-.17.9-.05,1.3-.22.69-.06,1.09-.82,1.64-1.14a2.79,2.79,0,0,1,2.13-.25c.42.11,0,.28.09.55s.31.32.54.25a.4.4,0,0,1,.15-.1.49.49,0,0,0,0-.53c.29-.19.69,0,1-.11.79,0,1.59-.19,2.37-.21.12,0,.27-.15.39,0-.06.17-.27.19-.18.42s.25.28.41.32.4-.23.32-.51-.21-.16-.32-.23c.44-.21.95-.27,1.39-.48a4.15,4.15,0,0,0,.88-.3c.27,0,.5-.27.75-.17a4.2,4.2,0,0,1-.44,1,5.1,5.1,0,0,0,0,3.67c.07,0,.09,0,.13,0a5.05,5.05,0,0,1,.19-3.47c.29-1.79,2.13-2.32,3.46-3l.06.08a6.61,6.61,0,0,0-.8,2.94c0,.19-.08.38,0,.5a2.21,2.21,0,0,0,.78-1c.14-1-.4-2.13.56-2.83C22.35,33.5,24,32.61,26,32.59c.06.06.21,0,.23.08-.42.47-1,.91-1.22,1.48a4.73,4.73,0,0,0-.35,3.65c.19.66-.38,1-.65,1.52-.13.18-.17.49-.29.7l.41,0a2.27,2.27,0,0,0,.72-1.39.57.57,0,0,0,.39.42c.15-.23-.12-.4-.14-.63.33-.19.48.23.75.31a5.18,5.18,0,0,0,1.28.3l.15-.15A2.58,2.58,0,0,0,25.06,38a4.25,4.25,0,0,1-.38-2.41,3.66,3.66,0,0,1,.42-1.31,2.91,2.91,0,0,1,.59-.8A2.78,2.78,0,0,1,27,32.8h.06a.09.09,0,0,0,0,.06c-.57.45-.63,1.06-1,1.61a1.74,1.74,0,0,0-.19,1.83c.12.28.06.7.35.89a4.29,4.29,0,0,0,.44-1.29c-.06-.69-.48-1.35-.08-2A1.73,1.73,0,0,1,27.78,33a6.42,6.42,0,0,1,3.17.93c.21.14.56.27.6.57a1.71,1.71,0,0,1-2.68,1.39,1.45,1.45,0,0,1-.33-1.29.88.88,0,0,1,.92-.34c.21.11.4.32.67.19a.25.25,0,0,0,.08-.33c-.23-.13-.31-.45-.63-.49a1.38,1.38,0,0,0-1.15.23A1.48,1.48,0,0,0,28,35.29a1.8,1.8,0,0,0,1.3,1.35,2.43,2.43,0,0,0,2.58-.89,2.84,2.84,0,0,0,.46-.9,5.52,5.52,0,0,1,2.16,2.78,4.74,4.74,0,0,1,0,1.06l.73.06a.66.66,0,0,1,.07-.5,6.37,6.37,0,0,1,2.15-3.47c.36-.21.28.28.36.43a2.81,2.81,0,0,0,1.82,1.6,2.3,2.3,0,0,0,2.27-.74c.27-.5.61-1.24.14-1.77a1.34,1.34,0,0,0-2.3.23c0,.17,0,.36.12.44s.26,0,.32-.1c0-.32.31-.47.56-.64a.67.67,0,0,1,.68.13,1.11,1.11,0,0,1,.29.83,1.26,1.26,0,0,1-.69,1A2.14,2.14,0,0,1,39,36a4.45,4.45,0,0,1-.59-.93c0-.34-.17-.64,0-1a7.15,7.15,0,0,1,3-1.06,2.18,2.18,0,0,1,1.11.7c1,1-.21,2.4.46,3.5.25,0,.25-.38.35-.59A3.67,3.67,0,0,0,43,34.32a4.41,4.41,0,0,0-.79-1.25.53.53,0,0,1,.25,0,5.27,5.27,0,0,1,1.28,1.1,5.68,5.68,0,0,1,.81,3.46c-.16.63-.84.93-1.36,1.16a2,2,0,0,0-.57.68c.26.15.61,0,.86-.11s.63-.65.91-.88c0,0,0,.08,0,.12,0,.23-.11.55.1.61a6.4,6.4,0,0,0,.19-1.07,2.14,2.14,0,0,1,.4,1c.19.38.5.89,1,1,.13-.19,0-.38-.06-.54-.06-.53-.5-.81-.79-1.19-.74-1-.4-2.59-1-3.73a4.45,4.45,0,0,0-1.13-1.57l.08-.08a12.42,12.42,0,0,1,2.83.51c1.16.57,2.83.44,3.38,1.94a5.68,5.68,0,0,0,1.19,2.28l.07,0a.89.89,0,0,0,0-.78c-.13-1.06-1-1.31-1.53-2.2l.06-.09a15.07,15.07,0,0,1,1.53.49,4.51,4.51,0,0,1,3.06,3.82,8.19,8.19,0,0,1-.78,3.61c-.06.17-.35.36-.16.51.23-.17.27-.44.39-.63a5.89,5.89,0,0,0,.7-4.25c0-.27-.34-.48-.19-.76a.61.61,0,0,0,.35.19c.13-.08.32-.08.4-.23s.11-.28,0-.38-.4-.19-.61-.15a1.07,1.07,0,0,0-.25.47A4.39,4.39,0,0,0,53,36.18l0-.07c.94.32,1.8.79,2.77,1a1.35,1.35,0,0,0,.73.23A22.16,22.16,0,0,0,59.1,38c.63-.07,1.15.23,1.78.08v0l0,0c-.23-.3-.73,0-1-.23a15.85,15.85,0,0,1-4.13-1c0-.06.11,0,.17,0a.56.56,0,0,0,.34-.53.42.42,0,0,0-.8.13.52.52,0,0,0,.31.4s-.12,0-.18,0c-.65-.3-1.28-.57-1.91-.87-.23,0-.42-.23-.65-.27-.48-.23-1-.46-1.45-.65a33.36,33.36,0,0,0-4.25-1.59l-.9-.25-1.58-.42c-1.78-.45-4.17-.49-5.72.48-.25-.08-.4.32-.52.07a2.94,2.94,0,0,1,2.87-1.59c8.4-.08,16.29-.15,24.57-.27a2.66,2.66,0,0,0,2.41-1.21,2.11,2.11,0,0,0,.14-1.94A1.66,1.66,0,0,0,67,27.44ZM51.66,24.29l0,.7H49.48s-.09-.07-.07-.13c.76-.19,1.41-.63,2.16-.82Zm-2.18-1a2.79,2.79,0,0,0,.37-.57c0-.21-.08-.3-.21-.45.15-.15.38-.1.57-.15a2.41,2.41,0,0,1,1.18,1.4,14.37,14.37,0,0,1-2.56,1A7,7,0,0,1,49.48,23.26Zm-7.43-5a5.93,5.93,0,0,0,2.75,2.8c.67.55,1.51,1.2,2.41.72.49-.15.53.53.76.8.25.78-.32,1.33-.36,2.05a.78.78,0,0,1-.52.48,4.68,4.68,0,0,1-1,.28c-2.72,1.05-5.55,2.17-7.71,4.33a2.53,2.53,0,0,0,.21-.89,1.72,1.72,0,0,0-.23-.93,1.34,1.34,0,0,1-.16-.56l2.63-1.66A2.67,2.67,0,0,0,42,23.24V16.36Zm-.44,5.13a2.53,2.53,0,0,1-1,1.94l-5.51,3.5h0a.62.62,0,0,1-.42.15.68.68,0,0,1-.43-.15l-5.5-3.5a2.5,2.5,0,0,1-.95-1.94V20.57a.11.11,0,0,0,.17,0c.55-.36.38-1.17.38-1.71s-.34-1-.53-1.55l0,0V12.47H30.1a2.28,2.28,0,0,0,.51.21l.16-.21H41.61Zm-15-8a1.68,1.68,0,0,1,.71-1.2.17.17,0,0,1,.1.15h0v2.31C27.21,16.2,26.37,15.89,26.59,15.36Zm4,14a39.2,39.2,0,0,0-7-4.21c.22-.63.41-1.14.46-1.24a3.79,3.79,0,0,0,.13-1,4,4,0,0,0,.12-1.44,10.24,10.24,0,0,1,.65-2c.13-.32.24-.66.36-1a3.31,3.31,0,0,1,.42-1.1c.65.41,1.28.43,1.62,1.09v4.72a2.67,2.67,0,0,0,1.15,2.44l2.27,1.44c0,.73-.44,1.38-.23,2.15Zm3.23,4.41a15.4,15.4,0,0,0-2.68-3.87c-.05-.19-.23-.35-.13-.57a1.53,1.53,0,0,0,.27-1.6c0-.11-.16-.23-.14-.34L31,27.21l3.21,2a.66.66,0,0,0,.51.23.7.7,0,0,0,.46-.18l1.08-.69c-.79,1.18.49,2.9-.51,4v.08a3.67,3.67,0,0,1-.84,1c-.51-.21-.69-.78-1-1.21a1.88,1.88,0,0,1-.19-2c.19-.61-.12-1.14-.19-1.69l-.2-.12a2.41,2.41,0,0,0-.3,2.47c.21.38.23.9.55,1.22a6.79,6.79,0,0,0,.9,1.56c.08.21-.13.26-.23.36C34,34.21,34.05,33.88,33.84,33.73Zm1.4,2.36c-.08.26-.25.47-.23.74l-.08,0c.06-.31-.25-.5-.17-.84a7.63,7.63,0,0,1-.31-.84c-.19-.34.16-.49.31-.72.3.12.4.4.61.65S35.22,35.75,35.24,36.09Zm-.12-2A7.12,7.12,0,0,0,36.61,31c.14-.1,0-.38.19-.5,0-.34.18-.68,0-.95.13-.46-.62-.89-.14-1.18l-.1,0,1.34-.85a2.88,2.88,0,0,0-.16,1.78c.06.38.38.82.08,1.16a19.6,19.6,0,0,0-2.24,4.09C35.35,34.53,35.22,34.3,35.12,34.07Z"/><path class="cls-1" d="M58,34.76a3.21,3.21,0,0,0-3,1s0,.11,0,.15a.6.6,0,0,0,.27-.06A4.34,4.34,0,0,0,58.07,35C58.11,34.85,58,34.83,58,34.76Z"/><path class="cls-1" d="M54.28,35.67c.23-.1.42-.27.33-.57A.4.4,0,0,0,54,35c-.06.11-.21.19-.14.36A.59.59,0,0,0,54.28,35.67Z"/><path class="cls-1" d="M14,35.38c0,.12.12.29.27.31a.44.44,0,0,0,.38-.1.42.42,0,0,0,.1-.45c-.12-.19-.31-.17-.48-.17A.47.47,0,0,0,14,35.38Z"/><path class="cls-1" d="M11,36.66v-.15c-.79-.57-1.42-1.41-2.47-1.41-.13,0,0,.13,0,.19a2.76,2.76,0,0,1,1.11,1.06A1.63,1.63,0,0,0,11,36.66Z"/><path class="cls-1" d="M60.88,35.1a3.87,3.87,0,0,0-1.87,2c.13.14.26-.07.4-.07.86-.31,1.28-1.2,1.76-1.92A.71.71,0,0,0,60.88,35.1Z"/><path class="cls-1" d="M15.33,35.54c.1.13.19.26.36.24s.31-.17.29-.4a.44.44,0,0,0-.44-.24C15.43,35.25,15.25,35.33,15.33,35.54Z"/><path class="cls-1" d="M63.52,36.47c.19-.29.11-.69.3-1l-.11-.12A3,3,0,0,0,62.33,37c-.11.19-.36.4-.25.61C62.75,37.51,63.1,37,63.52,36.47Z"/><path class="cls-1" d="M3.86,35.73a.4.4,0,0,0,.17.51.51.51,0,0,0,.48-.08.41.41,0,0,0,0-.47C4.37,35.44,4,35.54,3.86,35.73Z"/><path class="cls-1" d="M3.38,36.24c0-.11,0-.19-.06-.3a.43.43,0,0,0-.5-.16.4.4,0,0,0-.21.44.42.42,0,0,0,.48.27A.48.48,0,0,0,3.38,36.24Z"/><path class="cls-1" d="M5,36.32c.16.17.33.39.62.26s.21-.34.17-.51a.57.57,0,0,0-.54-.17A.48.48,0,0,0,5,36.32Z"/><path class="cls-1" d="M8.83,36.18a.73.73,0,0,0-.29.23c-.13.15.1.25.15.38s.29.06.39,0,.13-.26.15-.4S9,36.24,8.83,36.18Z"/><path class="cls-1" d="M65.3,36.18c-.16.06-.35.19-.27.42a.54.54,0,0,0,.48.23c.17,0,.25-.19.32-.34S65.51,36.18,65.3,36.18Z"/><path class="cls-1" d="M61.45,36.26a.53.53,0,0,0-.36.38.52.52,0,0,0,.65.32c.08-.06.27-.19.25-.36A.55.55,0,0,0,61.45,36.26Z"/><path class="cls-1" d="M64.4,36.92a.44.44,0,0,0,.19-.36c-.06-.26-.42-.28-.61-.17s-.27.27-.08.44A.48.48,0,0,0,64.4,36.92Z"/><path class="cls-1" d="M4,36.92a.47.47,0,0,0-.5-.21.38.38,0,0,0-.21.44.47.47,0,0,0,.46.29A.44.44,0,0,0,4,36.92Z"/><path class="cls-1" d="M60.65,37.7a.46.46,0,0,0,.29-.55.41.41,0,0,0-.71,0c-.17.1-.06.33,0,.44S60.48,37.74,60.65,37.7Z"/><path class="cls-1" d="M15,37.78c.06-.12.31-.17.23-.4s-.21-.34-.44-.27-.17.12-.28.21.07.31.17.44S14.93,37.82,15,37.78Z"/><path class="cls-1" d="M65,37.23c-.15.05-.17.15-.3.24s0,.35.19.46a.61.61,0,0,0,.49-.08c0-.11.14-.17.1-.32A.48.48,0,0,0,65,37.23Z"/><path class="cls-1" d="M63.61,38.12c0-.13.14-.06.23-.08s.39-.19.31-.45a.72.72,0,0,0-.31-.29c-.17,0-.26.08-.38.1-.36.26.23.47,0,.76-.38,0-.88-.08-1.16.19.17.15.42.15.57.25a2.79,2.79,0,0,0,2.08.81v-.17A5.58,5.58,0,0,0,63.61,38.12Z"/><path class="cls-1" d="M54.8,37.55c-.06.21.11.34.21.49a.42.42,0,0,0,.46-.09c0-.1.15-.23.11-.34A.44.44,0,0,0,54.8,37.55Z"/><path class="cls-1" d="M8.71,38.35c0-.31-.4-.44-.63-.25,0,.1-.13.19-.11.34a.43.43,0,0,0,.38.25C8.56,38.67,8.64,38.54,8.71,38.35Z"/><path class="cls-1" d="M8.66,39.62c-.08.19-.44.42-.35.61A2.14,2.14,0,0,0,10,38.84c.11-.3.42-.47.42-.76h-.12A4.35,4.35,0,0,0,8.66,39.62Z"/><path class="cls-1" d="M54.3,38.18c-.09.17-.19.34,0,.51s.25.23.44.17a.56.56,0,0,0,.35-.49C54.91,38.14,54.55,37.93,54.3,38.18Z"/><path class="cls-1" d="M55.79,38.94c.06,0,.16,0,.21.05a.53.53,0,0,0,.37-.47c-.06-.25-.37-.27-.56-.25s-.19.19-.3.29A.46.46,0,0,0,55.79,38.94Z"/><path class="cls-1" d="M13.65,38.5c-.14-.13-.21-.32-.46-.23-.1.1-.29.23-.25.42a.4.4,0,0,0,.4.25A.44.44,0,0,0,13.65,38.5Z"/><path class="cls-1" d="M14.32,38.69c.07.17.23.21.38.25a.5.5,0,0,0,.4-.36c0-.23-.27-.31-.48-.31S14.3,38.48,14.32,38.69Z"/><path class="cls-1" d="M60.88,40.06a4.13,4.13,0,0,0-1.19-1.54c-.17-.06-.38-.3-.57-.11a4.28,4.28,0,0,0,1.09,1.69c.31.07.59.45.92.3C61.17,40.25,61,40.15,60.88,40.06Z"/><path class="cls-1" d="M61.26,38.41c-.15.07-.34.11-.4.28s.06.36.17.48.46.09.58-.12a.53.53,0,0,0,0-.47C61.51,38.52,61.4,38.39,61.26,38.41Z"/><path class="cls-1" d="M17,39.13c-.13-.1-.23-.19-.4-.14s-.36.16-.25.42a.4.4,0,0,0,.5.25C17.09,39.56,17.05,39.3,17,39.13Z"/><path class="cls-1" d="M56.86,42a3.16,3.16,0,0,0-.55-1.49l-.59-.64c-.21-.06-.35-.44-.56-.25a.18.18,0,0,0,.08.21,4.8,4.8,0,0,0,1.51,2.58h.08C57,42.3,56.79,42.15,56.86,42Z"/><path class="cls-1" d="M19.77,39.83s0,0,0,0l-1-.17a4.29,4.29,0,0,0-1.85.4.16.16,0,0,0-.1.19A2.78,2.78,0,0,0,19.77,39.83Z"/><path class="cls-1" d="M15,39.72a3.1,3.1,0,0,0-2.72,1.86c.21.13.31-.1.48-.17.88-.21,1.53-1.07,2.24-1.52Z"/><path class="cls-1" d="M54.63,40.63c-.1.07-.25.09-.31.23s0,.34.19.43a.3.3,0,0,0,.4,0,.34.34,0,0,0,.16-.45C55,40.67,54.82,40.67,54.63,40.63Z"/><path class="cls-1" d="M52.58,41.5a1.2,1.2,0,0,0,.75-.55.2.2,0,0,0-.27,0,4.55,4.55,0,0,0-2.14.1c-.1.11-.31,0-.33.21A3.23,3.23,0,0,0,52.58,41.5Z"/><path class="cls-1" d="M15,41.56a.45.45,0,0,0-.42-.36c-.12,0-.29.09-.33.23s0,.26.08.38a.44.44,0,0,0,.42.09C14.89,41.84,14.91,41.65,15,41.56Z"/><path class="cls-1" d="M15.92,42.15c.17-.08.23-.27.29-.4s-.27-.38-.48-.36-.25.09-.3.19a.48.48,0,0,0,.07.42A.45.45,0,0,0,15.92,42.15Z"/><path class="cls-1" d="M54,41.73c-.06.15-.27.25-.14.42s.1.28.25.3a.36.36,0,0,0,.46-.09.57.57,0,0,0,.15-.4A.47.47,0,0,0,54,41.73Z"/><path class="cls-1" d="M55.18,41.75a.4.4,0,0,0-.25.57c.06,0,.12.21.25.17s.33-.17.46-.27,0-.19,0-.3S55.37,41.69,55.18,41.75Z"/><path class="cls-1" d="M15.25,43.1a.59.59,0,0,0,.21-.57.52.52,0,0,0-.57-.27.56.56,0,0,0-.25.61C14.72,43.14,15,43.14,15.25,43.1Z"/><path class="cls-1" d="M14.89,44.16v.1c.33.21.67-.1,1-.17a1.92,1.92,0,0,0,.75-1.64A21.93,21.93,0,0,0,14.89,44.16Z"/><path class="cls-1" d="M50.92,42.64a.41.41,0,0,0-.27.23c-.06.15,0,.36.11.42s.37.13.5,0,.21-.21.13-.34S51.11,42.62,50.92,42.64Z"/><path class="cls-1" d="M18.64,43.63a5.18,5.18,0,0,0-.79-.89.11.11,0,0,0-.15,0A6.6,6.6,0,0,0,18.31,45c.23.21.37.61.73.57-.17-.53,0-1.18-.29-1.67C18.77,43.78,18.6,43.78,18.64,43.63Z"/><path class="cls-1" d="M52,42.85c-.1.1-.27.17-.21.38a.82.82,0,0,0,.4.19c.1-.11.29-.15.29-.32A.34.34,0,0,0,52,42.85Z"/><path class="cls-1" d="M53.71,43.1l-.12,0a2.48,2.48,0,0,0,1.13,2h.08c.11,0,.13-.09.13-.15A2.65,2.65,0,0,0,53.71,43.1Z"/><path class="cls-1" d="M53.17,44.71a.53.53,0,0,0,.19-.4.45.45,0,0,0-.51-.3c-.1.11-.33.21-.31.42S52.94,44.77,53.17,44.71Z"/><path class="cls-1" d="M51.91,44.31a2.84,2.84,0,0,0-1.61,1.9c0,.08-.07.25,0,.31.54-.59,1.34-1,1.63-1.77C51.91,44.58,52.24,44.35,51.91,44.31Z"/><path class="cls-1" d="M53.06,45.15c-.12.11-.29.17-.27.38a.61.61,0,0,0,.46.23c.11-.1.29-.19.29-.38A.43.43,0,0,0,53.06,45.15Z"/><path class="cls-1" d="M31.73,8.1H38a.53.53,0,0,0,0-1H31.73a.53.53,0,0,0,0,1Zm6-.88H38c.43,0,.4.74,0,.74S37.14,7.22,37.74,7.22Zm-2.54,0h.6c.33,0,.9.74.3.74h-.61C35.16,8,34.59,7.22,35.2,7.22Zm-2.55,0h.61c.32,0,.9.74.29.74h-.61C32.62,8,32,7.22,32.65,7.22Z"/><path class="cls-1" d="M37.88,17.6l-.48,1.88L38.59,19l1.17.45L39.4,17.6l.82.22-.32-1,.32-1.06-.93.19.47-1.75-1.17.46-1.19-.46.44,1.75-.9-.15.25,1-.25,1.06Zm.7-1.63c.29.68.86,0,.86.68,0,.32,0,.69-.29.69H38.2c-.42,0-.42-.28-.42-.71C37.78,16,38.37,16.55,38.58,16Z"/><path class="cls-1" d="M38.63,16.78c.28,0,.64.18.64-.09s-.36-.26-.64-.26-.64-.13-.64.26S38.36,16.78,38.63,16.78Z"/><polygon class="cls-1" points="35.04 16.33 35.14 16.16 34.93 16.17 34.81 15.96 34.69 16.18 34.48 16.16 34.58 16.33 34.42 16.5 34.62 16.53 34.62 16.76 34.81 16.61 35 16.76 35 16.53 35.2 16.5 35.04 16.33"/><polygon class="cls-1" points="33.7 17.72 33.7 17.94 33.89 17.8 34.08 17.94 34.08 17.72 34.27 17.68 34.12 17.52 34.21 17.34 34.01 17.36 33.89 17.15 33.76 17.36 33.56 17.34 33.66 17.52 33.5 17.68 33.7 17.72"/><polygon class="cls-1" points="35.22 17.37 35.06 17.53 35.26 17.57 35.26 17.79 35.45 17.65 35.64 17.79 35.64 17.57 35.84 17.53 35.68 17.37 35.78 17.19 35.57 17.21 35.45 17 35.33 17.21 35.12 17.19 35.22 17.37"/><polygon class="cls-1" points="35.74 18.34 35.62 18.35 35.55 18.23 35.48 18.35 35.37 18.34 35.42 18.44 35.34 18.53 35.45 18.55 35.45 18.68 35.55 18.6 35.66 18.68 35.66 18.55 35.77 18.53 35.68 18.44 35.74 18.34"/><polygon class="cls-1" points="34.88 18.66 34.52 18.7 34.32 18.33 34.1 18.7 33.76 18.66 33.92 18.97 33.65 19.25 33.99 19.31 33.99 19.69 34.32 19.45 34.64 19.69 34.64 19.31 34.98 19.25 34.71 18.97 34.88 18.66"/><polygon class="cls-1" points="33.41 4.21 33.29 6.17 34.73 4.85 36.18 6.17 36.07 4.21 37.99 3.88 36.39 2.76 37.34 1.04 35.47 1.59 34.73 -0.22 34 1.59 32.13 1.04 33.08 2.76 31.48 3.88 33.41 4.21"/><path class="cls-1" d="M25.54,41.42l.28,1.16c.09.38.22.47.43.56a1.46,1.46,0,0,0,.9,0,1.37,1.37,0,0,0,.76-.45A1,1,0,0,0,28,42l-.26-1.11c-.06-.23,0-.29.25-.38l0-.08-.91.22,0,.08c.36-.07.44,0,.49.25L27.8,42a.68.68,0,0,1-.56.94.58.58,0,0,1-.76-.54l-.28-1.16c-.07-.31.06-.34.33-.42l0-.09-1.41.34,0,.09C25.36,41.14,25.47,41.12,25.54,41.42Z"/><path class="cls-1" d="M29.2,41.63l.3,0c.3,0,.51.09.56.33,0,0,.07.39-.43.5a.89.89,0,0,1-1-.55l-.12,0,.19.87.12,0c0-.06,0-.13.1-.15a3.07,3.07,0,0,0,.74,0c.77-.17.94-.65.87-1a.74.74,0,0,0-.6-.54L29.24,41c-.38-.07-.48-.13-.52-.32s.16-.38.37-.43a.88.88,0,0,1,1,.47l.12,0L30,39.94l-.12,0c0,.07,0,.13-.11.15a2.9,2.9,0,0,0-.68,0c-.79.17-.82.68-.77.89S28.42,41.51,29.2,41.63Z"/><path class="cls-1" d="M30.73,40.6c0-.58.47-.64.77-.69l.17,1.89c0,.3-.07.31-.38.37v.08l1.52-.14V42c-.31,0-.42,0-.45-.29l-.17-1.88c.29,0,.73,0,.87.52h.12l-.07-.72-2.56.25.06.72Z"/><path class="cls-1" d="M34.88,42c-.28,0-.38-.05-.37-.34V41h.12l.86,1.14.8,0h0l.86.11v-.09c-.14,0-.35-.07-.33-.2a2.31,2.31,0,0,1,.24-.44l1,.12a1.76,1.76,0,0,1,.13.5c0,.12-.09.11-.35.1v.09l1.37.17v-.09c-.2,0-.26-.15-.4-.55l-.71-2-.12,0-1.18,1.83c-.16.24-.24.35-.44.36A.19.19,0,0,1,36.2,42l-.84-1c.24-.06.68-.16.69-.6,0-.61-.9-.65-1.19-.66l-1.38,0v.09c.24,0,.37,0,.37.34l0,1.59c0,.29-.09.3-.39.32v.09l1.45,0Zm2.79-1.44.32.92-.83-.11Zm-3.13-.63c0-.11,0-.15.27-.15a.46.46,0,0,1,.51.53c0,.47-.24.54-.8.53Z"/><path class="cls-1" d="M42,42.21l-.12,0a1,1,0,0,1-1.19.5c-.29,0-.37-.1-.34-.27l.3-1.66c.06-.31.19-.29.48-.25l0-.09-1.47-.27v.09c.18.05.35.09.31.32l-.31,1.71c0,.21-.16.2-.41.18v.09l2.43.45Z"/><path class="cls-1" d="M41.82,43l1.46.31,0-.09c-.23-.06-.39-.11-.34-.33l.35-1.7c0-.24.25-.2.45-.17V41l-1.46-.3,0,.08c.19,0,.39.1.34.33l-.35,1.7c-.05.22-.21.2-.44.17Z"/><path class="cls-1" d="M43.37,43.33v.09l.87.09v-.09c-.15,0-.35-.06-.34-.19a2,2,0,0,1,.24-.44l1,.1a1.8,1.8,0,0,1,.15.49c0,.12-.09.12-.35.11v.08l1.38.15v-.09c-.2,0-.26-.14-.41-.55l-.75-2H45L43.83,43C43.68,43.21,43.61,43.32,43.37,43.33Zm1.33-1.5.34.91-.82-.08Z"/><path class="cls-1" d="M34,15.23v.25a.11.11,0,0,0,.11.12H35a.12.12,0,0,0,.12-.12V15.2a.55.55,0,0,0,.18-.44c0-.86-.48,0-.75-.78-.19.62-.77.1-.77.76A.53.53,0,0,0,34,15.23Zm.54-.75c.25,0,.64-.1.64.32s-.34.13-.59.13S34,15.1,34,14.8,34.27,14.48,34.53,14.48Z"/><path class="cls-1" d="M42.83,25.34a.35.35,0,1,0-.4-.35A.37.37,0,0,0,42.83,25.34Z"/><path class="cls-1" d="M41,13.15a.2.2,0,0,0,.19-.2L41,12.57a2.23,2.23,0,0,0-.19.38A.2.2,0,0,0,41,13.15Z"/><path class="cls-1" d="M28.12,13a.19.19,0,1,0,.38,0l-.19-.38A2.23,2.23,0,0,0,28.12,13Z"/><path class="cls-1" d="M31.47,13.15a.19.19,0,0,0,.19-.2l-.19-.38a2.28,2.28,0,0,0-.18.38A.19.19,0,0,0,31.47,13.15Z"/><path class="cls-1" d="M34.64,13.15a.2.2,0,0,0,.19-.2l-.19-.38a2.23,2.23,0,0,0-.19.38A.2.2,0,0,0,34.64,13.15Z"/><path class="cls-1" d="M37.8,13.15A.19.19,0,0,0,38,13l-.19-.38a2.28,2.28,0,0,0-.18.38A.19.19,0,0,0,37.8,13.15Z"/><path class="cls-1" d="M28.12,17.29a.19.19,0,1,0,.38,0,2.09,2.09,0,0,0-.19-.37Z"/><path class="cls-1" d="M28.12,21.51a.19.19,0,1,0,.38,0,2.51,2.51,0,0,0-.19-.37Z"/><path class="cls-1" d="M28.63,24.86a.19.19,0,1,0,.37,0,2.13,2.13,0,0,0-.18-.37Z"/><path class="cls-1" d="M31.28,26.63a.19.19,0,1,0,.38,0,2.09,2.09,0,0,0-.19-.37Z"/><path class="cls-1" d="M40.94,17.29a.19.19,0,1,0,.38,0l-.19-.37A2.09,2.09,0,0,0,40.94,17.29Z"/><path class="cls-1" d="M40.94,21.51a.19.19,0,1,0,.38,0l-.19-.37A2.51,2.51,0,0,0,40.94,21.51Z"/><path class="cls-1" d="M40.44,24.86a.19.19,0,1,0,.37,0l-.19-.37A2.13,2.13,0,0,0,40.44,24.86Z"/><path class="cls-1" d="M37.78,26.63a.19.19,0,1,0,.38,0L38,26.26A2.09,2.09,0,0,0,37.78,26.63Z"/><path class="cls-1" d="M34.55,28.52a.19.19,0,0,0,.19.2.2.2,0,0,0,.19-.2l-.2-.37A2.13,2.13,0,0,0,34.55,28.52Z"/><path class="cls-1" d="M37.67,23.15c-.17.36-.17.86-.59,1.06a.33.33,0,0,0-.12.32l.1.08c.26-.14.75-.18.71-.62a1.58,1.58,0,0,1,.38-.52.42.42,0,0,1,.46.22.79.79,0,0,1-.54.6s0,.1,0,.16.3.08.42.06c.34-.22.48-.62.78-.74,0,.2-.4.26-.12.46.18,0,.42,0,.54-.22-.14-.34.47-.5.1-.8,0-.3.31-.42.29-.74s-.49-.32-.59-.62a.45.45,0,0,1,.42,0c0,.06.13.08.26,0l.12-.34s-.14-.16-.23-.13c-.33.08-.69.12-.89.44a.66.66,0,0,0,.32.52c.12,0,.14.08.22.14a.14.14,0,0,1-.14.18c-.24-.24-.66.08-.84-.22.08-.3.24-.64,0-.92,0-.06.12-.12.06-.18-.1-.29-.4-.06-.58-.06a.72.72,0,0,0-.71.36.61.61,0,0,0,.15.3c.08,0,.12,0,.14.08l-.2.12a.42.42,0,0,1,.08.22c-.13.06-.27-.14-.33-.24s0-.44-.2-.48a1.06,1.06,0,0,0-.18,0,.71.71,0,0,0-.08.34,1.27,1.27,0,0,0,.08.35A3.52,3.52,0,0,1,37.67,23.15Z"/><path class="cls-1" d="M25.34,24.8a.35.35,0,1,0,.4.35A.38.38,0,0,0,25.34,24.8Z"/><path class="cls-1" d="M4.42,37.12a.38.38,0,0,0,.39.37.38.38,0,1,0,0-.75A.38.38,0,0,0,4.42,37.12Z"/><path class="cls-1" d="M22.76,43.85v.09l.87-.1,0-.09c-.14,0-.35,0-.36-.11a1.75,1.75,0,0,1,.13-.48l1-.11a1.69,1.69,0,0,1,.25.45c0,.11-.06.13-.33.17v.09l1.38-.16v-.08c-.2,0-.28-.09-.52-.45L24,41.31h-.12l-.72,2.07C23,43.67,23,43.8,22.76,43.85Zm1-1.75.53.81-.83.1Z"/><path class="cls-1" d="M25.14,40c-.38-.07-.69.21-1.05.1l-.69.16a.62.62,0,0,1-.23,0c-.34-.87.67-1.39.36-2.24a1.54,1.54,0,0,0-1.45-.86A1.75,1.75,0,0,0,20.4,38c-.48,1.06.13,2.16.32,3.19,0,.34.33.72,0,1a2.86,2.86,0,0,0-2.37-.48c-.25.12-.71-.05-.84.25a6,6,0,0,0,3.06.38c.13,0,.21-.06.31,0,.09.55-.1,1.29.24,1.77a2.12,2.12,0,0,0,1.61.7,24.48,24.48,0,0,0,5.41-1.08c.27,0,.48-.16.77-.16a15.39,15.39,0,0,1,3-.41A5.32,5.32,0,0,0,31,45c-.25.57.44.66.65,1a17.38,17.38,0,0,0-1.72.88,25,25,0,0,0-3.73.61c0,.28.44.19.48.47s-.25.21-.4.32,0,.14.13.17c.12-.15.4,0,.52-.2.42,0,.78-.12,1.18-.14a3.93,3.93,0,0,0,1.07-.43c.44-.12.71-.42,1.15-.54.63,0,1.19-.22,1.78-.26V47c-.48.78-1,1.58-1.49,2.32a.24.24,0,0,0,.15.34,1.1,1.1,0,0,0,.82-.13c.44-.76.83-1.48,1.19-2.26A3.09,3.09,0,0,1,34,45.72c.08,0,.21-.17.29,0a9.68,9.68,0,0,0-1,1.48A1.78,1.78,0,0,0,33.59,49c.25.21.63.15,1,.17.82-.42,1.87.25,2.5-.55.37-.06.44.38.65.59s.73.47,1.09.21c0-.23-.28-.44-.4-.65-.25-.44-.57-.8-.8-1.2a4.66,4.66,0,0,1-.33-.78,6.63,6.63,0,0,0,1.13.44,7.35,7.35,0,0,1,1.13.34,3.71,3.71,0,0,0,1,.8c.52.25,1.11.3,1.65.51.21,0,.53.19.67,0a.83.83,0,0,0-.31-.24c-.06-.27.38-.12.52-.33a.27.27,0,0,0-.24-.16c-.3-.17-1-.22-1.24-.33a5.25,5.25,0,0,1-.74-.23c-1.26,0-2-1.14-3-1.56.23-.22.58-.38.73-.7a1.17,1.17,0,0,0,.06-1.12c-.19-.65-1-.57-1.51-.93l.07-.06a8.75,8.75,0,0,1,2.26.29c2,.28,3.88,1,6,1.08,1.15,0,2.59.06,3.16-1.06.11-.65.23-1.3.34-2,.25-1.05.94-2,.83-3.19a2.23,2.23,0,0,0-1.42-1.31,1.84,1.84,0,0,0-1.82.47c-.76.61-.24,1.62-.21,2.45,0,.17,0,.29-.15.38-3-.28-5.87-1-8.89-1.35-.69-.12-1.39-.09-2-.23l-.84-.09a34.79,34.79,0,0,0-7.69.87C26.25,39.72,25.66,39.77,25.14,40Zm2.08,8-.3-.27c.15-.19.46-.09.69-.22a3.74,3.74,0,0,1,1.79-.25A5.06,5.06,0,0,1,27.22,48Zm13.08-.34a8.88,8.88,0,0,0,2.24.53c-.07.29-.58,0-.52.42a5,5,0,0,1-1.89-.88S40.22,47.64,40.3,47.66Zm-19.67-9a1.57,1.57,0,0,1,.51-1.06,1.75,1.75,0,0,1,1.65.07.8.8,0,0,1,.34.4,1,1,0,0,1-.32.95H22.6a2.24,2.24,0,0,1,.13-.95c0-.25-.23-.28-.4-.38a1.18,1.18,0,0,0-.94.21.94.94,0,0,0-.27.93c.14.23,0,.55.1.8l-.06.09C20.91,39.47,20.57,39.17,20.63,38.69Zm1,.6c.31.24.75.13,1.13.19a.83.83,0,0,1-.1.72c-.36-.08-.82,0-1-.38C21.68,39.67,21.58,39.46,21.62,39.29Zm-.06-.71c.06-.17,0-.42.23-.46s.37,0,.39.13a4.54,4.54,0,0,1-.1.74A.48.48,0,0,1,21.56,38.58Zm9.83,6.78a2.28,2.28,0,0,1,.67-1.9,1.22,1.22,0,0,1,.9,0c-.55.15-1.24.28-1.36,1,0,.28-.07.43.06.66.23.4.75.23,1.05.55a.28.28,0,0,1-.19.25A7,7,0,0,1,31.39,45.36Zm-.76,1.46c.51-.21,1-.66,1.6-.47A2.87,2.87,0,0,1,30.63,46.82Zm2,.21a16.88,16.88,0,0,1-1,2c-.05.11-.21.13-.34.15,0-.29.29-.53.42-.78.44-.57.57-1.18,1.07-1.73C32.88,46.78,32.62,46.86,32.62,47Zm.53-1.23v.09h0v-.11h.08a.12.12,0,0,0-.08,0ZM33,45.23A4.67,4.67,0,0,1,32,45c-.21-.21,0-.44,0-.67A1.07,1.07,0,0,1,33.48,44,2.19,2.19,0,0,1,33,45.23Zm.46,0a3.27,3.27,0,0,1,.34-.88A1.84,1.84,0,0,1,33.42,45.23Zm.23-1.71c-.27-.06-.42-.38-.71-.38a1.74,1.74,0,0,1,.79,0C33.84,43.27,33.67,43.4,33.65,43.52Zm.25.64h0v-.23h0Zm0,1c0-.09,0-.19.07-.3s.21.09.25.15A.31.31,0,0,1,33.92,45.13Zm.32-1.31a2.16,2.16,0,0,1,.31-.78,1.32,1.32,0,0,1,.57.08c0,.43.56,1,0,1.35-.19.09-.46.28-.67.09A.58.58,0,0,1,34.24,43.82Zm1.53-.59c0-.19.19,0,.27-.13l.65,0C36.35,43.1,35.94,43.88,35.77,43.23Zm1,.27c-.26.09-.44.38-.7.45A.85.85,0,0,1,36.82,43.5Zm-.88,1.31v.07h0v-.07Zm0,1.29s0,.11,0,.15l-.49-.38A.52.52,0,0,1,36,46.1Zm-.57-.65a.14.14,0,0,1,.19,0Zm-.29-.32c.08-.13.19-.32.33-.32s0,0,0,.07A1.14,1.14,0,0,1,35.12,45.13Zm-.48,0h-.09l.13-.13C34.74,45,34.66,45,34.64,45.09Zm.06.8c.27-.3.52.17.63.4.31.46,1.13.89.82,1.52-.4.36-1,0-1.47.3-.23,0-.63,0-.76-.19A11.7,11.7,0,0,1,34.7,45.89Zm-.59.4.11-.17a8.32,8.32,0,0,1-.7,1.52C33.4,47.13,33.92,46.73,34.11,46.29ZM35,48.8c-.39,0-1,.26-1.38-.08,0-.17-.17-.25-.15-.42.34-.13.63.27,1,0a8.91,8.91,0,0,1,1.46,0c.24.06.59-.38.63.06C36.38,49.08,35.54,48.59,35,48.8Zm1.22-3V45.7h0v.06Zm.13,1.33c0,.21.23.3.1.49A.65.65,0,0,1,36.38,47.09ZM37,48.36l-.1,0c-.11-.08-.06-.32,0-.44C36.94,48.06,37.05,48.21,37,48.36Zm1,.51c0,.06-.12.06-.17,0a11.38,11.38,0,0,1-1.32-2.54l.09,0C37.11,47.16,37.51,48.06,38,48.87Zm.78-1.95a.09.09,0,0,0,0,.09,2.4,2.4,0,0,1-1.46-.66l0-.1A4.07,4.07,0,0,1,38.79,46.92Zm-.55-2.8c.25.06.27.33.29.54a1.12,1.12,0,0,1-.71,1,1.07,1.07,0,0,1-.82.08,1.34,1.34,0,0,0,1.26-.71ZM37.78,44A1.42,1.42,0,0,1,38,45c-.21.4-.63.4-1,.49a.69.69,0,0,1-.48-.15.21.21,0,0,0-.08-.21c.06-.28-.49-.55-.11-.78S37.42,43.27,37.78,44Zm9.45-6.54a1.45,1.45,0,0,1,1.22,0,.93.93,0,0,1,.69.44c.32.3.23.82.17,1.2a1.18,1.18,0,0,1-.9.72c0-.5.48-.86.31-1.43A1.25,1.25,0,0,0,47.4,38c-.19.12-.1.33-.17.52l-.08.7c-.42,0-.44-.38-.57-.68A1.23,1.23,0,0,1,47.23,37.49Zm.38,1.9c.23-.24-.06-1.57.59-.7,0,.17,0,.42-.15.55S47.78,39.49,47.61,39.39Zm.23.52c0,.34-.29.26-.46.38h-.5c-.11-.16-.06-.42-.06-.59A5,5,0,0,1,47.84,39.91Zm-16.16-.67a30.8,30.8,0,0,1,5.62.19c.59,0,1.09.17,1.65.21,1.18.15,2.27.46,3.46.55a5.93,5.93,0,0,0,.63.1c1.89.3,4,.83,5.81,0a16.42,16.42,0,0,1-.42,2.2c-.17.21,0,.55-.23.74,0,.38-.32.57-.59.72-2.49.55-5-.3-7.36-.72a25.62,25.62,0,0,0-10.75-.17c-1.61.29-3.19.68-4.74,1.12a6.89,6.89,0,0,1-2.93,0c-.76-.36-.44-1.33-.67-2A11.27,11.27,0,0,0,21,40.7a1.17,1.17,0,0,1-.08-.55,8.81,8.81,0,0,1,1,.36c1.76.33,3.33-.24,5-.53A34.62,34.62,0,0,1,31.68,39.24Z"/><rect class="cls-1" x="75.13" y="30.97" width="131.58" height="0.67"/><path class="cls-1" d="M81.31,37.84a6.06,6.06,0,0,0-2.42-.41H75.13v.23h.28a1,1,0,0,1,.55.13.58.58,0,0,1,.28.28,2.5,2.5,0,0,1,.07.8V44.4a2.79,2.79,0,0,1-.06.78.67.67,0,0,1-.29.31,1,1,0,0,1-.55.11h-.28v.23h3.76a6.94,6.94,0,0,0,1.19-.07,5.83,5.83,0,0,0,1.44-.45,3.78,3.78,0,0,0,1-.78,3.68,3.68,0,0,0,.74-1.24,4.76,4.76,0,0,0-.3-3.93A3.54,3.54,0,0,0,81.31,37.84Zm-.7,6.83a1.88,1.88,0,0,1-1.58.7,1,1,0,0,1-.48-.09.33.33,0,0,1-.17-.18,2.45,2.45,0,0,1,0-.64V37.91a4,4,0,0,1,1.48.19,2.14,2.14,0,0,1,1,1,5.52,5.52,0,0,1,.51,2.58A4.84,4.84,0,0,1,80.61,44.67Z"/><path class="cls-1" d="M88.56,40.59A2,2,0,0,0,87,39.87a2.43,2.43,0,0,0-1.84.86,3.29,3.29,0,0,0-.78,2.3A3.52,3.52,0,0,0,85,45a2.18,2.18,0,0,0,2,1,2.36,2.36,0,0,0,1.32-.4,3.5,3.5,0,0,0,1-1.36l-.21-.14a2.67,2.67,0,0,1-.65.75,1.15,1.15,0,0,1-.67.2,1.3,1.3,0,0,1-1-.51,3,3,0,0,1-.62-1.82h3.18A3.22,3.22,0,0,0,88.56,40.59Zm-2.51,1.72V42.1a2.72,2.72,0,0,1,.37-1.51.62.62,0,0,1,.53-.32.51.51,0,0,1,.34.11,1.08,1.08,0,0,1,.34.57,5.7,5.7,0,0,1,.11,1.36Z"/><path class="cls-1" d="M94.74,40.27a1.86,1.86,0,0,0-2.15-.11,2.38,2.38,0,0,0-.62.64V40H89.55v.23a.76.76,0,0,1,.55.2,1.41,1.41,0,0,1,.14.78v6.11a1.38,1.38,0,0,1-.12.74.83.83,0,0,1-.57.22v.22h3.3v-.22a1.41,1.41,0,0,1-.58-.08A.51.51,0,0,1,92,48,2,2,0,0,1,92,47.4V45.24a2.23,2.23,0,0,0,.66.55,1.81,1.81,0,0,0,.89.22,2.13,2.13,0,0,0,1.19-.38,2.34,2.34,0,0,0,.81-1.11,4.39,4.39,0,0,0,.29-1.61,4.19,4.19,0,0,0-.27-1.52A2.55,2.55,0,0,0,94.74,40.27ZM93.67,45a.63.63,0,0,1-.56.35A1.47,1.47,0,0,1,92,44.62V41.53c.27-.6.62-.91,1-.91a.71.71,0,0,1,.63.37A4.07,4.07,0,0,1,94,43,4.24,4.24,0,0,1,93.67,45Z"/><path class="cls-1" d="M101.72,45.12a.24.24,0,0,1-.14,0,.27.27,0,0,1-.09-.15,2.46,2.46,0,0,1,0-.5V42.17a4.69,4.69,0,0,0-.09-1.19,1.58,1.58,0,0,0-.63-.76,2.16,2.16,0,0,0-1.3-.35,4.13,4.13,0,0,0-1.31.21,2.25,2.25,0,0,0-1,.63,1.26,1.26,0,0,0-.36.85.74.74,0,0,0,.26.55,1,1,0,0,0,.66.24.8.8,0,0,0,.59-.22.68.68,0,0,0,.23-.52.79.79,0,0,0-.24-.51.56.56,0,0,1-.17-.32.3.3,0,0,1,.16-.26,1.12,1.12,0,0,1,.66-.18.77.77,0,0,1,.45.13.57.57,0,0,1,.26.3,2.54,2.54,0,0,1,.08.82v.58a10.66,10.66,0,0,0-2.48,1.41,1.59,1.59,0,0,0-.57,1.19,1.1,1.1,0,0,0,.32.82,1.12,1.12,0,0,0,.83.32,3.07,3.07,0,0,0,1.9-.93,1,1,0,0,0,.34.7,1.14,1.14,0,0,0,.77.23,1.45,1.45,0,0,0,.75-.2,2.32,2.32,0,0,0,.65-.67l-.19-.15C101.94,45,101.83,45.12,101.72,45.12Zm-2-.59a1.17,1.17,0,0,1-.72.34.52.52,0,0,1-.43-.17.69.69,0,0,1-.21-.5,1.15,1.15,0,0,1,.24-.67,3.59,3.59,0,0,1,1.12-.94Z"/><path class="cls-1" d="M106.74,39.87a1.46,1.46,0,0,0-.83.3,4.1,4.1,0,0,0-1,1.18V40h-2.37v.23a1,1,0,0,1,.42.11.57.57,0,0,1,.18.26,2.52,2.52,0,0,1,.05.63v3.2a1.86,1.86,0,0,1-.14.93.68.68,0,0,1-.51.21v.22h3.13v-.22a1.35,1.35,0,0,1-.5-.09.58.58,0,0,1-.21-.25,1.35,1.35,0,0,1,0-.45V43.14a4,4,0,0,1,.2-1.33,1.22,1.22,0,0,1,.38-.6.52.52,0,0,1,.34-.13.32.32,0,0,1,.14,0l.29.24a.84.84,0,0,0,.57.21.62.62,0,0,0,.48-.23.91.91,0,0,0,.2-.64.85.85,0,0,0-.21-.61A.72.72,0,0,0,106.74,39.87Z"/><path class="cls-1" d="M110.42,37.92h-.2a7.53,7.53,0,0,1-1,1.36,8.57,8.57,0,0,1-1.33,1.16v.21h.76v3.13a6,6,0,0,0,.06,1.14,1.41,1.41,0,0,0,.48.69,1.49,1.49,0,0,0,.94.3,1.69,1.69,0,0,0,1.63-1.19l-.19-.13c-.24.41-.49.61-.76.61a.37.37,0,0,1-.22-.09.46.46,0,0,1-.16-.23,2.79,2.79,0,0,1,0-.65V40.65h1.38V40h-1.38Z"/><path class="cls-1" d="M121.53,44.57V42.2a4.79,4.79,0,0,0-.14-1.35,1.36,1.36,0,0,0-.5-.7,1.45,1.45,0,0,0-1-.28,1.9,1.9,0,0,0-1,.25,3.63,3.63,0,0,0-.95.8,1.67,1.67,0,0,0-.58-.79,1.58,1.58,0,0,0-.94-.26,1.91,1.91,0,0,0-.89.21,3.48,3.48,0,0,0-.88.72V40h-2.36v.23a.69.69,0,0,1,.5.21,1.54,1.54,0,0,1,.13.82v3.27a1.7,1.7,0,0,1-.11.8.71.71,0,0,1-.52.24v.22h3v-.22a.65.65,0,0,1-.51-.23,1.78,1.78,0,0,1-.12-.81V41.46a2.67,2.67,0,0,1,.62-.66.9.9,0,0,1,.45-.13.51.51,0,0,1,.31.11.62.62,0,0,1,.21.31,4.73,4.73,0,0,1,.06,1v2.49a2.35,2.35,0,0,1-.05.66.46.46,0,0,1-.18.26.69.69,0,0,1-.38.12v.22h3v-.22a.67.67,0,0,1-.55-.25,1.82,1.82,0,0,1-.1-.79V41.46a2.38,2.38,0,0,1,.55-.58.93.93,0,0,1,.54-.2.48.48,0,0,1,.31.1.64.64,0,0,1,.2.31,4.8,4.8,0,0,1,.06,1v2.49a1.72,1.72,0,0,1-.11.77.67.67,0,0,1-.52.27v.22h3v-.22a.72.72,0,0,1-.51-.21A1.74,1.74,0,0,1,121.53,44.57Z"/><path class="cls-1" d="M126.74,40.59a2,2,0,0,0-1.53-.72,2.41,2.41,0,0,0-1.83.86,3.29,3.29,0,0,0-.79,2.3,3.44,3.44,0,0,0,.54,2,2.18,2.18,0,0,0,2,1,2.36,2.36,0,0,0,1.32-.4,3.59,3.59,0,0,0,1-1.36l-.21-.14a2.67,2.67,0,0,1-.65.75,1.18,1.18,0,0,1-.68.2,1.31,1.31,0,0,1-1-.51,3,3,0,0,1-.61-1.82h3.18A3.33,3.33,0,0,0,126.74,40.59Zm-2.51,1.72V42.1a2.64,2.64,0,0,1,.37-1.51.6.6,0,0,1,.52-.32.54.54,0,0,1,.35.11,1.14,1.14,0,0,1,.33.57,5.21,5.21,0,0,1,.11,1.36Z"/><path class="cls-1" d="M133.67,44.57V42.31a7.09,7.09,0,0,0-.1-1.35,1.55,1.55,0,0,0-.5-.78,1.39,1.39,0,0,0-.93-.31,1.77,1.77,0,0,0-.88.22,3.44,3.44,0,0,0-.86.7V40H128v.23a.69.69,0,0,1,.5.21,1.54,1.54,0,0,1,.13.82v3.27a1.7,1.7,0,0,1-.11.8.69.69,0,0,1-.52.24v.22H131v-.22a.61.61,0,0,1-.45-.22,1.71,1.71,0,0,1-.12-.82v-3.1c.31-.51.64-.77,1-.77a.44.44,0,0,1,.29.11.58.58,0,0,1,.2.28,5.12,5.12,0,0,1,.05.9v2.58a1.74,1.74,0,0,1-.1.77.61.61,0,0,1-.47.27v.22h2.93v-.22a.72.72,0,0,1-.51-.21A1.78,1.78,0,0,1,133.67,44.57Z"/><path class="cls-1" d="M136.94,37.92h-.2a6.65,6.65,0,0,1-1,1.36,8.13,8.13,0,0,1-1.33,1.16v.21h.76v3.13a6,6,0,0,0,.06,1.14,1.41,1.41,0,0,0,.48.69,1.49,1.49,0,0,0,.94.3,1.69,1.69,0,0,0,1.63-1.19l-.19-.13c-.24.41-.49.61-.76.61a.37.37,0,0,1-.22-.09.53.53,0,0,1-.16-.23,2.79,2.79,0,0,1-.05-.65V40.65h1.38V40h-1.38Z"/><path class="cls-1" d="M145.8,40.26a2.73,2.73,0,0,0-1.41-.39,2.37,2.37,0,0,0-2,.93,3.58,3.58,0,0,0,0,4.29,2.39,2.39,0,0,0,2,.92,2.48,2.48,0,0,0,2.09-1,3.36,3.36,0,0,0,.62-2.06,3.57,3.57,0,0,0-.34-1.57A2.47,2.47,0,0,0,145.8,40.26Zm-.62,4.58a1.06,1.06,0,0,1-.32.58.69.69,0,0,1-.47.16.71.71,0,0,1-.51-.23,1.22,1.22,0,0,1-.29-.67,8,8,0,0,1-.09-1.24c0-.83,0-1.48.07-1.95a1.68,1.68,0,0,1,.3-.94.72.72,0,0,1,.55-.24.64.64,0,0,1,.42.13,1.13,1.13,0,0,1,.34.57,5.8,5.8,0,0,1,.12,1.45A14.88,14.88,0,0,1,145.18,44.84Z"/><path class="cls-1" d="M152.05,37.53a1.82,1.82,0,0,0-1.13-.29,2.53,2.53,0,0,0-1.77.6,1.93,1.93,0,0,0-.65,1.48V40h-.84v.61h.84v4a2,2,0,0,1-.06.62.51.51,0,0,1-.23.23,1.37,1.37,0,0,1-.55.09v.22h3.41v-.22a.9.9,0,0,1-.73-.21,1.25,1.25,0,0,1-.13-.73v-4h.86V40h-.86V38.22a.77.77,0,0,1,.12-.48.36.36,0,0,1,.3-.14.32.32,0,0,1,.24.09.23.23,0,0,1,.08.19.75.75,0,0,1,0,.2,1.58,1.58,0,0,0,0,.23.5.5,0,0,0,.18.37.77.77,0,0,0,.52.17.84.84,0,0,0,.6-.21.6.6,0,0,0,.23-.48A.79.79,0,0,0,152.05,37.53Z"/><path class="cls-1" d="M159.52,37.66h.28a1,1,0,0,1,.56.13.63.63,0,0,1,.28.28,2.86,2.86,0,0,1,.07.8v2.38h-3V38.87a2.39,2.39,0,0,1,.07-.78.58.58,0,0,1,.25-.3,1.26,1.26,0,0,1,.59-.13h.28v-.23h-4.39v.23h.28a1,1,0,0,1,.55.13.58.58,0,0,1,.28.28,2.5,2.5,0,0,1,.07.8V44.4a2.39,2.39,0,0,1-.07.78.52.52,0,0,1-.25.29,1.08,1.08,0,0,1-.58.13h-.28v.23h4.39V45.6h-.28a1.24,1.24,0,0,1-.56-.11.7.7,0,0,1-.28-.29,2.59,2.59,0,0,1-.07-.8V41.79h3V44.4a2.73,2.73,0,0,1-.07.78.54.54,0,0,1-.26.29,1.08,1.08,0,0,1-.58.13h-.28v.23h4.39V45.6h-.28a1.27,1.27,0,0,1-.56-.11.7.7,0,0,1-.28-.29,3,3,0,0,1-.07-.8V38.87a2.73,2.73,0,0,1,.07-.78.6.6,0,0,1,.26-.3,1.19,1.19,0,0,1,.58-.13h.28v-.23h-4.39Z"/><path class="cls-1" d="M168.14,40.59a2,2,0,0,0-1.53-.72,2.45,2.45,0,0,0-1.84.86A3.29,3.29,0,0,0,164,43a3.52,3.52,0,0,0,.53,2,2.2,2.2,0,0,0,1.95,1,2.36,2.36,0,0,0,1.32-.4,3.5,3.5,0,0,0,1-1.36l-.21-.14a2.52,2.52,0,0,1-.65.75,1.13,1.13,0,0,1-.67.2,1.31,1.31,0,0,1-1-.51,3,3,0,0,1-.61-1.82h3.17A3.27,3.27,0,0,0,168.14,40.59Zm-2.51,1.72V42.1a2.72,2.72,0,0,1,.36-1.51.62.62,0,0,1,.53-.32.56.56,0,0,1,.35.11,1.14,1.14,0,0,1,.33.57,5.7,5.7,0,0,1,.11,1.36Z"/><path class="cls-1" d="M174.37,45.12a.22.22,0,0,1-.14,0,.24.24,0,0,1-.1-.15,2.46,2.46,0,0,1,0-.5V42.17A5.47,5.47,0,0,0,174,41a1.64,1.64,0,0,0-.63-.76,2.18,2.18,0,0,0-1.3-.35,4.13,4.13,0,0,0-1.31.21,2.35,2.35,0,0,0-1,.63,1.3,1.3,0,0,0-.35.85.74.74,0,0,0,.26.55,1,1,0,0,0,.66.24.76.76,0,0,0,.58-.22.65.65,0,0,0,.23-.52.83.83,0,0,0-.23-.51.53.53,0,0,1-.18-.32.31.31,0,0,1,.17-.26,1.12,1.12,0,0,1,.66-.18.76.76,0,0,1,.44.13.55.55,0,0,1,.27.3,2.66,2.66,0,0,1,.07.82v.58a11.13,11.13,0,0,0-2.48,1.41,1.59,1.59,0,0,0-.57,1.19,1.11,1.11,0,0,0,1.15,1.14,3,3,0,0,0,1.9-.93,1.07,1.07,0,0,0,.35.7,1.13,1.13,0,0,0,.77.23,1.45,1.45,0,0,0,.75-.2,2.3,2.3,0,0,0,.64-.67l-.18-.15C174.59,45,174.48,45.12,174.37,45.12Zm-2-.59a1.17,1.17,0,0,1-.71.34.55.55,0,0,1-.44-.17.72.72,0,0,1-.2-.5,1.15,1.15,0,0,1,.24-.67,3.43,3.43,0,0,1,1.11-.94Z"/><path class="cls-1" d="M177.53,44.63v-7.2h-2.42v.23a.81.81,0,0,1,.55.2,1.41,1.41,0,0,1,.14.78v6a1.45,1.45,0,0,1-.12.76.78.78,0,0,1-.57.22v.22h3.12v-.22a.79.79,0,0,1-.55-.19A1.36,1.36,0,0,1,177.53,44.63Z"/><path class="cls-1" d="M180.71,37.92h-.21a6.65,6.65,0,0,1-1,1.36,8,8,0,0,1-1.32,1.16v.21H179v3.13a5,5,0,0,0,.07,1.14,1.41,1.41,0,0,0,.48.69,1.48,1.48,0,0,0,.93.3,1.68,1.68,0,0,0,1.63-1.19l-.18-.13c-.24.41-.5.61-.76.61a.37.37,0,0,1-.22-.09.48.48,0,0,1-.17-.23,3,3,0,0,1,0-.65V40.65h1.37V40h-1.37Z"/><path class="cls-1" d="M188,44.57V42.31a5.54,5.54,0,0,0-.13-1.4,1.48,1.48,0,0,0-.52-.73,1.39,1.39,0,0,0-.93-.31,1.72,1.72,0,0,0-.82.21,3.54,3.54,0,0,0-.87.7V37.43h-2.36v.23a.81.81,0,0,1,.5.21,1.68,1.68,0,0,1,.12.82v5.88a1.73,1.73,0,0,1-.1.8.73.73,0,0,1-.52.24v.22h2.93v-.22a.6.6,0,0,1-.48-.26,2,2,0,0,1-.09-.78v-3.1a2.26,2.26,0,0,1,.5-.59.8.8,0,0,1,.49-.18.44.44,0,0,1,.29.11.52.52,0,0,1,.2.28,5,5,0,0,1,.05.9v2.58a1.63,1.63,0,0,1-.11.79.66.66,0,0,1-.46.25v.22h2.93v-.22a.71.71,0,0,1-.5-.21A1.71,1.71,0,0,1,188,44.57Z"/></svg>