<svg id="Layer_1" data-name="Layer 1" xmlns="http://www.w3.org/2000/svg" viewBox="0 0 50 50"><defs><style>.cls-1{fill:#fff;}</style></defs><title>GovCrest</title><path class="cls-1" d="M18.54,25.62a.23.23,0,0,0-.23-.24.24.24,0,1,0,0,.48A.23.23,0,0,0,18.54,25.62Z"/><path class="cls-1" d="M20.74,15.88h0v6.87a1.56,1.56,0,0,0,.67,1.42l3.27,1.95a.41.41,0,0,0,.3.14.36.36,0,0,0,.26-.11l3.32-2a1.56,1.56,0,0,0,.67-1.42V15.89H20.74Zm1.4.67h.13l.09-.15.08.15h.14l-.07.12.11.11-.14,0V17l-.12-.1-.13.1V16.8l-.13,0,.1-.11Zm0,1.54c.25,0,.18.24.22.24s0-.24.16-.24.55.63.28.63,0-.09,0-.11-.07-.05-.09-.05-.11.13-.18.13-.08,0-.08-.05.1-.08.14-.12c-.55,0-.56.25-.65.25s.12-.26.2-.34c-.11,0-.18-.15-.3-.22.06-.09.09-.05.16,0S22,18.09,22.1,18.09Zm0,2.1.1-.11L22.14,20h.13l.09-.14.08.14h.14l-.07.12.11.11-.14,0v.15l-.12-.09-.13.09v-.15ZM21,16.11h.89v1.76H21Zm.11,2.38.1-.11-.06-.12h.14l.08-.14.08.14h.14l-.07.12.11.11-.14,0v.15l-.12-.09-.13.09v-.15ZM21,19h.89v1.67H21Zm2.59,6.18-2-1.21A1.46,1.46,0,0,1,21,22.84V20.91h2.59Zm0-4.51h-.74V19h.74Zm-.5-2.42h.14l.08-.14.08.14h.14l-.06.12.1.11-.13,0v.15l-.13-.09-.12.09v-.15l-.14,0,.11-.11Zm.5-.39h-.74V16.11h.74Zm2.62,7.46-.94.56h0A.36.36,0,0,1,25,26a.45.45,0,0,1-.26-.09l-.93-.56V20.91h2.39Zm0-4.65H23.8V16.11h2.39ZM29,22.84A1.49,1.49,0,0,1,28.46,24l-2,1.21V20.91H29Zm0-2.16H26.42V16.11H29Z"/><path class="cls-1" d="M21.09,22.07s0,.07.07.1a.47.47,0,0,0,0,.25c0,.54.34.79.59.79s.15-.12.17-.18.09-.05.09.11-.17.1-.17.24.27,0,.27.21a2.66,2.66,0,0,1,0,.35c0,.07.29-.09.27-.12s.06.23.19.22.1-.21.17-.22.25.19.25.1c0-.26-.1-.15-.1-.32s.35-.13.3-.21-.08,0-.12-.15-.28-.4.06-.18.39-.54.37-.58-.17,0-.23.08a1,1,0,0,1,.25-.33c0-.11-.15,0-.29.07.48-.7.17-.41-.1-.36.43-.47.32-.46,0-.32.25-.2.3-.43.26-.5-.23.31-.45.26-.45.55a1.22,1.22,0,0,1-.16.61c-.13.14,0-.51-.37-.51-.1,0-.35,0-.43.12s.17.18.17.24.06.26,0,.26-.25-.24-.25-.35v-.25c0-.28-.45-.66-.63-.66,0,.19.25.23.25.48-.11,0-.26-.2-.26-.08s.16.15.16.25-.18,0-.18.08.1.08.12.18S21.1,22,21.09,22.07Z"/><path class="cls-1" d="M32.51,24.28a.25.25,0,1,0,0-.49.25.25,0,1,0,0,.49Z"/><path class="cls-1" d="M31.1,24.71a.26.26,0,0,0,.28.24.25.25,0,1,0,0-.49A.26.26,0,0,0,31.1,24.71Z"/><path class="cls-1" d="M17.93,26a.25.25,0,1,0,0,.49.25.25,0,1,0,0-.49Z"/><path class="cls-1" d="M18.8,26.58a.25.25,0,1,0-.28-.25A.27.27,0,0,0,18.8,26.58Z"/><path class="cls-1" d="M43.22,16.7A1.79,1.79,0,0,0,43,14.84c-.11-.1,0-.34-.22-.37a2.23,2.23,0,0,0,.26,1.88C43.08,16.47,43.05,16.68,43.22,16.7Z"/><path class="cls-1" d="M7.35,16.64c.08,0,.06.13.14.06a2.61,2.61,0,0,1,0-1.18A1,1,0,0,0,7,14.79a.12.12,0,0,0-.15,0C7,15.4,6.77,16.22,7.35,16.64Z"/><path class="cls-1" d="M44.28,15.56a.39.39,0,0,0-.38-.15.35.35,0,0,0-.18.39.39.39,0,0,0,.37.17C44.21,15.89,44.37,15.73,44.28,15.56Z"/><path class="cls-1" d="M6.39,16.55a.45.45,0,0,0,.19-.33c0-.12-.15-.15-.25-.19a.33.33,0,0,0-.28.13.26.26,0,0,0,.06.31C6.17,16.55,6.3,16.55,6.39,16.55Z"/><path class="cls-1" d="M44.46,16.85a.29.29,0,0,0,.4-.38.51.51,0,0,0-.31-.15.47.47,0,0,0-.25.27A.43.43,0,0,0,44.46,16.85Z"/><path class="cls-1" d="M43.72,16.94c.13,0,.24-.08.31-.15s.11-.24,0-.3a.36.36,0,0,0-.28-.08.34.34,0,0,0-.21.35C43.56,16.86,43.65,16.86,43.72,16.94Z"/><path class="cls-1" d="M42.76,17.12c.19,0,.17-.24.17-.41a.37.37,0,0,0-.29-.16.37.37,0,0,0-.23.36A.29.29,0,0,0,42.76,17.12Z"/><path class="cls-1" d="M8,17.1c.08-.07.23-.16.19-.31a.28.28,0,0,0-.43-.14c0,.09-.17.18-.06.29A.3.3,0,0,0,8,17.1Z"/><path class="cls-1" d="M7.15,17.12a.32.32,0,0,0,.16-.29c-.06-.1-.16-.25-.33-.19a.24.24,0,0,0-.13.34A.28.28,0,0,0,7.15,17.12Z"/><path class="cls-1" d="M39.48,18.82c.2-.19.1-.57.16-.85a3.14,3.14,0,0,0-.3-1.08c0-.07,0-.22-.16-.18a2.59,2.59,0,0,0-.06,1.65C39.25,18.49,39.27,18.75,39.48,18.82Z"/><path class="cls-1" d="M6.05,17.24a.33.33,0,0,0,.37.2c.1-.1.23-.19.19-.37a.37.37,0,0,0-.37-.19A.36.36,0,0,0,6.05,17.24Z"/><path class="cls-1" d="M41.76,18.94a2.15,2.15,0,0,0-.07-1.44.55.55,0,0,1-.24-.44c0-.09-.1-.18-.21-.11a2,2,0,0,0-.18.85A5.72,5.72,0,0,0,41.67,19Z"/><path class="cls-1" d="M43.16,17.06a.33.33,0,0,0-.17.36.27.27,0,0,0,.34.17.38.38,0,0,0,.23-.35C43.48,17.12,43.32,17,43.16,17.06Z"/><path class="cls-1" d="M7.1,18a.31.31,0,0,0,.22-.28c0-.15-.16-.21-.29-.28s-.2,0-.24.11a.34.34,0,0,0,0,.35C6.89,17.92,7,18.07,7.1,18Z"/><path class="cls-1" d="M7.81,17.92c.06-.07.23-.15.17-.3s-.17-.25-.35-.2a.32.32,0,0,0-.16.32C7.55,17.85,7.63,18,7.81,17.92Z"/><path class="cls-1" d="M43.63,18.16c0-.19.33-.39.34-.58a2.16,2.16,0,0,0-1.2.78c-.16.27-.43.54-.4.83a.72.72,0,0,0,.34-.19A1.5,1.5,0,0,0,43.63,18.16Z"/><path class="cls-1" d="M7.53,19.06a.12.12,0,0,0,.1-.15,5.69,5.69,0,0,1-.6-.7c-.2-.26-.48-.32-.73-.51-.1,0-.3-.12-.34,0C6.31,18.27,6.8,19,7.53,19.06Z"/><path class="cls-1" d="M42.76,20.15c.16.1.34-.06.5-.12a1.91,1.91,0,0,0,.92-1.61h-.12A7.27,7.27,0,0,0,42.76,20.15Z"/><path class="cls-1" d="M41.08,19.28a.35.35,0,0,0,.25-.43c-.07-.07-.12-.15-.21-.18a.21.21,0,0,0-.17,0,.29.29,0,0,0-.21.32C40.81,19.16,40.92,19.3,41.08,19.28Z"/><path class="cls-1" d="M7,19.69a10.44,10.44,0,0,0-.8-.71,2.84,2.84,0,0,0-.9-.19c-.11.05-.3,0-.32.15.52.15.86.58,1.37.76C6.58,19.7,6.82,19.82,7,19.69Z"/><path class="cls-1" d="M10.26,19.6a.33.33,0,0,0,.22-.35c0-.13-.17-.15-.29-.18s-.27.18-.21.35S10.14,19.55,10.26,19.6Z"/><path class="cls-1" d="M9.22,19.64c.09.12.25.05.36,0a.34.34,0,0,0-.06-.35c-.12-.12-.3,0-.4.08S9.13,19.55,9.22,19.64Z"/><path class="cls-1" d="M41,19.75c0,.19.19.22.34.27a.29.29,0,0,0,.19-.35.3.3,0,0,0-.31-.15A.28.28,0,0,0,41,19.75Z"/><path class="cls-1" d="M42.15,20c0-.06.09-.07.15-.12s0-.19,0-.27-.15-.13-.26-.1-.25.15-.22.31A.29.29,0,0,0,42.15,20Z"/><path class="cls-1" d="M5.28,19.82a.75.75,0,0,0,.11.2.29.29,0,0,0,.4-.2.34.34,0,0,0-.35-.25A.26.26,0,0,0,5.28,19.82Z"/><path class="cls-1" d="M10.22,20.15a.38.38,0,0,0,.32.21c.11-.06.24-.16.26-.28a.34.34,0,0,0-.41-.23C10.28,19.88,10.22,20,10.22,20.15Z"/><path class="cls-1" d="M9.43,20.05c0,.15.07.2.16.28s.29,0,.37-.12,0-.19,0-.24-.15-.13-.27-.1A.65.65,0,0,0,9.43,20.05Z"/><path class="cls-1" d="M44,20.36a.27.27,0,0,0,.32.07.37.37,0,0,0,.2-.28.59.59,0,0,0-.3-.21.49.49,0,0,0-.28.2C44,20.21,43.93,20.33,44,20.36Z"/><path class="cls-1" d="M45.2,20.55a.36.36,0,0,0,.29-.27.27.27,0,0,0-.38-.14.26.26,0,0,0-.13.23C45,20.51,45.11,20.54,45.2,20.55Z"/><path class="cls-1" d="M7.2,20.31c-.08.06-.22,0-.25.17a.25.25,0,0,0,.08.3.24.24,0,0,0,.28.07.29.29,0,0,0,.18-.36A.41.41,0,0,0,7.2,20.31Z"/><path class="cls-1" d="M8.09,20.88c0-.09.17-.13.12-.25s-.38-.3-.5-.08,0,.27.12.36A.23.23,0,0,0,8.09,20.88Z"/><path class="cls-1" d="M43.16,20.72a.25.25,0,0,0,.29.18c.09-.09.23-.2.21-.35a.33.33,0,0,0-.34-.12C43.22,20.51,43.14,20.6,43.16,20.72Z"/><path class="cls-1" d="M44.3,20.79a.27.27,0,0,0,.06.32.43.43,0,0,0,.35.06c.15-.09.14-.24.17-.38s-.12-.12-.23-.18A.34.34,0,0,0,44.3,20.79Z"/><path class="cls-1" d="M6.8,21.32c0-.06.18-.09.12-.21s-.32-.36-.46-.11c0,.08-.06.23,0,.29A.3.3,0,0,0,6.8,21.32Z"/><path class="cls-1" d="M42.16,21.14a5,5,0,0,1,.6.33,1.13,1.13,0,0,0,1.2.05s0-.11,0-.13c-.47,0-.81-.42-1.24-.48C42.5,21,42.24,20.94,42.16,21.14Z"/><path class="cls-1" d="M7.19,21.17a.26.26,0,0,0,.1.37c.08,0,.2.06.26,0s.11-.13.08-.25A.26.26,0,0,0,7.19,21.17Z"/><path class="cls-1" d="M8.79,21.67c.12-.07.21-.19.15-.32s-.37-.29-.5-.06,0,.23.07.34S8.69,21.73,8.79,21.67Z"/><path class="cls-1" d="M24.19,24.09c.2.53.82.27,1.24.32a1.36,1.36,0,0,0,.57-.49c0-.24.08-.55-.06-.75a2.21,2.21,0,0,1-.3-.84c-.07-.39.43,0,.46-.35-.15-.16-.36-.44-.61-.24a.49.49,0,0,0-.17.49c.06.39.23.74.28,1.1a1.9,1.9,0,0,1-.21-.19c-.3-.38-.85-.27-1.18-.62-.41,0,.26.45-.22.54,0,.1.1.15.1.25s-.1.05-.14.07A2.13,2.13,0,0,0,24.19,24.09Z"/><path class="cls-1" d="M10.08,22.2c.09-.08.21-.17.17-.32a.34.34,0,0,0-.29-.15c-.08.08-.19.15-.14.3S10,22.26,10.08,22.2Z"/><path class="cls-1" d="M19.15,22.09c-.16.59-.46,1.36-.06,1.92.16,0,.12-.18.13-.3A2,2,0,0,0,19.4,22C19.36,21.88,19.18,21.94,19.15,22.09Z"/><path class="cls-1" d="M32.13,23.71a1.69,1.69,0,0,0,0-1.39c-.06-.12,0-.39-.25-.35a3.57,3.57,0,0,1-.18.8A3.75,3.75,0,0,0,32,23.83Z"/><path class="cls-1" d="M10.9,22.83c.16-.12.41-.17.5-.35s-.1,0-.13-.1a1.6,1.6,0,0,0-1.69.7A1.84,1.84,0,0,0,10.9,22.83Z"/><path class="cls-1" d="M6.33,24.48a4.24,4.24,0,0,0-1-1.46c-.06,0-.15,0-.15.06a1.64,1.64,0,0,0,.9,1.54c.16,0,.28.15.4.06S6.37,24.54,6.33,24.48Z"/><path class="cls-1" d="M31.39,23.83c.12,0,.15-.2.13-.35a.26.26,0,0,0-.4-.07c0,.07-.12.13-.07.24A.28.28,0,0,0,31.39,23.83Z"/><path class="cls-1" d="M43.13,25.32c0,.08.09.05.15.05a3.78,3.78,0,0,0,1.81-1.68.5.5,0,0,0-.41.06C43.9,24,43.63,24.78,43.13,25.32Z"/><path class="cls-1" d="M4.43,24.63c.13,0,.07-.15.15-.21s-.15-.19-.27-.25a.26.26,0,0,0-.19.33A.23.23,0,0,0,4.43,24.63Z"/><path class="cls-1" d="M7,24.36a1.61,1.61,0,0,0,1.7.44c.08,0,.23,0,.18-.17-.5-.37-1.22-.25-1.82-.4C7,24.24,7,24.3,7,24.36Z"/><path class="cls-1" d="M4.86,24.6a.52.52,0,0,0,.19.2.32.32,0,0,0,.37-.14.34.34,0,0,0,0-.22.38.38,0,0,0-.28-.12A.33.33,0,0,0,4.86,24.6Z"/><path class="cls-1" d="M18.91,24.39a.22.22,0,0,0-.1.29.29.29,0,0,0,.31.12c.09-.06.21-.15.18-.29S19,24.36,18.91,24.39Z"/><path class="cls-1" d="M45.1,24.6c0,.11.06.17.07.24a.34.34,0,0,0,.29.05c.1-.09.23-.17.19-.32s-.13-.09-.21-.15A.33.33,0,0,0,45.1,24.6Z"/><path class="cls-1" d="M46.3,25a.22.22,0,0,0,.27-.09c.07-.11.15-.21.06-.35s-.18-.15-.33-.09-.22.14-.22.26S46.21,24.86,46.3,25Z"/><path class="cls-1" d="M3.61,25.26c.09,0,.17,0,.24-.06S4,25.05,4,25a.36.36,0,0,0-.29-.23.27.27,0,0,0-.05.54Z"/><path class="cls-1" d="M34.71,25c0,.13.06.22.15.31s.27,0,.36-.15a.41.41,0,0,0,0-.19A.29.29,0,0,0,34.71,25Z"/><path class="cls-1" d="M6,24.89c-.13.07-.12.21-.12.34s.12.18.26.17.17-.12.2-.23A.27.27,0,0,0,6,24.89Z"/><path class="cls-1" d="M4.37,25.32a.34.34,0,0,0,.4.21.32.32,0,0,0,.15-.33c-.07-.07-.15-.22-.28-.22A.41.41,0,0,0,4.37,25.32Z"/><path class="cls-1" d="M36,25.53a.29.29,0,0,0,.16-.36.34.34,0,0,0-.29-.16c-.18,0-.2.19-.27.31A.36.36,0,0,0,36,25.53Z"/><path class="cls-1" d="M5.33,25.52c.09,0,.14-.06.21-.06s.12-.12.08-.23A.29.29,0,0,0,5.33,25a.31.31,0,0,0-.19.29C5.16,25.41,5.28,25.44,5.33,25.52Z"/><path class="cls-1" d="M44.83,25.35a.3.3,0,0,0-.55-.15c0,.08-.06.21,0,.27s.16.15.28.12A.42.42,0,0,0,44.83,25.35Z"/><path class="cls-1" d="M45.43,25.32c-.11.18,0,.29.17.34a.37.37,0,0,0,.36-.25.28.28,0,0,0-.36-.22C45.52,25.2,45.49,25.26,45.43,25.32Z"/><path class="cls-1" d="M38.41,25.74a.77.77,0,0,0,.28.12c.12-.09.3-.15.22-.34a.27.27,0,1,0-.5.22Z"/><path class="cls-1" d="M34.37,25.71a.26.26,0,0,0,.15.28c.13.09.25-.06.34-.12s0-.15,0-.18S34.45,25.55,34.37,25.71Z"/><path class="cls-1" d="M35.2,25.77a.24.24,0,0,0,0,.22c.1,0,.22.15.32.05a.19.19,0,0,0,.12-.24c0-.12-.16-.12-.26-.15A.32.32,0,0,0,35.2,25.77Z"/><path class="cls-1" d="M10.45,26.1c0-.09.12-.2,0-.29a.58.58,0,0,0-.29-.15c-.12,0-.12.11-.21.14s-.05.31.1.37A.28.28,0,0,0,10.45,26.1Z"/><path class="cls-1" d="M40.28,26.11c.1,0,.25-.09.22-.24s-.24-.26-.44-.18c0,.08-.12.14-.12.23S40.1,26.17,40.28,26.11Z"/><path class="cls-1" d="M39.13,25.89c0,.09,0,.18.08.22a.29.29,0,0,0,.33.06c.06-.07.22-.15.16-.3a.4.4,0,0,0-.33-.18C39.27,25.72,39.22,25.81,39.13,25.89Z"/><path class="cls-1" d="M46.39,26.05l0,0c-.64,0-1.29-.52-1.93-.12-.12.07-.34,0-.39.19a2.39,2.39,0,0,0,2,.14C46.15,26.16,46.42,26.26,46.39,26.05Z"/><path class="cls-1" d="M3.81,26.32A2.39,2.39,0,0,0,5.72,26l.06-.11,0,0a2.67,2.67,0,0,0-2,.4Z"/><path class="cls-1" d="M42,26a.34.34,0,0,0-.34-.17c-.12.05-.23.17-.19.29a.29.29,0,0,0,.39.16A.35.35,0,0,0,42,26Z"/><path class="cls-1" d="M8.26,26.34c.15-.06.12-.18.18-.3s-.23-.27-.4-.18-.2.12-.15.28A.32.32,0,0,0,8.26,26.34Z"/><path class="cls-1" d="M7.31,26.35c0-.07.12-.13.07-.24a.33.33,0,0,0-.29-.24.81.81,0,0,0-.24.17c0,.16.06.27.16.36A.28.28,0,0,0,7.31,26.35Z"/><path class="cls-1" d="M43.05,26.46a.31.31,0,0,0-.26-.24c-.06,0-.17,0-.2.07a.25.25,0,0,0-.06.29.38.38,0,0,0,.29.15A.32.32,0,0,0,43.05,26.46Z"/><path class="cls-1" d="M5.88,27.19a2.17,2.17,0,0,0,.33-.64c0-.09.12-.14.07-.26l0,0a3.85,3.85,0,0,0-1.5,1.26l.06.12C5.2,27.53,5.6,27.53,5.88,27.19Z"/><path class="cls-1" d="M42.09,26.9c.1-.07.25-.1.22-.28a.3.3,0,0,0-.33-.19c-.08.07-.23.13-.19.3A.34.34,0,0,0,42.09,26.9Z"/><path class="cls-1" d="M7.49,26.83a.41.41,0,0,0,.32.15c.09-.08.21-.12.23-.28s-.06-.05,0-.08-.22-.15-.36-.13A.25.25,0,0,0,7.49,26.83Z"/><path class="cls-1" d="M45.55,27.35c.11-.07.25-.16.19-.34a.36.36,0,0,0-.36-.16c-.16,0-.19.2-.34.22a1.36,1.36,0,0,0-1-.58c-.17.12.12.22.17.36a1.91,1.91,0,0,0,1.07.92c.05,0,.15.05.18,0a.42.42,0,0,0-.21-.3C45.22,27.26,45.44,27.43,45.55,27.35Z"/><path class="cls-1" d="M46.45,26.89a.23.23,0,0,0,0-.28.42.42,0,0,0-.35-.11.53.53,0,0,0-.22.2c0,.12.05.19.12.26S46.38,27,46.45,26.89Z"/><path class="cls-1" d="M39.92,26.85c.19.59.85.91,1.35,1.19,0,0,.11,0,.14,0a2.37,2.37,0,0,0-.33-.6c-.06-.16-.18-.24-.28-.39a1.4,1.4,0,0,0-1-.41C39.76,26.71,39.88,26.79,39.92,26.85Z"/><path class="cls-1" d="M6.68,27a.35.35,0,0,0,.35.12c.07-.06.19-.16.13-.29s-.15-.2-.27-.18S6.58,26.86,6.68,27Z"/><path class="cls-1" d="M42.43,27.08c-.09.08,0,.2,0,.27s.23.06.35,0,.16-.12.14-.21S42.59,26.88,42.43,27.08Z"/><path class="cls-1" d="M46.42,27.77a.35.35,0,0,0,.21-.37.6.6,0,0,0-.18-.15.38.38,0,0,0-.39.1c0,.11-.07.2,0,.29S46.27,27.82,46.42,27.77Z"/><path class="cls-1" d="M36.36,29.46a2.23,2.23,0,0,0-2,.4V30a3.11,3.11,0,0,0,1.56-.22C36,29.59,36.36,29.64,36.36,29.46Z"/><path class="cls-1" d="M14.49,30.36a.29.29,0,0,0,.22-.26.34.34,0,0,0-.28-.22c-.1.07-.25.15-.19.33A.28.28,0,0,0,14.49,30.36Z"/><path class="cls-1" d="M35.51,30.27c0,.07,0,.18.05.24a.42.42,0,0,0,.33.1.44.44,0,0,0,.22-.34A.32.32,0,0,0,35.51,30.27Z"/><path class="cls-1" d="M39.06,30.24a2.44,2.44,0,0,0-2.15.54l.07.06h.8a2.43,2.43,0,0,0,1.28-.52Z"/><path class="cls-1" d="M10.26,30.49a.26.26,0,1,0,.39.2C10.59,30.57,10.42,30.39,10.26,30.49Z"/><path class="cls-1" d="M11.14,30.64c-.05.06-.14.05-.18.14a.18.18,0,0,0,.09.25c.07.07.19,0,.28,0s.1-.12.06-.19A.45.45,0,0,0,11.14,30.64Z"/><path class="cls-1" d="M5.16,32.21c.16.09.4.31.55.13-.35-.44-.46-.92-1-1.21A1.82,1.82,0,0,1,4.43,31c-.1,0-.24-.16-.3,0C4.65,31.33,4.64,31.91,5.16,32.21Z"/><path class="cls-1" d="M49,26.55a1.18,1.18,0,0,0-1.12-.62,1,1,0,0,0-.83.62.76.76,0,0,0,.29.82.22.22,0,0,0,.29-.08c.08-.19-.13-.19-.16-.34a.48.48,0,0,1,.16-.52c.15-.15.4-.08.58-.08a1.06,1.06,0,0,1,.45.44,1.19,1.19,0,0,1,0,.79,1.38,1.38,0,0,1-.92.75c-1.23.17-14.75.11-14.75.11-1.59.15-3.4-.29-4.77.54a2.36,2.36,0,0,0-1.09,1.6,11.72,11.72,0,0,0-1.16,1.18l0,0c.07-.36.23-.68.31-1a6.14,6.14,0,0,0,.38-1,8.38,8.38,0,0,1,2-2.48c.37-.49,1-.4,1.58-.4a4,4,0,0,0,2.07.3.14.14,0,0,0,0-.11c-.21-.19-.55-.26-.79-.46-.59-.28-1.15.09-1.78.05,0,0-.06-.05,0-.09a8.59,8.59,0,0,1,1.84-1,13.3,13.3,0,0,1,1.62-.64c.22,0,.43-.2.63-.06a10.64,10.64,0,0,1-1.52,2.52c-.23,0-.36.24-.58.26s-.36,0-.51.1c-.46.2-1.11.08-1.42.51a.2.2,0,0,0,.12.08c.9,0,1.91.07,2.88,0a.37.37,0,0,0,.23-.29c-.13-.25,0-.48.17-.67.07-.36.31-.58.41-.93.31-.61.67-1.21,1-1.82,0,0,.06.06.12,0a8.57,8.57,0,0,1,2.27,0l.1.09a10.55,10.55,0,0,1-.13,2.17c-.25.87-1.25.78-2,1-.18.12-.52.06-.52.36a12.93,12.93,0,0,0,2.79.06c.15-.06.18-.19.25-.33s.23-.36.17-.57,0-.53-.06-.82a.44.44,0,0,0,0-.28c.12-.44.09-1,.18-1.38.26,0,.38.35.66.36.15-.21-.16-.3-.23-.43a1.56,1.56,0,0,1,1,.15l-.15.16c-.09.17,0,.29.18.35s.18-.05.25-.08,0-.27,0-.39a14.85,14.85,0,0,1,3.16.9,2.42,2.42,0,0,0,.86.28,3.8,3.8,0,0,0-1.13-.59c-.25-.15-.61-.17-.8-.38,0-.07.15,0,.19-.1a2.19,2.19,0,0,0,1.29-.84c0-.09.2-.06.18-.18s-.36.05-.53,0c-.63.12-.89.85-1.52,1-.75-.18-1.53-.36-2.28-.56a4.76,4.76,0,0,1-1.12-.24,7.35,7.35,0,0,1,.11-.82.62.62,0,0,0,.06-.31A.54.54,0,0,1,38.1,23l.31-.14a3.66,3.66,0,0,1,1.19,0,3.61,3.61,0,0,0,.74.16.54.54,0,0,1,.37-.08c.47-.25.16-.8.19-1.24A9.29,9.29,0,0,0,42,20.48a.28.28,0,0,0-.16-.28.25.25,0,0,0-.3.05c-.18.14,0,.3,0,.47a2.45,2.45,0,0,1-.68.58l-.13.05,0-.09a2.68,2.68,0,0,1-.12-.3c-.08-.11-.14-.3-.23-.41A6.35,6.35,0,0,0,39.21,19a6.26,6.26,0,0,0-3.13-1.93,5.22,5.22,0,0,0-3.41.49.84.84,0,0,1-.58-.62,3,3,0,0,1,.28-1.59,6.14,6.14,0,0,1,.4-1,10.59,10.59,0,0,0,.61-2.57,1.36,1.36,0,0,0-.8-1.18.82.82,0,0,0-.82.17,2.15,2.15,0,0,1-1,.86c0,.26.28.09.38.18.33.06.7,0,1,.17a2.53,2.53,0,0,1-.63,1.53,11.93,11.93,0,0,0-1.35,2.34v-.79h-7c-.35-.12-.63-.49-1-.49-.83-.33-1.38.54-2.22.43,0,0,0,0-.05.06h0a.8.8,0,0,1-.08.16s-.12,0-.16,0c0-.36-.16-.69-.21-1-.09-.15,0-.36-.12-.51-.47-1.3,1.16-.31,1.49-1.08s-.55-.73-.81-1.19v-.2c-.23-.24-.48-.31-.63-.62a2.18,2.18,0,0,0,0-1.16.17.17,0,0,0-.21-.16c-.28.39-.49.7-.75,1.08a8.41,8.41,0,0,0-.88-.66c-.22,0-.43-.26-.68-.17a.21.21,0,0,0,0,.23,2.15,2.15,0,0,0,.73,1.46l.05.23a6.47,6.47,0,0,0-.27,2,11,11,0,0,1-3.22,4.53c-.85,1-1.86,1.88-2,3.2,0,.21,0,.46-.13.61A5.2,5.2,0,0,1,10.65,21C10,20.54,9,20.6,8.54,19.73c-.18-.34,0-.69.21-.94a1.72,1.72,0,0,0,.16-1.91c-.06,0-.07.06-.12.07,0,.88-.74,1.5-.47,2.47.06.28.2.46.28.73a2.9,2.9,0,0,1-.34-.07,3.77,3.77,0,0,0-1-.14c-.68.31-1.61-.07-2.16.55-.09,0-.21,0-.18.17.33,0,.64.09,1,.07.52.09.86-.34,1.22-.53h.09c.15-.15.4-.06.59-.09a6,6,0,0,1,2.44,1v.06c-.3.14-.64.23-.94.39a2,2,0,0,0-.83,1c-.24.37.07.7.22,1,0,.15,0,.33.17.39.47-.51,0-1.14.1-1.72a1.21,1.21,0,0,1,1-.78c.85-.36,1.46.33,2.14.72a9.73,9.73,0,0,1-.07,2,2.08,2.08,0,0,1-.7.1,12.78,12.78,0,0,0-3.15,1.09c-.47.17-1,.15-1.51.33a3.66,3.66,0,0,0,1.14,0c1.46-.2,2.57-1.33,4.14-1.13l0,0a3.61,3.61,0,0,1-.69,1c-.05-.17-.06-.3-.21-.39a.27.27,0,0,0-.34.12.18.18,0,0,0,0,.22c.07.13.19.16.32.21,0,.13-.19.19-.28.31-.41.71-1.26.42-1.75.91-.07.11-.34.17-.22.33a2.24,2.24,0,0,0,1.53-.39c.54-.61,1.12-1.19,1.67-1.77a1.78,1.78,0,0,1-.32,1.36,2,2,0,0,0-.4-.23.36.36,0,0,0-.27.3.84.84,0,0,0,.22.3,5.1,5.1,0,0,1-1.72.55,26.86,26.86,0,0,1-3.24.24,7.13,7.13,0,0,1-1.6,0c-.56.11-1.17-.07-1.63.24-.06.08,0,.15,0,.23.69.44,1.62.09,2.39.22h5.85a2.6,2.6,0,0,0,1.2-.22,4.43,4.43,0,0,0,1.56-2,3,3,0,0,0,.31-.89,1.31,1.31,0,0,1,1.11-.92,6.67,6.67,0,0,1-.25,2.28c-.09.47-.4.94-.21,1.45,0,.24.3.24.49.27,1.8,0,3.59-.11,5.49,0a4.82,4.82,0,0,0,1,.14s.14-.06.09-.14a.54.54,0,0,0-.35-.42c0-.09-.17-.06-.21-.12-.95-.54-2.09-.26-3.21-.24a2.35,2.35,0,0,1-1.64-.17c-.23-.27-.06-1.12-.06-1.12A10.85,10.85,0,0,1,17,24.67a10.25,10.25,0,0,1,1.57.8,10,10,0,0,1,1.48.79,10.2,10.2,0,0,1,4.26,5c0,.16.17.34.06.51a8.12,8.12,0,0,0-1.13-1.14A2.2,2.2,0,0,0,22.15,29c-.23-.33-.7-.36-1.07-.46l-5.4,0c-4.4-.06-8.4.13-12.76.06-.61-.06-1.35-.27-1.53-.91a1,1,0,0,1,0-.82.89.89,0,0,1,.75-.41.8.8,0,0,1,.51.42c0,.19-.16.37-.24.54s.08.18.18.13A.7.7,0,0,0,3,27.05c0-.1,0-.25,0-.32a1,1,0,0,0-.7-.62,1.25,1.25,0,0,0-1,.35A1.22,1.22,0,0,0,1,27.71a2,2,0,0,0,1.6,1.2L17,29a29.75,29.75,0,0,1,4.42.12,1.69,1.69,0,0,1,1.2,1.13s-.06,0-.1,0a6.46,6.46,0,0,0-4.22-.87,5.39,5.39,0,0,0-1.66.34.86.86,0,0,1-.73-.23,2.45,2.45,0,0,0-2.15-.27s0,.09,0,.1c.72-.06,1.15.57,1.81.64.15,0,.26-.13.4,0a13.56,13.56,0,0,1-2.06.93c-.23-.05-.35-.26-.52-.38-.29-.31-.81-.18-1.19-.21-.13,0-.25-.06-.34,0a1.25,1.25,0,0,0,.64.5c.37.16.8,0,1.14.2a1.21,1.21,0,0,1-.31.21c-.7.27-1.28.9-2.05.86a2.64,2.64,0,0,1-2.2-.72,1.49,1.49,0,0,0-1.5-.87s-.1,0-.08.11c.32.19.57.58.9.8s.61,0,.8.29a2.7,2.7,0,0,0,1,.42,4.33,4.33,0,0,0,.77.21l-.11.05a12.64,12.64,0,0,1-4.42.44c-.44,0-.87-.15-1.32-.14a.8.8,0,0,0,.36.21.78.78,0,0,1-.4.12,3,3,0,0,0-.57.15,1.62,1.62,0,0,0-.63.15,3.19,3.19,0,0,1-.85.69c0,.06,0,.15.06.15.28-.12.64,0,.92-.15.49-.05.77-.58,1.16-.81A2,2,0,0,1,6.7,33c.3.08,0,.2.06.39s.22.23.39.18a.15.15,0,0,1,.1-.07.35.35,0,0,0,0-.38c.21-.13.49,0,.72-.07.56,0,1.12-.14,1.67-.15.09,0,.2-.11.28,0s-.19.14-.13.3.18.2.3.23.28-.17.22-.36-.15-.12-.22-.17c.31-.15.66-.19,1-.34a3,3,0,0,0,.62-.21c.19,0,.36-.19.53-.12a2.85,2.85,0,0,1-.31.72,3.64,3.64,0,0,0,0,2.6c.05,0,.06,0,.09,0A3.56,3.56,0,0,1,12.15,33c.2-1.27,1.51-1.65,2.44-2.12l.05.06A4.77,4.77,0,0,0,14.07,33c0,.14-.05.27,0,.36a1.45,1.45,0,0,0,.55-.69c.11-.67-.28-1.51.4-2a10.31,10.31,0,0,1,3.77-1.12c.05,0,.15,0,.17.06-.3.33-.73.64-.87,1.05a3.41,3.41,0,0,0-.25,2.58c.14.46-.26.72-.46,1.08a4.53,4.53,0,0,0-.2.49l.29,0a1.64,1.64,0,0,0,.51-1,.41.41,0,0,0,.28.3c.1-.16-.09-.28-.11-.45.24-.13.35.17.54.23a4.05,4.05,0,0,0,.9.21l.11-.11a1.87,1.87,0,0,0-1.55-.62,3.07,3.07,0,0,1-.26-1.71,2.74,2.74,0,0,1,.29-.92,2.4,2.4,0,0,1,.42-.57,2,2,0,0,1,.93-.51h0a.06.06,0,0,0,0,0c-.4.32-.44.75-.68,1.14a1.25,1.25,0,0,0-.13,1.3c.09.19,0,.49.25.63a3.27,3.27,0,0,0,.31-.91c0-.5-.34-1-.06-1.44a1.26,1.26,0,0,1,.8-.66,4.67,4.67,0,0,1,2.24.66c.15.11.4.2.43.41a1.21,1.21,0,0,1-1.9,1,1,1,0,0,1-.23-.91.6.6,0,0,1,.65-.24c.15.08.28.23.48.14a.19.19,0,0,0,.05-.24c-.16-.09-.22-.32-.44-.35a1,1,0,0,0-.82.17,1,1,0,0,0-.34,1,1.28,1.28,0,0,0,.92,1A1.75,1.75,0,0,0,23,31.82a1.83,1.83,0,0,0,.32-.64,3.79,3.79,0,0,1,1.53,2,3.18,3.18,0,0,1,0,.75l.52,0a.47.47,0,0,1,0-.35,4.5,4.5,0,0,1,1.53-2.46c.25-.15.19.2.25.3a2,2,0,0,0,1.29,1.14,1.65,1.65,0,0,0,1.6-.52c.2-.36.43-.89.11-1.26a1,1,0,0,0-.82-.39,1,1,0,0,0-.81.56c0,.11,0,.25.08.31s.18,0,.23-.08.22-.32.4-.44a.45.45,0,0,1,.47.09.72.72,0,0,1,.21.58.9.9,0,0,1-.49.7A1.52,1.52,0,0,1,28,32a3.22,3.22,0,0,1-.42-.66,1.09,1.09,0,0,1,0-.69,5.09,5.09,0,0,1,2.12-.75,1.51,1.51,0,0,1,.79.5c.68.7-.15,1.7.33,2.48.17,0,.17-.27.25-.42a2.66,2.66,0,0,0-.19-1.64,3.22,3.22,0,0,0-.57-.89.4.4,0,0,1,.18,0,3.66,3.66,0,0,1,.9.78A4,4,0,0,1,32,33.12c-.11.45-.59.66-1,.82a1.32,1.32,0,0,0-.4.48c.18.11.43,0,.61-.07s.44-.47.64-.63c0,0,0,.06,0,.09s-.07.39.08.43a5.46,5.46,0,0,0,.13-.76,1.43,1.43,0,0,1,.28.75c.14.27.36.63.72.67.08-.13,0-.27-.05-.39,0-.37-.35-.57-.56-.84C32,33,32.21,31.84,31.81,31A3.14,3.14,0,0,0,31,29.92l.06-.06a9.39,9.39,0,0,1,2,.36c.81.41,2,.32,2.39,1.38a3.89,3.89,0,0,0,.84,1.61l.05,0a.66.66,0,0,0,0-.55c-.09-.75-.75-.93-1.09-1.56l.05-.06c.35.11.72.2,1.08.35a3.19,3.19,0,0,1,2.17,2.7A5.88,5.88,0,0,1,38,36.62c0,.12-.25.25-.12.36.16-.12.19-.32.28-.45a4.16,4.16,0,0,0,.49-3c0-.2-.24-.35-.13-.54a.44.44,0,0,0,.25.13c.09-.06.22-.06.28-.16s.07-.2,0-.27a.4.4,0,0,0-.43-.11.82.82,0,0,0-.18.33,3.13,3.13,0,0,0-.53-.79l0,0c.67.22,1.27.55,2,.73a1,1,0,0,0,.52.16,13.48,13.48,0,0,0,1.82.47c.45,0,.82.16,1.26.06v0h0c-.17-.21-.52,0-.71-.16a11.35,11.35,0,0,1-2.93-.74s.08,0,.12,0a.39.39,0,0,0,.24-.37.41.41,0,0,0-.34-.16.43.43,0,0,0-.23.25.37.37,0,0,0,.23.28s-.09,0-.14,0L38.39,32c-.16,0-.29-.17-.46-.2-.34-.16-.68-.33-1-.46a24.11,24.11,0,0,0-3-1.12L33.26,30c-.37-.11-.74-.2-1.11-.3a5.69,5.69,0,0,0-4,.34c-.18-.06-.29.23-.38.05a2.11,2.11,0,0,1,2-1.12c5.95-.06,11.53-.11,17.39-.2a1.87,1.87,0,0,0,1.7-.85A1.48,1.48,0,0,0,49,26.55ZM37,23.71l0,.49H35.44s-.06,0,0-.09c.53-.13,1-.45,1.52-.58ZM35.44,23a1.65,1.65,0,0,0,.27-.4c0-.15-.06-.21-.15-.31.1-.11.27-.08.4-.11a1.7,1.7,0,0,1,.83,1,10.12,10.12,0,0,1-1.81.67A5.05,5.05,0,0,1,35.44,23Zm-5.25-3.53a4.15,4.15,0,0,0,1.94,2c.48.39,1.07.85,1.71.51.34-.11.37.37.53.57.18.55-.22.94-.25,1.45a.57.57,0,0,1-.37.34,4,4,0,0,1-.68.19,15,15,0,0,0-5.46,3.07,1.62,1.62,0,0,0,.14-.63,1.24,1.24,0,0,0-.16-.66,1.09,1.09,0,0,1-.11-.39l1.86-1.18A1.9,1.9,0,0,0,30.15,23V18.1Zm-.32,3.63a1.77,1.77,0,0,1-.67,1.37l-3.9,2.48h0A.46.46,0,0,1,25,27a.49.49,0,0,1-.31-.11l-3.89-2.48a1.8,1.8,0,0,1-.67-1.37v-2a.07.07,0,0,0,.12,0c.39-.26.27-.83.27-1.21s-.24-.69-.37-1.09c0,0,0,0,0,0V15.34h1.61a1.31,1.31,0,0,0,.37.15l.11-.15h7.67ZM19.24,17.39a1.25,1.25,0,0,1,.5-.86.19.19,0,0,1,.08.11h0v1.63C19.68,18,19.09,17.76,19.24,17.39Zm2.85,9.87a28.44,28.44,0,0,0-4.93-3,8.72,8.72,0,0,1,.33-.88,2.61,2.61,0,0,0,.09-.69,3.14,3.14,0,0,0,.08-1,7.54,7.54,0,0,1,.46-1.39c.09-.22.17-.46.26-.68a2.34,2.34,0,0,1,.29-.78c.47.29.91.31,1.15.79V23a1.9,1.9,0,0,0,.81,1.73l1.61,1c0,.52-.31,1-.16,1.52Zm2.28,3.13a10.84,10.84,0,0,0-1.9-2.74c0-.13-.16-.25-.09-.4a1.1,1.1,0,0,0,.2-1.14c0-.07-.12-.16-.11-.24l-.12-.1,2.27,1.44a.46.46,0,0,0,.36.17.44.44,0,0,0,.32-.13l.78-.49c-.57.84.34,2.06-.37,2.85v.06c-.21.27-.31.54-.6.72-.35-.15-.49-.56-.69-.85a1.33,1.33,0,0,1-.14-1.39c.14-.44-.09-.81-.13-1.2L24,26.86a1.72,1.72,0,0,0-.21,1.75c.15.27.17.64.39.87a4.71,4.71,0,0,0,.64,1.1c.06.15-.09.18-.17.26C24.49,30.73,24.52,30.49,24.37,30.39Zm1,1.67a1.45,1.45,0,0,0-.17.52l-.06,0c.05-.22-.17-.35-.12-.59-.11-.18-.11-.41-.22-.6s.12-.35.22-.51c.21.09.29.28.43.46S25.35,31.82,25.37,32.06Zm-.09-1.43a5.07,5.07,0,0,0,1-2.19c.1-.07,0-.26.13-.35s.14-.48,0-.68c.09-.32-.43-.62-.1-.83l-.07,0,1-.6a2,2,0,0,0-.11,1.25c0,.27.26.59.06.83A13.15,13.15,0,0,0,25.62,31C25.44,31,25.35,30.79,25.28,30.63Z"/><path class="cls-1" d="M39.31,31.82s0,.08,0,.11a.42.42,0,0,0,.2-.05,3.05,3.05,0,0,0,2-.63c0-.07-.06-.09-.06-.13A2.27,2.27,0,0,0,39.31,31.82Z"/><path class="cls-1" d="M38.84,31.76a.33.33,0,0,0,.24-.4.28.28,0,0,0-.46-.09c0,.07-.15.13-.11.25A.43.43,0,0,0,38.84,31.76Z"/><path class="cls-1" d="M10.33,31.55c0,.09.09.21.2.23a.31.31,0,0,0,.27-.08.32.32,0,0,0,.07-.31c-.09-.14-.22-.12-.34-.12A.32.32,0,0,0,10.33,31.55Z"/><path class="cls-1" d="M8.21,32.46v-.1c-.56-.4-1-1-1.75-1-.09,0,0,.09,0,.13a2,2,0,0,1,.79.75A1.13,1.13,0,0,0,8.21,32.46Z"/><path class="cls-1" d="M43.51,31.36a2.73,2.73,0,0,0-1.32,1.42c.09.1.18-.05.28-.05.61-.22.91-.85,1.25-1.36A.5.5,0,0,0,43.51,31.36Z"/><path class="cls-1" d="M11.27,31.67c.07.09.13.18.25.17s.22-.12.21-.29a.31.31,0,0,0-.31-.16C11.34,31.46,11.21,31.52,11.27,31.67Z"/><path class="cls-1" d="M45.38,32.33c.14-.21.08-.49.21-.69l-.07-.09a2.13,2.13,0,0,0-1,1.15c-.08.14-.26.29-.18.44C44.83,33.06,45.09,32.67,45.38,32.33Z"/><path class="cls-1" d="M3.15,31.81a.28.28,0,0,0,.12.36.37.37,0,0,0,.34-.06.29.29,0,0,0,0-.33C3.51,31.6,3.24,31.67,3.15,31.81Z"/><path class="cls-1" d="M2.81,32.17c0-.08,0-.14,0-.21a.3.3,0,0,0-.36-.12.3.3,0,0,0-.15.31.3.3,0,0,0,.34.19A.33.33,0,0,0,2.81,32.17Z"/><path class="cls-1" d="M4,32.23c.12.11.24.26.45.17s.15-.23.12-.35a.41.41,0,0,0-.39-.12A.34.34,0,0,0,4,32.23Z"/><path class="cls-1" d="M6.67,32.12a.58.58,0,0,0-.21.17c-.09.1.08.17.11.26a.29.29,0,0,0,.28,0c.12,0,.09-.18.1-.28S6.76,32.17,6.67,32.12Z"/><path class="cls-1" d="M46.64,32.12c-.12.05-.25.14-.19.3a.38.38,0,0,0,.34.16c.12,0,.18-.13.22-.24S46.79,32.12,46.64,32.12Z"/><path class="cls-1" d="M43.91,32.18a.4.4,0,0,0-.25.27.36.36,0,0,0,.46.22c.06,0,.19-.13.18-.25A.4.4,0,0,0,43.91,32.18Z"/><path class="cls-1" d="M46,32.64a.31.31,0,0,0,.13-.25c0-.18-.3-.19-.43-.12s-.19.19-.06.31A.34.34,0,0,0,46,32.64Z"/><path class="cls-1" d="M3.23,32.64a.36.36,0,0,0-.36-.15.3.3,0,0,0-.15.32.36.36,0,0,0,.33.21A.32.32,0,0,0,3.23,32.64Z"/><path class="cls-1" d="M43.35,33.2a.35.35,0,0,0,.21-.39.29.29,0,0,0-.51,0c-.12.07,0,.24,0,.31S43.23,33.23,43.35,33.2Z"/><path class="cls-1" d="M11.05,33.26c0-.09.22-.12.16-.29s-.15-.24-.31-.19-.12.09-.19.15,0,.22.11.31A.21.21,0,0,0,11.05,33.26Z"/><path class="cls-1" d="M46.41,32.87c-.11,0-.12.1-.21.16s0,.26.13.33a.38.38,0,0,0,.34-.06c0-.07.11-.12.08-.22A.35.35,0,0,0,46.41,32.87Z"/><path class="cls-1" d="M45.44,33.5c0-.09.11,0,.16-.06s.29-.14.23-.32a.52.52,0,0,0-.23-.21c-.11,0-.17.06-.26.08-.25.18.16.33,0,.54-.27,0-.63-.06-.82.13.12.1.3.1.4.18a2,2,0,0,0,1.47.57v-.12A3.67,3.67,0,0,0,45.44,33.5Z"/><path class="cls-1" d="M39.21,33.09c-.05.15.07.24.15.35a.29.29,0,0,0,.32-.06c0-.08.11-.17.08-.24A.31.31,0,0,0,39.21,33.09Z"/><path class="cls-1" d="M6.58,33.66c0-.22-.28-.31-.44-.18s-.09.14-.08.24a.31.31,0,0,0,.27.18A.29.29,0,0,0,6.58,33.66Z"/><path class="cls-1" d="M6.55,34.56c-.06.13-.31.3-.25.43a1.52,1.52,0,0,0,1.19-1c.07-.21.29-.33.29-.53H7.69A3.06,3.06,0,0,0,6.55,34.56Z"/><path class="cls-1" d="M38.85,33.54c-.06.12-.13.24,0,.36s.18.16.31.12.27-.18.25-.35S39,33.36,38.85,33.54Z"/><path class="cls-1" d="M39.91,34.08s.12,0,.15,0a.38.38,0,0,0,.26-.33c0-.18-.26-.19-.4-.18s-.13.13-.21.21A.33.33,0,0,0,39.91,34.08Z"/><path class="cls-1" d="M10.08,33.76c-.1-.09-.15-.22-.32-.16s-.21.16-.18.3a.31.31,0,0,0,.28.18A.32.32,0,0,0,10.08,33.76Z"/><path class="cls-1" d="M10.56,33.9c0,.12.16.15.26.18a.37.37,0,0,0,.29-.26.32.32,0,0,0-.35-.22C10.66,33.67,10.54,33.75,10.56,33.9Z"/><path class="cls-1" d="M43.51,34.87a2.93,2.93,0,0,0-.84-1.09c-.12-.05-.27-.21-.4-.08A2.94,2.94,0,0,0,43,34.9c.22.05.41.31.65.21C43.72,35,43.59,34.93,43.51,34.87Z"/><path class="cls-1" d="M43.78,33.7c-.1,0-.24.08-.28.2s0,.25.12.34.32.06.41-.09a.35.35,0,0,0,0-.33C44,33.78,43.88,33.69,43.78,33.7Z"/><path class="cls-1" d="M12.47,34.21c-.09-.07-.16-.13-.28-.1s-.25.12-.18.3a.3.3,0,0,0,.36.18C12.52,34.51,12.49,34.33,12.47,34.21Z"/><path class="cls-1" d="M40.66,36.25a2.19,2.19,0,0,0-.38-1.07l-.42-.44c-.15-.05-.25-.32-.4-.18a.13.13,0,0,0,.06.15,3.33,3.33,0,0,0,1.07,1.82h.06C40.74,36.45,40.62,36.35,40.66,36.25Z"/><path class="cls-1" d="M14.42,34.71s0,0,0,0l-.71-.12a3.15,3.15,0,0,0-1.31.28.11.11,0,0,0-.07.14A2,2,0,0,0,14.42,34.71Z"/><path class="cls-1" d="M11,34.63A2.2,2.2,0,0,0,9.09,36c.15.09.22-.08.34-.12.62-.15,1.08-.76,1.59-1.08Z"/><path class="cls-1" d="M39.09,35.27c-.07,0-.18.06-.22.17s0,.24.13.3a.21.21,0,0,0,.28,0,.24.24,0,0,0,.12-.32C39.33,35.3,39.22,35.3,39.09,35.27Z"/><path class="cls-1" d="M37.64,35.89a.84.84,0,0,0,.53-.39.15.15,0,0,0-.19,0,3.25,3.25,0,0,0-1.52.08c-.07.07-.22,0-.23.15A2.25,2.25,0,0,0,37.64,35.89Z"/><path class="cls-1" d="M11,35.93a.31.31,0,0,0-.3-.25c-.09,0-.21.06-.24.16s0,.18.06.27a.3.3,0,0,0,.3.06C11,36.13,11,36,11,35.93Z"/><path class="cls-1" d="M11.69,36.35a.54.54,0,0,0,.2-.28c-.06-.12-.19-.27-.34-.26s-.18.06-.21.14a.36.36,0,0,0,.05.3A.34.34,0,0,0,11.69,36.35Z"/><path class="cls-1" d="M38.62,36.05c0,.11-.2.18-.11.3s.08.19.18.21A.26.26,0,0,0,39,36.5a.42.42,0,0,0,.1-.28A.32.32,0,0,0,38.62,36.05Z"/><path class="cls-1" d="M39.48,36.07a.28.28,0,0,0-.18.4s.09.15.18.12.23-.12.32-.2,0-.13,0-.2S39.61,36,39.48,36.07Z"/><path class="cls-1" d="M11.21,37a.4.4,0,0,0,.15-.4.37.37,0,0,0-.4-.2.4.4,0,0,0-.18.44C10.84,37.05,11.05,37.05,11.21,37Z"/><path class="cls-1" d="M11,37.77v.07c.24.15.47-.07.71-.12a1.31,1.31,0,0,0,.53-1.16A15.8,15.8,0,0,0,11,37.77Z"/><path class="cls-1" d="M36.46,36.69a.32.32,0,0,0-.19.17.23.23,0,0,0,.08.3c.1,0,.26.09.35,0s.15-.15.09-.24A.42.42,0,0,0,36.46,36.69Z"/><path class="cls-1" d="M13.61,37.4a3.37,3.37,0,0,0-.56-.63.07.07,0,0,0-.1,0,4.42,4.42,0,0,0,.43,1.57c.16.15.26.43.52.4-.12-.37,0-.84-.21-1.18C13.7,37.5,13.58,37.5,13.61,37.4Z"/><path class="cls-1" d="M37.19,36.84c-.07.08-.19.12-.15.27a.56.56,0,0,0,.29.14c.07-.08.2-.11.2-.23A.25.25,0,0,0,37.19,36.84Z"/><path class="cls-1" d="M38.44,37l-.09,0a1.77,1.77,0,0,0,.8,1.42h.06c.07,0,.09-.06.09-.11A1.9,1.9,0,0,0,38.44,37Z"/><path class="cls-1" d="M38.05,38.16a.37.37,0,0,0,.14-.29.3.3,0,0,0-.36-.2c-.07.07-.24.14-.22.29S37.89,38.2,38.05,38.16Z"/><path class="cls-1" d="M36,39.22c0,.06-.05.18,0,.22.38-.42,1-.7,1.16-1.25-.05-.12.19-.29-.05-.32A2.08,2.08,0,0,0,36,39.22Z"/><path class="cls-1" d="M38,38.47c-.09.08-.21.12-.2.27a.47.47,0,0,0,.33.17c.08-.08.21-.14.21-.27A.31.31,0,0,0,38,38.47Z"/><path class="cls-1" d="M22.88,12.24h4.4a.37.37,0,0,0,.37-.37.38.38,0,0,0-.37-.37h-4.4a.38.38,0,0,0-.37.37A.37.37,0,0,0,22.88,12.24Zm4.25-.62h.17c.31,0,.29.52,0,.52S26.7,11.62,27.13,11.62Zm-1.8,0h.43c.23,0,.64.52.21.52h-.43C25.31,12.14,24.9,11.62,25.33,11.62Zm-1.8,0H24c.23,0,.64.52.21.52h-.43C23.51,12.14,23.1,11.62,23.53,11.62Z"/><path class="cls-1" d="M27.76,18.39c.2,0,.46.13.46-.06s-.26-.18-.46-.18-.45-.1-.45.18S27.57,18.39,27.76,18.39Z"/><path class="cls-1" d="M27.23,19l-.34,1.33.84-.32.83.32L28.31,19l.58.15-.23-.71.23-.75-.66.13.33-1.24-.83.33-.84-.33.32,1.24-.65-.1.18.72-.18.75Zm.5-1.15c.2.48.61,0,.61.48,0,.23,0,.49-.21.49h-.67c-.3,0-.3-.2-.3-.5S27.58,18.23,27.73,17.82Z"/><polygon class="cls-1" points="25.22 18.07 25.29 17.95 25.14 17.96 25.06 17.81 24.97 17.96 24.83 17.95 24.89 18.07 24.78 18.19 24.93 18.22 24.93 18.37 25.06 18.27 25.19 18.37 25.19 18.22 25.33 18.19 25.22 18.07"/><polygon class="cls-1" points="24.27 19.06 24.27 19.21 24.41 19.11 24.54 19.21 24.54 19.06 24.68 19.03 24.57 18.91 24.64 18.79 24.49 18.8 24.41 18.65 24.32 18.8 24.17 18.79 24.24 18.91 24.13 19.03 24.27 19.06"/><polygon class="cls-1" points="25.35 18.81 25.24 18.92 25.38 18.95 25.38 19.11 25.51 19.01 25.65 19.11 25.65 18.95 25.79 18.92 25.68 18.81 25.74 18.68 25.6 18.7 25.51 18.54 25.43 18.7 25.28 18.68 25.35 18.81"/><polygon class="cls-1" points="25.72 19.49 25.63 19.5 25.59 19.42 25.54 19.5 25.45 19.49 25.49 19.57 25.43 19.63 25.51 19.65 25.51 19.73 25.59 19.68 25.66 19.73 25.66 19.65 25.74 19.63 25.68 19.57 25.72 19.49"/><polygon class="cls-1" points="25.11 19.73 24.86 19.75 24.71 19.49 24.56 19.75 24.31 19.73 24.43 19.94 24.24 20.14 24.48 20.18 24.48 20.45 24.71 20.28 24.94 20.45 24.94 20.18 25.18 20.14 24.99 19.94 25.11 19.73"/><polygon class="cls-1" points="24.06 9.49 23.98 10.88 25 9.95 26.03 10.88 25.95 9.49 27.31 9.26 26.18 8.46 26.85 7.25 25.53 7.64 25 6.36 24.48 7.64 23.16 7.25 23.83 8.46 22.7 9.26 24.06 9.49"/><path class="cls-1" d="M18.5,35.83l.19.82c.07.27.16.34.31.4a1,1,0,0,0,.64,0,.92.92,0,0,0,.53-.32.65.65,0,0,0,0-.51L20,35.44c0-.16,0-.21.18-.26l0-.07-.64.16v.06c.26,0,.31,0,.35.18l.17.75a.47.47,0,0,1-.39.66.41.41,0,0,1-.54-.38l-.2-.82c-.05-.22,0-.25.24-.3l0-.06-1,.24v.06C18.37,35.63,18.45,35.62,18.5,35.83Z"/><path class="cls-1" d="M21.09,36l.21,0c.21,0,.36.06.4.23s.05.28-.31.36a.63.63,0,0,1-.72-.4l-.09,0,.14.61.08,0s0-.09.07-.1a3,3,0,0,0,.53,0c.54-.12.66-.46.62-.68a.53.53,0,0,0-.43-.38l-.47-.09c-.27,0-.34-.09-.37-.22s.11-.27.26-.31a.63.63,0,0,1,.68.33l.09,0-.12-.54-.09,0c0,.05,0,.09-.08.11a3.07,3.07,0,0,0-.48,0c-.56.13-.58.48-.54.63S20.54,35.89,21.09,36Z"/><path class="cls-1" d="M22.17,35.25c0-.41.33-.45.54-.48l.13,1.33c0,.21-.05.22-.27.26v.06l1.08-.1v-.06c-.22,0-.29,0-.31-.21l-.13-1.33c.21,0,.52,0,.62.37h.09l-.06-.51L22,34.75l0,.51Z"/><path class="cls-1" d="M25.11,36.23c-.2,0-.27,0-.27-.23v-.5h.09l.61.81h.56l.61.07v-.06c-.1,0-.25,0-.23-.14a1.24,1.24,0,0,1,.17-.31l.67.09a1,1,0,0,1,.1.35c0,.08-.06.08-.25.07v.06l1,.12v-.06c-.14,0-.18-.1-.28-.39l-.51-1.41h-.08L26.45,36c-.11.17-.17.25-.32.25a.08.08,0,0,1-.08,0l-.6-.73c.17,0,.48-.11.48-.43s-.63-.46-.84-.46l-1,0v.06c.17,0,.26,0,.26.24l0,1.13c0,.2-.06.21-.27.23v.06l1,0Zm2-1,.23.65-.58-.07Zm-2.21-.44c0-.08,0-.11.19-.1s.36.11.36.37-.17.38-.56.38Z"/><path class="cls-1" d="M30.14,36.39l-.09,0a.72.72,0,0,1-.84.35c-.2,0-.26-.06-.24-.18l.21-1.18c0-.22.14-.21.35-.18v-.06l-1-.19V35c.13,0,.25.06.22.22l-.22,1.21c0,.16-.12.15-.29.13v.07l1.72.31Z"/><path class="cls-1" d="M30,37l1,.22v-.06c-.16-.05-.28-.08-.25-.24l.25-1.2c0-.17.18-.14.32-.12v-.06l-1-.22,0,.06c.14,0,.28.07.24.24l-.25,1.2c0,.15-.15.14-.31.12Z"/><path class="cls-1" d="M31.12,37.18v.07l.61.06v-.06c-.1,0-.25,0-.24-.14a2.26,2.26,0,0,1,.17-.31l.68.07a1.34,1.34,0,0,1,.1.35c0,.08-.06.08-.25.07v.07l1,.1v-.07c-.15,0-.19-.1-.3-.38l-.53-1.4h-.09l-.81,1.32C31.34,37.1,31.28,37.18,31.12,37.18Zm.94-1.06.24.65-.58-.06Z"/><path class="cls-1" d="M24.48,17.47a.07.07,0,0,0,.08.08h.65a.08.08,0,0,0,.08-.08v-.2a.38.38,0,0,0,.13-.31c0-.61-.34,0-.53-.55-.14.44-.55.07-.55.54a.37.37,0,0,0,.14.34Zm.38-.71c.17,0,.45-.07.45.23s-.24.09-.42.09-.41.12-.41-.09S24.68,16.76,24.86,16.76Z"/><path class="cls-1" d="M30.73,24.45a.25.25,0,1,0,0-.49.25.25,0,1,0,0,.49Z"/><path class="cls-1" d="M29.42,15.82a.13.13,0,0,0,.13-.14l-.13-.27a1.71,1.71,0,0,0-.13.27A.13.13,0,0,0,29.42,15.82Z"/><path class="cls-1" d="M20.32,15.68a.14.14,0,0,0,.14.14.13.13,0,0,0,.13-.14l-.14-.27A1.71,1.71,0,0,0,20.32,15.68Z"/><path class="cls-1" d="M22.7,15.82a.13.13,0,0,0,.13-.14l-.13-.27a1.67,1.67,0,0,0-.14.27A.14.14,0,0,0,22.7,15.82Z"/><path class="cls-1" d="M24.94,15.82a.13.13,0,0,0,.13-.14l-.13-.27a1.67,1.67,0,0,0-.14.27A.14.14,0,0,0,24.94,15.82Z"/><path class="cls-1" d="M27.18,15.82a.13.13,0,0,0,.13-.14l-.13-.27a1.67,1.67,0,0,0-.14.27A.14.14,0,0,0,27.18,15.82Z"/><path class="cls-1" d="M20.32,18.75a.14.14,0,1,0,.27,0,1.56,1.56,0,0,0-.13-.26Z"/><path class="cls-1" d="M20.32,21.74a.14.14,0,1,0,.27,0,1.56,1.56,0,0,0-.13-.26Z"/><path class="cls-1" d="M20.68,24.11a.14.14,0,0,0,.14.14.13.13,0,0,0,.13-.14,1.56,1.56,0,0,0-.13-.26Z"/><path class="cls-1" d="M22.56,25.37a.14.14,0,0,0,.14.14.13.13,0,0,0,.13-.14,1.37,1.37,0,0,0-.13-.27S22.56,25.36,22.56,25.37Z"/><path class="cls-1" d="M29.4,18.75a.14.14,0,1,0,.27,0l-.14-.26A1.56,1.56,0,0,0,29.4,18.75Z"/><path class="cls-1" d="M29.4,21.74a.14.14,0,1,0,.27,0l-.14-.26A1.56,1.56,0,0,0,29.4,21.74Z"/><path class="cls-1" d="M29,24.11a.13.13,0,0,0,.13.14.14.14,0,0,0,.14-.14l-.14-.26A1.56,1.56,0,0,0,29,24.11Z"/><path class="cls-1" d="M27.16,25.37a.13.13,0,0,0,.13.14.14.14,0,0,0,.14-.14s-.14-.27-.14-.27A1.37,1.37,0,0,0,27.16,25.37Z"/><path class="cls-1" d="M24.87,26.7a.14.14,0,0,0,.14.14.13.13,0,0,0,.13-.14L25,26.44A1.52,1.52,0,0,0,24.87,26.7Z"/><path class="cls-1" d="M27.09,22.9c-.13.26-.13.61-.43.75a.25.25,0,0,0-.08.23l.07.06c.18-.1.53-.13.51-.44a1.18,1.18,0,0,1,.26-.37.3.3,0,0,1,.33.15.54.54,0,0,1-.38.43s0,.07,0,.11.22.06.3.05c.24-.16.34-.44.55-.53,0,.14-.28.18-.08.33.12,0,.29,0,.38-.16-.1-.24.33-.35.07-.57,0-.21.22-.3.21-.52s-.36-.23-.43-.44a.29.29,0,0,1,.3,0s.1.05.19,0l.08-.24s-.09-.11-.16-.1c-.24.06-.49.09-.63.32a.48.48,0,0,0,.22.37c.09,0,.1,0,.16.1a.1.1,0,0,1-.1.12c-.17-.17-.46.06-.59-.15.06-.22.17-.46,0-.66,0,0,.08-.08,0-.12-.07-.2-.28-.05-.41-.05a.57.57,0,0,0-.51.26.43.43,0,0,0,.11.21c.06,0,.09,0,.1.06L27,22.2a.44.44,0,0,1,.06.16c-.1,0-.2-.1-.24-.17s0-.31-.14-.34l-.13,0a.45.45,0,0,0-.05.24,1,1,0,0,0,.05.25A2.41,2.41,0,0,1,27.09,22.9Z"/><path class="cls-1" d="M18.35,24.07a.25.25,0,1,0,0,.49.25.25,0,1,0,0-.49Z"/><path class="cls-1" d="M3.55,32.79a.28.28,0,0,0,.55,0,.28.28,0,0,0-.55,0Z"/><path class="cls-1" d="M16.53,37.55v.07l.61-.08v-.06c-.1,0-.25,0-.26-.08a1.49,1.49,0,0,1,.1-.34l.67-.08a1.5,1.5,0,0,1,.18.32c0,.09,0,.09-.23.13v.06l1-.11v-.06c-.15,0-.21-.06-.37-.32l-.83-1.25H17.3l-.51,1.46C16.72,37.42,16.69,37.51,16.53,37.55Zm.69-1.24.38.58L17,37Z"/><path class="cls-1" d="M18.21,34.8c-.26,0-.49.15-.74.07L17,35a.43.43,0,0,1-.16,0c-.24-.62.47-1,.25-1.59a1.09,1.09,0,0,0-1-.61,1.24,1.24,0,0,0-1.19.61c-.34.75.09,1.53.22,2.26,0,.24.24.51,0,.7A2,2,0,0,0,13.41,36c-.18.09-.51,0-.6.18a4.31,4.31,0,0,0,2.17.26c.09,0,.15,0,.22,0,.06.39-.07.91.17,1.25a1.53,1.53,0,0,0,1.14.5,18.43,18.43,0,0,0,3.83-.76,4.71,4.71,0,0,1,.54-.12A11.29,11.29,0,0,1,23,37.05a3.7,3.7,0,0,0-.62,1.35c-.18.4.31.46.46.68a12.75,12.75,0,0,0-1.22.63,16.16,16.16,0,0,0-2.64.44c0,.19.31.13.34.32s-.18.15-.28.23,0,.1.09.12.28,0,.37-.14c.3,0,.55-.09.83-.1a3.08,3.08,0,0,0,.76-.3c.31-.09.5-.3.81-.39s.85-.15,1.26-.18v.09c-.34.56-.69,1.12-1,1.65a.17.17,0,0,0,.1.24.77.77,0,0,0,.58-.09,16.46,16.46,0,0,0,.85-1.6,2.08,2.08,0,0,1,.85-1.12c.05,0,.14-.12.2,0a7.09,7.09,0,0,0-.71,1,1.26,1.26,0,0,0,.22,1.3c.18.15.45.11.69.12.57-.3,1.32.18,1.76-.39.27,0,.31.27.46.42s.52.33.77.15c0-.16-.19-.31-.28-.46-.18-.32-.4-.57-.56-.85a2.7,2.7,0,0,1-.24-.56,5.13,5.13,0,0,0,.8.32,4.35,4.35,0,0,1,.8.24,2.83,2.83,0,0,0,.74.56c.37.18.79.21,1.18.36.15,0,.37.14.47,0a.6.6,0,0,0-.22-.16c0-.2.27-.09.37-.24a.22.22,0,0,0-.17-.11c-.22-.12-.74-.16-.88-.23a3.16,3.16,0,0,1-.52-.17c-.89,0-1.38-.81-2.1-1.11.17-.14.42-.26.52-.49a.82.82,0,0,0,0-.79c-.13-.46-.73-.4-1.07-.66l0,0a6,6,0,0,1,1.6.21,36.28,36.28,0,0,0,4.23.76c.81,0,1.84,0,2.24-.75.07-.46.16-.93.23-1.39a7,7,0,0,0,.6-2.26,1.57,1.57,0,0,0-1-.92,1.28,1.28,0,0,0-1.29.33c-.54.43-.17,1.15-.15,1.73,0,.12,0,.21-.1.27-2.16-.19-4.16-.73-6.3-1-.49-.08-1-.06-1.45-.16l-.59-.06a25.08,25.08,0,0,0-5.45.61C19,34.63,18.58,34.66,18.21,34.8Zm1.47,5.69-.2-.19c.1-.14.32-.06.48-.15A2.61,2.61,0,0,1,21.23,40,3.61,3.61,0,0,1,19.68,40.49ZM29,40.25a6.42,6.42,0,0,0,1.58.38c-.05.2-.41,0-.37.29a3.54,3.54,0,0,1-1.33-.62S28.89,40.24,29,40.25ZM15,33.9a1.13,1.13,0,0,1,.36-.75,1.24,1.24,0,0,1,1.17.05.56.56,0,0,1,.24.28.69.69,0,0,1-.22.67h-.15a1.6,1.6,0,0,1,.09-.67c0-.18-.17-.19-.28-.27a.9.9,0,0,0-.67.15.67.67,0,0,0-.19.66c.1.16,0,.39.07.57l0,.06C15.22,34.45,15,34.24,15,33.9Zm1.5.56a.54.54,0,0,1-.07.51c-.25-.06-.58,0-.71-.27,0-.1-.05-.25,0-.37C15.94,34.49,16.25,34.42,16.52,34.46Zm-.84-.64c0-.12,0-.29.16-.32s.27,0,.28.09a3.09,3.09,0,0,1-.07.52A.35.35,0,0,1,15.68,33.82Zm7,4.8a1.63,1.63,0,0,1,.48-1.34.83.83,0,0,1,.64,0c-.39.1-.88.19-1,.68,0,.2,0,.3,0,.47s.53.16.74.39a.18.18,0,0,1-.13.17A4.35,4.35,0,0,1,22.63,38.62Zm-.53,1c.36-.15.73-.46,1.13-.33A2,2,0,0,1,22.1,39.65Zm1.41.15a11.12,11.12,0,0,1-.73,1.41c0,.07-.15.09-.23.1,0-.21.2-.37.29-.55.31-.4.4-.84.76-1.23C23.69,39.62,23.51,39.68,23.51,39.8ZM23,38.35c-.15-.15,0-.31,0-.48a.76.76,0,0,1,1.08-.19,1.6,1.6,0,0,1-.37.85A3.21,3.21,0,0,1,23,38.35Zm.84.59V39h0v-.07h.06a.08.08,0,0,0-.06,0Zm.19-.41a3,3,0,0,1,.24-.63A1.14,1.14,0,0,1,24.07,38.53Zm.17-1.21c-.19,0-.3-.27-.51-.27a1.21,1.21,0,0,1,.57,0C24.37,37.14,24.25,37.23,24.24,37.32Zm.18.45h0v-.16h0Zm0,.69a.58.58,0,0,1,.05-.21c.07-.08.14.06.17.1A.22.22,0,0,1,24.43,38.46Zm.22-.93a1.6,1.6,0,0,1,.23-.55.89.89,0,0,1,.4.06c0,.3.4.7,0,1-.14.06-.33.2-.48.06A.42.42,0,0,1,24.65,37.53Zm1.09-.42c0-.13.13,0,.19-.09l.46,0C26.15,37,25.86,37.58,25.74,37.11Zm.74.2c-.18.06-.31.27-.49.31A.6.6,0,0,1,26.48,37.31Zm-.62.92v.05h0v-.05Zm0,.91s0,.08,0,.11L25.51,39A.37.37,0,0,1,25.89,39.14Zm-.41-.46a.12.12,0,0,1,.14,0Zm-.2-.22c.06-.09.13-.23.23-.23s0,0,0,.05A.87.87,0,0,1,25.28,38.46Zm-.34,0h-.06l.09-.09S25,38.4,24.94,38.43ZM25,39c.19-.2.37.12.45.29.22.33.8.63.57,1.08-.28.25-.72,0-1,.2-.17,0-.45,0-.54-.13A8.25,8.25,0,0,1,25,39Zm-.42.29.08-.12a6.92,6.92,0,0,1-.49,1.08C24.06,39.88,24.43,39.59,24.56,39.28Zm.66,1.78c-.28,0-.71.18-1-.06,0-.12-.12-.18-.11-.3.24-.09.45.19.67,0a7.23,7.23,0,0,1,1,0c.16,0,.42-.27.45,0C26.17,41.25,25.57,40.91,25.22,41.06Zm.86-2.15v0h0v0Zm.09.94c0,.15.16.21.07.34A.43.43,0,0,1,26.17,39.85Zm.41.89-.07,0c-.08-.06-.05-.22,0-.31C26.57,40.53,26.64,40.64,26.58,40.74Zm.74.36s-.08,0-.11,0a7.73,7.73,0,0,1-.94-1.8h.06C26.69,39.89,27,40.53,27.32,41.1Zm.55-1.37s0,0,0,.06a1.67,1.67,0,0,1-1-.47l0-.07A2.68,2.68,0,0,1,27.87,39.73Zm-.38-2c.18,0,.19.24.21.39a.81.81,0,0,1-.51.73.78.78,0,0,1-.58.06.94.94,0,0,0,.89-.51Zm-.33-.06a.94.94,0,0,1,.13.66c-.14.28-.44.28-.71.34a.46.46,0,0,1-.34-.1.13.13,0,0,0-.06-.15c.05-.2-.34-.39-.07-.56S26.91,37.14,27.16,37.68Zm6.69-4.63a1,1,0,0,1,.86,0,.63.63,0,0,1,.49.31c.23.21.17.58.12.85a.83.83,0,0,1-.64.51c0-.36.35-.61.23-1a.9.9,0,0,0-.94-.29c-.13.09-.07.23-.12.37l-.06.49c-.29,0-.31-.27-.4-.48A.87.87,0,0,1,33.85,33.05Zm.27,1.34c.16-.16,0-1.1.42-.49,0,.12,0,.3-.11.39S34.24,34.47,34.12,34.39Zm.16.38c0,.24-.2.18-.32.27H33.6a.86.86,0,0,1,0-.42A2.57,2.57,0,0,1,34.28,34.77Zm-11.44-.48a21.9,21.9,0,0,1,4,.13c.42,0,.77.12,1.17.15.83.11,1.6.33,2.45.39a3,3,0,0,0,.45.08c1.33.2,2.83.58,4.11,0a11.78,11.78,0,0,1-.3,1.55c-.12.15,0,.39-.16.52s-.23.41-.42.51c-1.77.39-3.5-.21-5.21-.51A18.24,18.24,0,0,0,21.3,37c-1.14.21-2.26.48-3.35.79a4.86,4.86,0,0,1-2.08,0c-.53-.25-.31-.94-.48-1.42a8.77,8.77,0,0,0-.11-1,.76.76,0,0,1-.06-.39c.22,0,.44.19.68.25a9.22,9.22,0,0,0,3.52-.37A25.38,25.38,0,0,1,22.84,34.29Z"/></svg>