<?xml version="1.0" encoding="UTF-8"?>
<svg width="86px" height="86px" viewBox="0 0 86 86" version="1.1" xmlns="http://www.w3.org/2000/svg" xmlns:xlink="http://www.w3.org/1999/xlink">
    <!-- Generator: Sketch 43.2 (39069) - http://www.bohemiancoding.com/sketch -->
    <title>conditions-diseases-inverted</title>
    <desc>Created with Sketch.</desc>
    <defs></defs>
    <g id="Page-1" stroke="none" stroke-width="1" fill="none" fill-rule="evenodd">
        <g id="conditions-diseases-inverted" transform="translate(2.000000, 1.000000)" stroke="#FFFFFF" stroke-width="2.6666666">
            <path d="M19.9999755,77 L25.3333087,77" id="path5656" transform="translate(22.666642, 78.333333) scale(-1, 1) rotate(-180.000000) translate(-22.666642, -78.333333) "></path>
            <path d="M15.9999756,5 L13.333309,5" id="path5660" transform="translate(14.666642, 6.333333) scale(-1, 1) rotate(-180.000000) translate(-14.666642, -6.333333) "></path>
            <path d="M18.6666422,5 L31.9999752,5" id="path5664" transform="translate(25.333309, 6.333333) scale(-1, 1) rotate(-180.000000) translate(-25.333309, -6.333333) "></path>
            <path d="M-2.39999999e-05,10 L45.3333082,10" id="path5668" transform="translate(22.666642, 11.333333) scale(-1, 1) rotate(-180.000000) translate(-22.666642, -11.333333) "></path>
            <path d="M-2.39999999e-05,71 L45.3333082,71" id="path5672" transform="translate(22.666642, 72.333333) scale(-1, 1) rotate(-180.000000) translate(-22.666642, -72.333333) "></path>
            <path d="M45.3333082,15.3333713 L45.3333082,4.6667049 C45.3333082,2.46670496 43.5333082,0.666705 41.3333083,0.666705 L3.9999759,0.666705 C1.79997596,0.666705 -2.39999999e-05,2.46670496 -2.39999999e-05,4.6667049 L-2.39999999e-05,79.3333697 C-2.39999999e-05,81.5333696 1.79997596,83.3333696 3.9999759,83.3333696 L41.3333083,83.3333696 C43.5333082,83.3333696 45.3333082,81.5333696 45.3333082,79.3333697 L45.3333082,23.3333711" id="path5676" transform="translate(22.666642, 42.000037) scale(-1, 1) rotate(-180.000000) translate(-22.666642, -42.000037) "></path>
            <path d="M77.3333074,40.6667037 C80.2786407,40.6667037 82.6666406,38.2787038 82.6666406,35.3333705 L82.6666406,27.3333707 C82.6666406,15.333371 66.666641,4.6667046 66.666641,4.6667046 C66.666641,4.6667046 50.6666414,15.333371 50.6666414,27.3333707 L50.6666414,35.3333705 C50.6666414,38.2787038 53.0546413,40.6667037 55.9999746,40.6667037" id="path5680" stroke-linejoin="round" transform="translate(66.666641, 22.666704) scale(-1, 1) rotate(-180.000000) translate(-66.666641, -22.666704) "></path>
            <path d="M61.3333078,2.0000371 C61.3333078,1.26270379 60.7373078,0.6667038 59.9999745,0.6667038 L57.3333079,0.6667038 C56.5959746,0.6667038 55.9999746,1.26270379 55.9999746,2.0000371 L55.9999746,7.3333703 C55.9999746,8.07070361 56.5959746,8.6667036 57.3333079,8.6667036 L59.9999745,8.6667036 C60.7373078,8.6667036 61.3333078,8.07070361 61.3333078,7.3333703 L61.3333078,2.0000371 Z" id="path5684" stroke-linejoin="round" transform="translate(58.666641, 4.666704) scale(-1, 1) rotate(-180.000000) translate(-58.666641, -4.666704) "></path>
            <path d="M77.3333074,2.0000371 C77.3333074,1.26270379 76.7373074,0.6667038 75.9999741,0.6667038 L73.3333075,0.6667038 C72.5959742,0.6667038 71.9999742,1.26270379 71.9999742,2.0000371 L71.9999742,7.3333703 C71.9999742,8.07070361 72.5959742,8.6667036 73.3333075,8.6667036 L75.9999741,8.6667036 C76.7373074,8.6667036 77.3333074,8.07070361 77.3333074,7.3333703 L77.3333074,2.0000371 Z" id="path5688" stroke-linejoin="round" transform="translate(74.666641, 4.666704) scale(-1, 1) rotate(-180.000000) translate(-74.666641, -4.666704) "></path>
            <path d="M82.6666406,30.0000367 C82.6666406,23.3720369 75.5026408,18.000037 66.666641,18.000037 C57.8306412,18.000037 50.6666414,23.3720369 50.6666414,30.0000367" id="path5692" stroke-linejoin="round" transform="translate(66.666641, 24.000037) scale(-1, 1) rotate(-180.000000) translate(-66.666641, -24.000037) "></path>
            <path d="M30.6666419,27.3333696 C30.6666419,22.9160364 27.0839753,19.3333698 22.6666421,19.3333698 C18.2493089,19.3333698 14.6666423,22.9160364 14.6666423,27.3333696 C14.6666423,31.7507028 18.2493089,35.3333694 22.6666421,35.3333694 C27.0839753,35.3333694 30.6666419,31.7507028 30.6666419,27.3333696 Z" id="path5696" stroke-linejoin="round" transform="translate(22.666642, 27.333370) scale(-1, 1) rotate(-180.000000) translate(-22.666642, -27.333370) "></path>
            <path d="M23.9999754,27.3333696 C23.9999754,26.5960363 23.4039754,26.0000363 22.6666421,26.0000363 C21.9293088,26.0000363 21.3333088,26.5960363 21.3333088,27.3333696 C21.3333088,28.0707029 21.9293088,28.6667029 22.6666421,28.6667029 C23.4039754,28.6667029 23.9999754,28.0707029 23.9999754,27.3333696 Z" id="path5700" stroke-linejoin="round" transform="translate(22.666642, 27.333370) scale(-1, 1) rotate(-180.000000) translate(-22.666642, -27.333370) "></path>
            <path d="M66.666641,78.0000366 L66.666641,43.3333708 C66.666641,41.1253709 64.874641,39.3333709 62.6666411,39.3333709 C60.4586412,39.3333709 58.6666412,41.1253709 58.6666412,43.3333708 L58.6666412,66.0000369 C58.6666412,68.2080368 56.8746412,70.0000368 54.6666413,70.0000368 C52.4586414,70.0000368 50.6666414,68.2080368 50.6666414,66.0000369 L50.6666414,58.0000371 C50.6666414,55.7920372 48.8746414,54.0000372 46.6666415,54.0000372 L11.9999757,54.0000372 C9.79197576,54.0000372 7.9999758,55.7920372 7.9999758,58.0000371 C7.9999758,60.208037 9.79197576,62.000037 11.9999757,62.000037 L33.3333085,62.000037 C35.5413084,62.000037 37.3333084,63.792037 37.3333084,66.0000369 C37.3333084,68.2080368 35.5413084,70.0000368 33.3333085,70.0000368 L26.666642,70.0000368 C24.4586421,70.0000368 22.6666421,71.7920368 22.6666421,74.0000367 L22.6666421,79.3333699" id="path5704" stroke-linejoin="round" transform="translate(37.333308, 59.333370) scale(-1, 1) rotate(-180.000000) translate(-37.333308, -59.333370) "></path>
        </g>
    </g>
</svg>