<?xml version="1.0" encoding="UTF-8"?>
<svg width="86px" height="86px" viewBox="0 0 86 86" version="1.1" xmlns="http://www.w3.org/2000/svg" xmlns:xlink="http://www.w3.org/1999/xlink">
    <!-- Generator: Sketch 43.2 (39069) - http://www.bohemiancoding.com/sketch -->
    <title>conditions-diseases</title>
    <desc>Created with Sketch.</desc>
    <g id="Page-1" stroke="none" stroke-width="1" fill="none" fill-rule="evenodd">
        <g id="conditions-diseases" transform="translate(2.000000, 1.000000)" stroke="#222829" stroke-width="2.6666666">
            <path d="M19.9999755,76.6667025 L25.3333087,76.6667025" id="path5656" transform="translate(22.666642, 77.333369) scale(-1, 1) rotate(-180.000000) translate(-22.666642, -77.333369) "></path>
            <path d="M15.9999756,4.6667043 L13.333309,4.6667043" id="path5660" transform="translate(14.666642, 5.333371) scale(-1, 1) rotate(-180.000000) translate(-14.666642, -5.333371) "></path>
            <path d="M18.6666422,4.6667043 L31.9999752,4.6667043" id="path5664" transform="translate(25.333309, 5.333371) scale(-1, 1) rotate(-180.000000) translate(-25.333309, -5.333371) "></path>
            <path d="M-2.39999999e-05,10.0000375 L45.3333082,10.0000375" id="path5668" transform="translate(22.666642, 10.666704) scale(-1, 1) rotate(-180.000000) translate(-22.666642, -10.666704) "></path>
            <path d="M-2.39999999e-05,71.3333693 L45.3333082,71.3333693" id="path5672" transform="translate(22.666642, 72.000036) scale(-1, 1) rotate(-180.000000) translate(-22.666642, -72.000036) "></path>
            <path d="M45.3333082,15.3333707 L45.3333082,4.6667043 C45.3333082,2.46670436 43.5333082,0.6667044 41.3333083,0.6667044 L3.9999759,0.6667044 C1.79997596,0.6667044 -2.39999999e-05,2.46670436 -2.39999999e-05,4.6667043 L-2.39999999e-05,79.3333691 C-2.39999999e-05,81.533369 1.79997596,83.333369 3.9999759,83.333369 L41.3333083,83.333369 C43.5333082,83.333369 45.3333082,81.533369 45.3333082,79.3333691 L45.3333082,23.3333705" id="path5676" transform="translate(22.666642, 42.000037) scale(-1, 1) rotate(-180.000000) translate(-22.666642, -42.000037) "></path>
            <path d="M77.3333074,40.6667034 C80.2786407,40.6667034 82.6666406,38.2787035 82.6666406,35.3333702 L82.6666406,27.3333704 C82.6666406,15.3333707 66.666641,4.6667043 66.666641,4.6667043 C66.666641,4.6667043 50.6666414,15.3333707 50.6666414,27.3333704 L50.6666414,35.3333702 C50.6666414,38.2787035 53.0546413,40.6667034 55.9999746,40.6667034" id="path5680" stroke-linejoin="round" transform="translate(66.666641, 22.666704) scale(-1, 1) rotate(-180.000000) translate(-66.666641, -22.666704) "></path>
            <path d="M61.3333078,2.0000377 C61.3333078,1.26270439 60.7373078,0.6667044 59.9999745,0.6667044 L57.3333079,0.6667044 C56.5959746,0.6667044 55.9999746,1.26270439 55.9999746,2.0000377 L55.9999746,7.3333709 C55.9999746,8.07070421 56.5959746,8.6667042 57.3333079,8.6667042 L59.9999745,8.6667042 C60.7373078,8.6667042 61.3333078,8.07070421 61.3333078,7.3333709 L61.3333078,2.0000377 Z" id="path5684" stroke-linejoin="round" transform="translate(58.666641, 4.666704) scale(-1, 1) rotate(-180.000000) translate(-58.666641, -4.666704) "></path>
            <path d="M77.3333074,2.0000377 C77.3333074,1.26270439 76.7373074,0.6667044 75.9999741,0.6667044 L73.3333075,0.6667044 C72.5959742,0.6667044 71.9999742,1.26270439 71.9999742,2.0000377 L71.9999742,7.3333709 C71.9999742,8.07070421 72.5959742,8.6667042 73.3333075,8.6667042 L75.9999741,8.6667042 C76.7373074,8.6667042 77.3333074,8.07070421 77.3333074,7.3333709 L77.3333074,2.0000377 Z" id="path5688" stroke-linejoin="round" transform="translate(74.666641, 4.666704) scale(-1, 1) rotate(-180.000000) translate(-74.666641, -4.666704) "></path>
            <path d="M82.6666406,30.000037 C82.6666406,23.3720372 75.5026408,18.0000373 66.666641,18.0000373 C57.8306412,18.0000373 50.6666414,23.3720372 50.6666414,30.000037" id="path5692" stroke-linejoin="round" transform="translate(66.666641, 24.000037) scale(-1, 1) rotate(-180.000000) translate(-66.666641, -24.000037) "></path>
            <path d="M30.6666419,27.3333704 C30.6666419,22.9160372 27.0839753,19.3333706 22.6666421,19.3333706 C18.2493089,19.3333706 14.6666423,22.9160372 14.6666423,27.3333704 C14.6666423,31.7507036 18.2493089,35.3333702 22.6666421,35.3333702 C27.0839753,35.3333702 30.6666419,31.7507036 30.6666419,27.3333704 Z" id="path5696" stroke-linejoin="round" transform="translate(22.666642, 27.333370) scale(-1, 1) rotate(-180.000000) translate(-22.666642, -27.333370) "></path>
            <path d="M23.9999754,27.3333704 C23.9999754,26.5960371 23.4039754,26.0000371 22.6666421,26.0000371 C21.9293088,26.0000371 21.3333088,26.5960371 21.3333088,27.3333704 C21.3333088,28.0707037 21.9293088,28.6667037 22.6666421,28.6667037 C23.4039754,28.6667037 23.9999754,28.0707037 23.9999754,27.3333704 Z" id="path5700" stroke-linejoin="round" transform="translate(22.666642, 27.333370) scale(-1, 1) rotate(-180.000000) translate(-22.666642, -27.333370) "></path>
            <path d="M66.666641,78.0000358 L66.666641,43.33337 C66.666641,41.1253701 64.874641,39.3333701 62.6666411,39.3333701 C60.4586412,39.3333701 58.6666412,41.1253701 58.6666412,43.33337 L58.6666412,66.0000361 C58.6666412,68.208036 56.8746412,70.000036 54.6666413,70.000036 C52.4586414,70.000036 50.6666414,68.208036 50.6666414,66.0000361 L50.6666414,58.0000363 C50.6666414,55.7920364 48.8746414,54.0000364 46.6666415,54.0000364 L11.9999757,54.0000364 C9.79197576,54.0000364 7.9999758,55.7920364 7.9999758,58.0000363 C7.9999758,60.2080362 9.79197576,62.0000362 11.9999757,62.0000362 L33.3333085,62.0000362 C35.5413084,62.0000362 37.3333084,63.7920362 37.3333084,66.0000361 C37.3333084,68.208036 35.5413084,70.000036 33.3333085,70.000036 L26.666642,70.000036 C24.4586421,70.000036 22.6666421,71.792036 22.6666421,74.0000359 L22.6666421,79.3333691" id="path5704" stroke-linejoin="round" transform="translate(37.333308, 59.333370) scale(-1, 1) rotate(-180.000000) translate(-37.333308, -59.333370) "></path>
        </g>
    </g>
</svg>