<?xml version="1.0" encoding="UTF-8"?>
<svg width="70px" height="86px" viewBox="0 0 70 86" version="1.1" xmlns="http://www.w3.org/2000/svg" xmlns:xlink="http://www.w3.org/1999/xlink">
    <!-- Generator: Sketch 43.2 (39069) - http://www.bohemiancoding.com/sketch -->
    <title>initiatives-programs</title>
    <desc>Created with Sketch.</desc>
    <defs></defs>
    <g id="Page-1" stroke="none" stroke-width="1" fill="none" fill-rule="evenodd">
        <g id="initiatives-programs" transform="translate(2.000000, 1.000000)" stroke-width="2.6666666" stroke="#222829">
            <polyline id="path5214" transform="translate(27.999999, 46.333334) scale(-1, 1) rotate(-180.000000) translate(-27.999999, -46.333334) " points="46.6666655 83 55.9999986 83 55.9999986 9.6666685 0 9.6666685 0 83 9.3333331 83"></polyline>
            <path d="M34.3333328,8.6666683 C34.3333328,12.3493349 31.3493329,15.3333348 27.6666663,15.3333348 C23.9839997,15.3333348 20.9999998,12.3493349 20.9999998,8.6666683 L13,8.6666683 L13,0.6666685 L42.3333326,0.6666685 L42.3333326,8.6666683 L34.3333328,8.6666683 Z" id="path5218" transform="translate(27.666666, 8.000002) scale(-1, 1) rotate(-180.000000) translate(-27.666666, -8.000002) "></path>
            <path d="M26,5.6666685 L28.6666666,5.6666685" id="path5222" transform="translate(27.333333, 6.333335) scale(-1, 1) rotate(-180.000000) translate(-27.333333, -6.333335) "></path>
            <polyline id="path5226" transform="translate(27.666666, 41.000001) scale(-1, 1) rotate(-180.000000) translate(-27.666666, -41.000001) " points="50.3333322 72.3333336 50.3333322 9.6666685 5 9.6666685 5 72.3333336"></polyline>
            <path d="M16,29.6666683 L16,21.6666685" id="path5230" transform="translate(16.666667, 25.666668) scale(-1, 1) rotate(-180.000000) translate(-16.666667, -25.666668) "></path>
            <path d="M12,24.6666685 L19.9999998,24.6666685" id="path5234" transform="translate(16.000000, 25.333335) scale(-1, 1) rotate(-180.000000) translate(-16.000000, -25.333335) "></path>
            <path d="M12,32.6666685 L14.6666666,32.6666685" id="path5238" transform="translate(13.333333, 33.333335) scale(-1, 1) rotate(-180.000000) translate(-13.333333, -33.333335) "></path>
            <path d="M17,32.6666685 L43.666666,32.6666685" id="path5242" transform="translate(30.333333, 33.333335) scale(-1, 1) rotate(-180.000000) translate(-30.333333, -33.333335) "></path>
            <path d="M12,37.6666685 L14.6666666,37.6666685" id="path5246" transform="translate(13.333333, 38.333335) scale(-1, 1) rotate(-180.000000) translate(-13.333333, -38.333335) "></path>
            <path d="M17,37.6666685 L43.666666,37.6666685" id="path5250" transform="translate(30.333333, 38.333335) scale(-1, 1) rotate(-180.000000) translate(-30.333333, -38.333335) "></path>
            <path d="M12,42.6666685 L14.6666666,42.6666685" id="path5254" transform="translate(13.333333, 43.333335) scale(-1, 1) rotate(-180.000000) translate(-13.333333, -43.333335) "></path>
            <path d="M17,42.6666685 L43.666666,42.6666685" id="path5258" transform="translate(30.333333, 43.333335) scale(-1, 1) rotate(-180.000000) translate(-30.333333, -43.333335) "></path>
            <path d="M12,48.6666685 L14.6666666,48.6666685" id="path5262" transform="translate(13.333333, 49.333335) scale(-1, 1) rotate(-180.000000) translate(-13.333333, -49.333335) "></path>
            <path d="M17,48.6666685 L43.666666,48.6666685" id="path5266" transform="translate(30.333333, 49.333335) scale(-1, 1) rotate(-180.000000) translate(-30.333333, -49.333335) "></path>
            <path d="M12,53.6666685 L14.6666666,53.6666685" id="path5270" transform="translate(13.333333, 54.333335) scale(-1, 1) rotate(-180.000000) translate(-13.333333, -54.333335) "></path>
            <path d="M17,53.6666685 L43.666666,53.6666685" id="path5274" transform="translate(30.333333, 54.333335) scale(-1, 1) rotate(-180.000000) translate(-30.333333, -54.333335) "></path>
            <path d="M43.6666666,61.6666685 L41,61.6666685" id="path5278" transform="translate(42.333333, 62.333335) scale(-1, 1) rotate(-180.000000) translate(-42.333333, -62.333335) "></path>
            <path d="M38.6666664,61.6666685 L28,61.6666685" id="path5282" transform="translate(33.333333, 62.333335) scale(-1, 1) rotate(-180.000000) translate(-33.333333, -62.333335) "></path>
            <polygon id="path5284" transform="translate(33.333333, 25.333335) scale(-1, 1) rotate(-180.000000) translate(-33.333333, -25.333335) " points="42.6666662 22.6666685 24 22.6666685 24 28.0000017 42.6666662 28.0000017"></polygon>
            <polygon id="path5288" transform="translate(63.666667, 46.333334) scale(-1, 1) rotate(-180.000000) translate(-63.666667, -46.333334) " points="66.3333332 9.6666685 61 9.6666685 61 80.3333334 62.3333333 83 64.9999999 83 66.3333332 80.3333334"></polygon>
            <path d="M64,5.6666685 L64,9.6666684" id="path5292" transform="translate(64.666667, 7.666668) scale(-1, 1) rotate(-180.000000) translate(-64.666667, -7.666668) "></path>
            <path d="M66.3333332,18.6666685 L61,18.6666685" id="path5296" transform="translate(63.666667, 19.333335) scale(-1, 1) rotate(-180.000000) translate(-63.666667, -19.333335) "></path>
            <path d="M66.3333332,24.6666685 L61,24.6666685" id="path5300" transform="translate(63.666667, 25.333335) scale(-1, 1) rotate(-180.000000) translate(-63.666667, -25.333335) "></path>
            <path d="M66.3333332,29.6666685 L61,29.6666685" id="path5304" transform="translate(63.666667, 30.333335) scale(-1, 1) rotate(-180.000000) translate(-63.666667, -30.333335) "></path>
            <path d="M66.3333332,76.6666685 L61,76.6666685" id="path5308" transform="translate(63.666667, 77.333335) scale(-1, 1) rotate(-180.000000) translate(-63.666667, -77.333335) "></path>
        </g>
    </g>
</svg>