<?xml version="1.0" encoding="UTF-8"?>
<svg width="87px" height="81px" viewBox="0 0 87 81" version="1.1" xmlns="http://www.w3.org/2000/svg" xmlns:xlink="http://www.w3.org/1999/xlink">
    <!-- Generator: Sketch 43.2 (39069) - http://www.bohemiancoding.com/sketch -->
    <title>medicare</title>
    <desc>Created with Sketch.</desc>
    <defs></defs>
    <g id="Page-1" stroke="none" stroke-width="1" fill="none" fill-rule="evenodd">
        <g id="medicare" transform="translate(1.000000, 2.000000)" stroke="#222829" stroke-width="2.6666666">
            <path d="M0,76 L85.3333312,76" id="path4912" transform="translate(42.666666, 76.666667) scale(-1, 1) rotate(-180.000000) translate(-42.666666, -76.666667) "></path>
            <polygon id="path4916" stroke-linejoin="round" transform="translate(42.333332, 41.666666) scale(-1, 1) rotate(-180.000000) translate(-42.333332, -41.666666) " points="80.999998 11 3.6666666 11 1 13.6666666 1 69.6666652 3.6666666 72.3333318 80.999998 72.3333318 83.6666646 69.6666652 83.6666646 13.6666666"></polygon>
            <polygon id="path4920" transform="translate(43.000000, 42.000000) scale(-1, 1) rotate(-180.000000) translate(-43.000000, -42.000000) " points="50.9999996 44.6666664 45.6666664 44.6666664 45.6666664 49.9999996 40.3333332 49.9999996 40.3333332 44.6666664 35 44.6666664 35 39.3333332 40.3333332 39.3333332 40.3333332 34 45.6666664 34 45.6666664 39.3333332 50.9999996 39.3333332"></polygon>
            <path d="M9,72 L9,77.3333332" id="path4924" stroke-linejoin="round" transform="translate(9.666667, 74.666667) scale(-1, 1) rotate(-180.000000) translate(-9.666667, -74.666667) "></path>
            <path d="M23,77.3333332 L23,72" id="path4928" stroke-linejoin="round" transform="translate(23.666667, 74.666667) scale(-1, 1) rotate(-180.000000) translate(-23.666667, -74.666667) "></path>
            <path d="M63,72 L63,77.3333332" id="path4932" stroke-linejoin="round" transform="translate(63.666667, 74.666667) scale(-1, 1) rotate(-180.000000) translate(-63.666667, -74.666667) "></path>
            <path d="M76,77.3333332 L76,72" id="path4936" stroke-linejoin="round" transform="translate(76.666667, 74.666667) scale(-1, 1) rotate(-180.000000) translate(-76.666667, -74.666667) "></path>
            <path d="M1,66 L83.6666646,66" id="path4940" transform="translate(42.333332, 66.666667) scale(-1, 1) rotate(-180.000000) translate(-42.333332, -66.666667) "></path>
            <polyline id="path4944" stroke-linejoin="round" transform="translate(43.000000, 5.333333) scale(-1, 1) rotate(-180.000000) translate(-43.000000, -5.333333) " points="27 1.13686838e-13 32.3333332 10.6666664 53.666666 10.6666664 58.9999992 1.13686838e-13"></polyline>
            <path d="M29,4 L55.666666,4" id="path4948" stroke-linejoin="round" transform="translate(42.333333, 4.666667) scale(-1, 1) rotate(-180.000000) translate(-42.333333, -4.666667) "></path>
            <polyline id="path4952" stroke-linejoin="round" transform="translate(15.666666, 13.666667) scale(-1, 1) rotate(-180.000000) translate(-15.666666, -13.666667) " points="22.333333 16.3333332 22.333333 11 9 11 9 16.3333332"></polyline>
            <polyline id="path4956" stroke-linejoin="round" transform="translate(69.666667, 13.666667) scale(-1, 1) rotate(-180.000000) translate(-69.666667, -13.666667) " points="76.333333 16.3333332 76.333333 11 63 11 63 16.3333332"></polyline>
            <path d="M37,5.3333332 L37,0" id="path4960" stroke-linejoin="round" transform="translate(37.666667, 2.666667) scale(-1, 1) rotate(-180.000000) translate(-37.666667, -2.666667) "></path>
            <path d="M43,5.3333332 L43,0" id="path4964" stroke-linejoin="round" transform="translate(43.666667, 2.666667) scale(-1, 1) rotate(-180.000000) translate(-43.666667, -2.666667) "></path>
            <path d="M48,5.3333332 L48,0" id="path4968" stroke-linejoin="round" transform="translate(48.666667, 2.666667) scale(-1, 1) rotate(-180.000000) translate(-48.666667, -2.666667) "></path>
            <path d="M30.3333328,43 L9,43" id="path4972" transform="translate(19.666666, 43.666667) scale(-1, 1) rotate(-180.000000) translate(-19.666666, -43.666667) "></path>
            <path d="M30.3333328,38 L9,38" id="path4976" transform="translate(19.666666, 38.666667) scale(-1, 1) rotate(-180.000000) translate(-19.666666, -38.666667) "></path>
            <path d="M55,43 L76.3333328,43" id="path4980" transform="translate(65.666666, 43.666667) scale(-1, 1) rotate(-180.000000) translate(-65.666666, -43.666667) "></path>
            <path d="M55,38 L76.3333328,38" id="path4984" transform="translate(65.666666, 38.666667) scale(-1, 1) rotate(-180.000000) translate(-65.666666, -38.666667) "></path>
            <path d="M9,66.6666655 L9,20" id="path4988" transform="translate(9.666667, 43.333333) scale(-1, 1) rotate(-180.000000) translate(-9.666667, -43.333333) "></path>
            <path d="M76,66.6666655 L76,20" id="path4992" transform="translate(76.666667, 43.333333) scale(-1, 1) rotate(-180.000000) translate(-76.666667, -43.333333) "></path>
        </g>
    </g>
</svg>