<?xml version="1.0" encoding="UTF-8"?>
<svg width="87px" height="82px" viewBox="0 0 87 82" version="1.1" xmlns="http://www.w3.org/2000/svg" xmlns:xlink="http://www.w3.org/1999/xlink">
    <!-- Generator: Sketch 43.2 (39069) - http://www.bohemiancoding.com/sketch -->
    <title>medicare-inverted</title>
    <desc>Created with Sketch.</desc>
    <defs></defs>
    <g id="Page-1" stroke="none" stroke-width="1" fill="none" fill-rule="evenodd">
        <g id="medicare-inverted" transform="translate(1.000000, 2.000000)" stroke="#FFFFFF" stroke-width="2.6666666">
            <path d="M0,76 L85.3333312,76" id="path4912" transform="translate(42.666666, 77.333333) scale(-1, 1) rotate(-180.000000) translate(-42.666666, -77.333333) "></path>
            <polygon id="path4916" stroke-linejoin="round" transform="translate(42.333332, 41.666666) scale(-1, 1) rotate(-180.000000) translate(-42.333332, -41.666666) " points="80.999998 11.0000002 3.6666666 11.0000002 1 13.6666668 1 69.6666654 3.6666666 72.333332 80.999998 72.333332 83.6666646 69.6666654 83.6666646 13.6666668"></polygon>
            <polygon id="path4920" transform="translate(43.000000, 42.000000) scale(-1, 1) rotate(-180.000000) translate(-43.000000, -42.000000) " points="50.9999996 44.6666668 45.6666664 44.6666668 45.6666664 50 40.3333332 50 40.3333332 44.6666668 35 44.6666668 35 39.3333336 40.3333332 39.3333336 40.3333332 34.0000004 45.6666664 34.0000004 45.6666664 39.3333336 50.9999996 39.3333336"></polygon>
            <path d="M9,72.0000008 L9,77.333334" id="path4924" stroke-linejoin="round" transform="translate(10.333333, 74.666667) scale(-1, 1) rotate(-180.000000) translate(-10.333333, -74.666667) "></path>
            <path d="M23,77.333334 L23,72.0000008" id="path4928" stroke-linejoin="round" transform="translate(24.333333, 74.666667) scale(-1, 1) rotate(-180.000000) translate(-24.333333, -74.666667) "></path>
            <path d="M63,72.0000008 L63,77.333334" id="path4932" stroke-linejoin="round" transform="translate(64.333333, 74.666667) scale(-1, 1) rotate(-180.000000) translate(-64.333333, -74.666667) "></path>
            <path d="M76,77.333334 L76,72.0000008" id="path4936" stroke-linejoin="round" transform="translate(77.333333, 74.666667) scale(-1, 1) rotate(-180.000000) translate(-77.333333, -74.666667) "></path>
            <path d="M1,66 L83.6666646,66" id="path4940" transform="translate(42.333332, 67.333333) scale(-1, 1) rotate(-180.000000) translate(-42.333332, -67.333333) "></path>
            <polyline id="path4944" stroke-linejoin="round" transform="translate(43.000000, 5.333333) scale(-1, 1) rotate(-180.000000) translate(-43.000000, -5.333333) " points="27 -4.00000001e-07 32.3333332 10.666666 53.666666 10.666666 58.9999992 -4.00000001e-07"></polyline>
            <path d="M29,4 L55.666666,4" id="path4948" stroke-linejoin="round" transform="translate(42.333333, 5.333333) scale(-1, 1) rotate(-180.000000) translate(-42.333333, -5.333333) "></path>
            <polyline id="path4952" stroke-linejoin="round" transform="translate(15.666666, 13.666667) scale(-1, 1) rotate(-180.000000) translate(-15.666666, -13.666667) " points="22.333333 16.333334 22.333333 11.0000008 9 11.0000008 9 16.333334"></polyline>
            <polyline id="path4956" stroke-linejoin="round" transform="translate(69.666666, 13.666667) scale(-1, 1) rotate(-180.000000) translate(-69.666666, -13.666667) " points="76.333333 16.333334 76.333333 11.0000008 63 11.0000008 63 16.333334"></polyline>
            <path d="M37,5.333334 L37,8e-07" id="path4960" stroke-linejoin="round" transform="translate(38.333333, 2.666667) scale(-1, 1) rotate(-180.000000) translate(-38.333333, -2.666667) "></path>
            <path d="M43,5.333334 L43,8e-07" id="path4964" stroke-linejoin="round" transform="translate(44.333333, 2.666667) scale(-1, 1) rotate(-180.000000) translate(-44.333333, -2.666667) "></path>
            <path d="M48,5.333334 L48,8e-07" id="path4968" stroke-linejoin="round" transform="translate(49.333333, 2.666667) scale(-1, 1) rotate(-180.000000) translate(-49.333333, -2.666667) "></path>
            <path d="M30.3333328,43 L9,43" id="path4972" transform="translate(19.666666, 44.333333) scale(-1, 1) rotate(-180.000000) translate(-19.666666, -44.333333) "></path>
            <path d="M30.3333328,38 L9,38" id="path4976" transform="translate(19.666666, 39.333333) scale(-1, 1) rotate(-180.000000) translate(-19.666666, -39.333333) "></path>
            <path d="M55,43 L76.3333328,43" id="path4980" transform="translate(65.666666, 44.333333) scale(-1, 1) rotate(-180.000000) translate(-65.666666, -44.333333) "></path>
            <path d="M55,38 L76.3333328,38" id="path4984" transform="translate(65.666666, 39.333333) scale(-1, 1) rotate(-180.000000) translate(-65.666666, -39.333333) "></path>
            <path d="M9,66.666666 L9,20.0000005" id="path4988" transform="translate(10.333333, 43.333333) scale(-1, 1) rotate(-180.000000) translate(-10.333333, -43.333333) "></path>
            <path d="M76,66.666666 L76,20.0000005" id="path4992" transform="translate(77.333333, 43.333333) scale(-1, 1) rotate(-180.000000) translate(-77.333333, -43.333333) "></path>
        </g>
    </g>
</svg>