<?xml version="1.0" encoding="UTF-8"?>
<svg width="86px" height="87px" viewBox="0 0 86 87" version="1.1" xmlns="http://www.w3.org/2000/svg" xmlns:xlink="http://www.w3.org/1999/xlink">
    <!-- Generator: Sketch 43.2 (39069) - http://www.bohemiancoding.com/sketch -->
    <title>resources</title>
    <desc>Created with Sketch.</desc>
    <defs></defs>
    <g id="Page-1" stroke="none" stroke-width="1" fill="none" fill-rule="evenodd">
        <g id="resources" transform="translate(2.000000, 2.000000)" stroke="#222829" stroke-width="2.6666666">
            <path d="M38,17.3333329 L38,1.42108547e-14" id="path20340" transform="translate(38.666667, 8.666666) scale(-1, 1) rotate(-180.000000) translate(-38.666667, -8.666666) "></path>
            <path d="M38.6666662,16.8961803 C43.9999994,8.89618048 57.3333324,18.2295136 57.3333324,35.5628465 C57.3333324,40.8961797 54.6666658,44.8961796 51.9999992,46.2295129 C45.046666,49.7055128 41.3333328,43.5628463 38.6666662,43.5628463 C35.9999996,43.5628463 32.2866664,49.7055128 25.3333332,46.2295129 C22.6666666,44.8961796 20,40.8961797 20,35.5628465 C20,18.2295136 33.333333,8.89618048 38.6666662,16.8961803 Z" id="path20344" transform="translate(38.666666, 30.647437) scale(-1, 1) rotate(-180.000000) translate(-38.666666, -30.647437) "></path>
            <path d="M45.9999998,2.6666666 C43.3986665,0.0626666651 38,0 38,0 C38,0 38.064,5.3973332 40.6666666,7.9999998 C43.2706665,10.6039997 48.6666664,10.6666664 48.6666664,10.6666664 C48.6666664,10.6666664 48.6039997,5.2693332 45.9999998,2.6666666 Z" id="path20348" transform="translate(43.333333, 5.333333) scale(-1, 1) rotate(-180.000000) translate(-43.333333, -5.333333) "></path>
            <path d="M41,33.9999998 L41,26" id="path20352" transform="translate(41.666667, 30.000000) scale(-1, 1) rotate(-180.000000) translate(-41.666667, -30.000000) "></path>
            <path d="M36,33.9999998 L36,26" id="path20356" transform="translate(36.666667, 30.000000) scale(-1, 1) rotate(-180.000000) translate(-36.666667, -30.000000) "></path>
            <path d="M70.6666651,48 C66.9839985,48 63.9999986,50.9839999 63.9999986,54.6666665 C63.9999986,58.3493331 66.9839985,61.333333 70.6666651,61.333333 L14.6666665,61.333333 C10.9839999,61.333333 8,58.3493331 8,54.6666665 C8,50.9839999 10.9839999,48 14.6666665,48 L70.6666651,48 Z" id="path20360" transform="translate(39.333333, 54.666667) scale(-1, 1) rotate(-180.000000) translate(-39.333333, -54.666667) "></path>
            <polygon id="path20362" transform="translate(39.666666, 66.000000) scale(-1, 1) rotate(-180.000000) translate(-39.666666, -66.000000) " points="74.3333316 62 5 62 5 69.9999998 74.3333316 69.9999998"></polygon>
            <polygon id="path20364" transform="translate(41.333332, 76.666667) scale(-1, 1) rotate(-180.000000) translate(-41.333332, -76.666667) " points="82.6666646 70 0 70 0 83.333333 82.6666646 83.333333"></polygon>
            <path d="M16,69.9999998 L16,62" id="path20368" transform="translate(16.666667, 66.000000) scale(-1, 1) rotate(-180.000000) translate(-16.666667, -66.000000) "></path>
            <path d="M18,83.333333 L18,70" id="path20372" transform="translate(18.666667, 76.666667) scale(-1, 1) rotate(-180.000000) translate(-18.666667, -76.666667) "></path>
            <path d="M21,69.9999998 L21,62" id="path20376" transform="translate(21.666667, 66.000000) scale(-1, 1) rotate(-180.000000) translate(-21.666667, -66.000000) "></path>
            <path d="M26,69.9999998 L26,62" id="path20380" transform="translate(26.666667, 66.000000) scale(-1, 1) rotate(-180.000000) translate(-26.666667, -66.000000) "></path>
            <path d="M75.6666666,75 L73,75" id="path20384" transform="translate(74.333333, 75.666667) scale(-1, 1) rotate(-180.000000) translate(-74.333333, -75.666667) "></path>
            <path d="M70.6666666,75 L68,75" id="path20388" transform="translate(69.333333, 75.666667) scale(-1, 1) rotate(-180.000000) translate(-69.333333, -75.666667) "></path>
            <path d="M64.6666666,75 L62,75" id="path20392" transform="translate(63.333333, 75.666667) scale(-1, 1) rotate(-180.000000) translate(-63.333333, -75.666667) "></path>
            <path d="M10.6666666,76.3333333 C10.6666666,75.596 10.0706666,75 9.3333333,75 C8.59599999,75 8,75.596 8,76.3333333 C8,77.0706666 8.59599999,77.6666666 9.3333333,77.6666666 C10.0706666,77.6666666 10.6666666,77.0706666 10.6666666,76.3333333 Z" id="path20396" transform="translate(9.333333, 76.333333) scale(-1, 1) rotate(-180.000000) translate(-9.333333, -76.333333) "></path>
        </g>
    </g>
</svg>