<?xml version="1.0" encoding="UTF-8"?>
<svg width="80px" height="86px" viewBox="0 0 80 86" version="1.1" xmlns="http://www.w3.org/2000/svg" xmlns:xlink="http://www.w3.org/1999/xlink">
    <!-- Generator: Sketch 43.2 (39069) - http://www.bohemiancoding.com/sketch -->
    <title>services-support</title>
    <desc>Created with Sketch.</desc>
    <defs></defs>
    <g id="Page-1" stroke="none" stroke-width="1" fill="none" fill-rule="evenodd">
        <g id="services-support" transform="translate(1.000000, 1.000000)" stroke="#222829" stroke-width="2.6666666">
            <path d="M45.666638,7.3333709 C45.666638,3.65070433 42.6826381,0.6667044 38.9999715,0.6667044 C35.3173049,0.6667044 32.333305,3.65070433 32.333305,7.3333709 C32.333305,11.0160375 35.3173049,14.0000374 38.9999715,14.0000374 C42.6826381,14.0000374 45.666638,11.0160375 45.666638,7.3333709 Z" id="path5312" transform="translate(38.999972, 7.333371) scale(-1, 1) rotate(-180.000000) translate(-38.999972, -7.333371) "></path>
            <path d="M64.3333042,60.6667029 L64.3333042,84.6667023" id="path5316" transform="translate(64.999971, 72.666703) scale(-1, 1) rotate(-180.000000) translate(-64.999971, -72.666703) "></path>
            <path d="M69.6666374,16.666704 C69.6666374,13.7200374 67.2786375,11.3333708 64.3333042,11.3333708 C61.3879709,11.3333708 58.999971,13.7200374 58.999971,16.666704 C58.999971,19.6120373 61.3879709,22.0000372 64.3333042,22.0000372 C67.2786375,22.0000372 69.6666374,19.6120373 69.6666374,16.666704 Z" id="path5320" transform="translate(64.333304, 16.666704) scale(-1, 1) rotate(-180.000000) translate(-64.333304, -16.666704) "></path>
            <polyline id="path5324" transform="translate(54.333304, 70.666703) scale(-1, 1) rotate(-180.000000) translate(-54.333304, -70.666703) " points="52.3333045 84.6667023 56.3333044 84.6667023 56.3333044 56.666703"></polyline>
            <path d="M72.333304,27.3333704 L72.333304,55.3333697 L77.6666372,55.3333697 L77.6666372,78.0000358 C77.6666372,81.6827024 74.6826373,84.6667023 70.9999707,84.6667023 L57.6666377,84.6667023" id="path5328" transform="translate(67.666637, 56.000036) scale(-1, 1) rotate(-180.000000) translate(-67.666637, -56.000036) "></path>
            <path d="M64.3333042,34.0000369 L64.3333042,31.3333703" id="path5332" transform="translate(64.999971, 32.666704) scale(-1, 1) rotate(-180.000000) translate(-64.999971, -32.666704) "></path>
            <path d="M13.6666388,60.6667029 L13.6666388,84.6667023" id="path5336" transform="translate(14.333305, 72.666703) scale(-1, 1) rotate(-180.000000) translate(-14.333305, -72.666703) "></path>
            <polyline id="path5340" transform="translate(23.666639, 70.666703) scale(-1, 1) rotate(-180.000000) translate(-23.666639, -70.666703) " points="25.6666385 84.6667023 21.6666386 84.6667023 21.6666386 56.666703"></polyline>
            <path d="M5.666639,27.3333704 L5.666639,55.3333697 L0.3333058,55.3333697 L0.3333058,78.0000358 C0.3333058,81.6827024 3.31730573,84.6667023 6.9999723,84.6667023 L20.3333053,84.6667023" id="path5344" transform="translate(10.333306, 56.000036) scale(-1, 1) rotate(-180.000000) translate(-10.333306, -56.000036) "></path>
            <path d="M13.6666388,34.0000369 L13.6666388,31.3333703" id="path5348" transform="translate(14.333305, 32.666704) scale(-1, 1) rotate(-180.000000) translate(-14.333305, -32.666704) "></path>
            <path d="M18.999972,16.666704 C18.999972,13.7200374 16.6119721,11.3333708 13.6666388,11.3333708 C10.7213055,11.3333708 8.3333056,13.7200374 8.3333056,16.666704 C8.3333056,19.6120373 10.7213055,22.0000372 13.6666388,22.0000372 C16.6119721,22.0000372 18.999972,19.6120373 18.999972,16.666704 Z" id="path5352" transform="translate(13.666639, 16.666704) scale(-1, 1) rotate(-180.000000) translate(-13.666639, -16.666704) "></path>
            <path d="M29.6666384,19.3333706 L29.6666384,52.6667031 L24.3333052,52.6667031 L24.3333052,76.6667025 C24.3333052,81.0840357 27.9159718,84.6667023 32.333305,84.6667023 L45.666638,84.6667023 C50.0839712,84.6667023 53.6666378,81.0840357 53.6666378,76.6667025 L53.6666378,52.6667031 L48.3333046,52.6667031 L48.3333046,19.3333706" id="path5356" transform="translate(38.999972, 52.000036) scale(-1, 1) rotate(-180.000000) translate(-38.999972, -52.000036) "></path>
            <path d="M38.9999715,84.6667023 L38.9999715,55.3333697" id="path5360" transform="translate(39.666638, 70.000036) scale(-1, 1) rotate(-180.000000) translate(-39.666638, -70.000036) "></path>
            <polyline id="path5364" stroke-linejoin="round" transform="translate(38.999972, 22.666704) scale(-1, 1) rotate(-180.000000) translate(-38.999972, -22.666704) " points="45.666638 28.6667037 45.666638 23.3333705 38.9999715 16.666704 32.333305 23.3333705 32.333305 28.6667037"></polyline>
            <path d="M38.9999715,38.0000368 L38.9999715,28.6667037" id="path5368" stroke-linejoin="round" transform="translate(39.666638, 33.333370) scale(-1, 1) rotate(-180.000000) translate(-39.666638, -33.333370) "></path>
            <path d="M40.3333048,38.0000368 C40.3333048,37.2627035 39.7373048,36.6667035 38.9999715,36.6667035 C38.2626382,36.6667035 37.6666382,37.2627035 37.6666382,38.0000368 C37.6666382,38.7373701 38.2626382,39.3333701 38.9999715,39.3333701 C39.7373048,39.3333701 40.3333048,38.7373701 40.3333048,38.0000368 Z" id="path5372" stroke-linejoin="round" transform="translate(38.999972, 38.000037) scale(-1, 1) rotate(-180.000000) translate(-38.999972, -38.000037) "></path>
        </g>
    </g>
</svg>