<?xml version="1.0" encoding="UTF-8"?>
<svg width="80px" height="86px" viewBox="0 0 80 86" version="1.1" xmlns="http://www.w3.org/2000/svg" xmlns:xlink="http://www.w3.org/1999/xlink">
    <!-- Generator: Sketch 43.2 (39069) - http://www.bohemiancoding.com/sketch -->
    <title>services-support-inverted</title>
    <desc>Created with Sketch.</desc>
    <defs></defs>
    <g id="Page-1" stroke="none" stroke-width="1" fill="none" fill-rule="evenodd">
        <g id="services-support-inverted" transform="translate(1.000000, 1.000000)" stroke="#FFFFFF" stroke-width="2.6666666">
            <path d="M45.666638,7.3333711 C45.666638,3.65070453 42.6826381,0.6667046 38.9999715,0.6667046 C35.3173049,0.6667046 32.333305,3.65070453 32.333305,7.3333711 C32.333305,11.0160377 35.3173049,14.0000376 38.9999715,14.0000376 C42.6826381,14.0000376 45.666638,11.0160377 45.666638,7.3333711 Z" id="path5312" transform="translate(38.999972, 7.333371) scale(-1, 1) rotate(-180.000000) translate(-38.999972, -7.333371) "></path>
            <path d="M64,60.6667037 L64,84.6667031" id="path5316" transform="translate(65.333333, 72.666703) scale(-1, 1) rotate(-180.000000) translate(-65.333333, -72.666703) "></path>
            <path d="M69.6666374,16.666704 C69.6666374,13.7200374 67.2786375,11.3333708 64.3333042,11.3333708 C61.3879709,11.3333708 58.999971,13.7200374 58.999971,16.666704 C58.999971,19.6120373 61.3879709,22.0000372 64.3333042,22.0000372 C67.2786375,22.0000372 69.6666374,19.6120373 69.6666374,16.666704 Z" id="path5320" transform="translate(64.333304, 16.666704) scale(-1, 1) rotate(-180.000000) translate(-64.333304, -16.666704) "></path>
            <polyline id="path5324" transform="translate(54.333304, 70.666703) scale(-1, 1) rotate(-180.000000) translate(-54.333304, -70.666703) " points="52.3333045 84.666703 56.3333044 84.666703 56.3333044 56.6667037"></polyline>
            <path d="M72.333304,27.3333697 L72.333304,55.333369 L77.6666372,55.333369 L77.6666372,78.0000351 C77.6666372,81.6827017 74.6826373,84.6667016 70.9999707,84.6667016 L57.6666377,84.6667016" id="path5328" transform="translate(67.666637, 56.000036) scale(-1, 1) rotate(-180.000000) translate(-67.666637, -56.000036) "></path>
            <path d="M64,34.0000377 L64,31.3333711" id="path5332" transform="translate(65.333333, 32.666704) scale(-1, 1) rotate(-180.000000) translate(-65.333333, -32.666704) "></path>
            <path d="M13,60.6667037 L13,84.6667031" id="path5336" transform="translate(14.333333, 72.666703) scale(-1, 1) rotate(-180.000000) translate(-14.333333, -72.666703) "></path>
            <polyline id="path5340" transform="translate(23.666639, 70.666703) scale(-1, 1) rotate(-180.000000) translate(-23.666639, -70.666703) " points="25.6666385 84.666703 21.6666386 84.666703 21.6666386 56.6667037"></polyline>
            <path d="M5.666639,27.3333697 L5.666639,55.333369 L0.3333058,55.333369 L0.3333058,78.0000351 C0.3333058,81.6827017 3.31730573,84.6667016 6.9999723,84.6667016 L20.3333053,84.6667016" id="path5344" transform="translate(10.333306, 56.000036) scale(-1, 1) rotate(-180.000000) translate(-10.333306, -56.000036) "></path>
            <path d="M13,34.0000377 L13,31.3333711" id="path5348" transform="translate(14.333333, 32.666704) scale(-1, 1) rotate(-180.000000) translate(-14.333333, -32.666704) "></path>
            <path d="M18.999972,16.666704 C18.999972,13.7200374 16.6119721,11.3333708 13.6666388,11.3333708 C10.7213055,11.3333708 8.3333056,13.7200374 8.3333056,16.666704 C8.3333056,19.6120373 10.7213055,22.0000372 13.6666388,22.0000372 C16.6119721,22.0000372 18.999972,19.6120373 18.999972,16.666704 Z" id="path5352" transform="translate(13.666639, 16.666704) scale(-1, 1) rotate(-180.000000) translate(-13.666639, -16.666704) "></path>
            <path d="M29.6666384,19.3333697 L29.6666384,52.6667022 L24.3333052,52.6667022 L24.3333052,76.6667016 C24.3333052,81.0840348 27.9159718,84.6667014 32.333305,84.6667014 L45.666638,84.6667014 C50.0839712,84.6667014 53.6666378,81.0840348 53.6666378,76.6667016 L53.6666378,52.6667022 L48.3333046,52.6667022 L48.3333046,19.3333697" id="path5356" transform="translate(38.999972, 52.000036) scale(-1, 1) rotate(-180.000000) translate(-38.999972, -52.000036) "></path>
            <path d="M38,84.6667023 L38,55.3333697" id="path5360" transform="translate(39.333333, 70.000036) scale(-1, 1) rotate(-180.000000) translate(-39.333333, -70.000036) "></path>
            <polyline id="path5364" stroke-linejoin="round" transform="translate(38.999972, 22.666704) scale(-1, 1) rotate(-180.000000) translate(-38.999972, -22.666704) " points="45.666638 28.666704 45.666638 23.3333708 38.9999715 16.6667043 32.333305 23.3333708 32.333305 28.666704"></polyline>
            <path d="M38,38.0000363 L38,28.6667032" id="path5368" stroke-linejoin="round" transform="translate(39.333333, 33.333370) scale(-1, 1) rotate(-180.000000) translate(-39.333333, -33.333370) "></path>
            <path d="M40.3333048,38.0000372 C40.3333048,37.2627039 39.7373048,36.6667039 38.9999715,36.6667039 C38.2626382,36.6667039 37.6666382,37.2627039 37.6666382,38.0000372 C37.6666382,38.7373705 38.2626382,39.3333705 38.9999715,39.3333705 C39.7373048,39.3333705 40.3333048,38.7373705 40.3333048,38.0000372 Z" id="path5372" stroke-linejoin="round" transform="translate(38.999972, 38.000037) scale(-1, 1) rotate(-180.000000) translate(-38.999972, -38.000037) "></path>
        </g>
    </g>
</svg>