<?xml version="1.0" encoding="UTF-8"?>
<svg width="73px" height="86px" viewBox="0 0 73 86" version="1.1" xmlns="http://www.w3.org/2000/svg" xmlns:xlink="http://www.w3.org/1999/xlink">
    <!-- Generator: Sketch 43.2 (39069) - http://www.bohemiancoding.com/sketch -->
    <title>symptoms</title>
    <desc>Created with Sketch.</desc>
    <defs></defs>
    <g id="Page-1" stroke="none" stroke-width="1" fill="none" fill-rule="evenodd" stroke-linejoin="round">
        <g id="symptoms" transform="translate(2.000000, 2.000000)" stroke="#222829" stroke-width="2.6666666">
            <path d="M55.9999986,43.9999989 C58.9453319,43.9999989 61.3333318,41.611999 61.3333318,38.6666657 L61.3333318,29.3333326 C61.3333318,15.3426663 39.999999,3.9999999 39.999999,3.9999999 C39.999999,3.9999999 18.6666662,15.3426663 18.6666662,29.3333326 L18.6666662,38.6666657 C18.6666662,41.611999 21.0546661,43.9999989 23.9999994,43.9999989" id="path4442" transform="translate(39.999999, 23.999999) scale(-1, 1) rotate(-180.000000) translate(-39.999999, -23.999999) "></path>
            <path d="M31.9999992,3.9999999 C31.9999992,1.79199996 30.2079992,0 27.9999993,0 C25.7919994,0 23.9999994,1.79199996 23.9999994,3.9999999 C23.9999994,6.20799984 25.7919994,7.9999998 27.9999993,7.9999998 C30.2079992,7.9999998 31.9999992,6.20799984 31.9999992,3.9999999 Z" id="path4446" transform="translate(27.999999, 4.000000) scale(-1, 1) rotate(-180.000000) translate(-27.999999, -4.000000) "></path>
            <path d="M55.9999986,3.9999999 C55.9999986,1.79199996 54.2079986,0 51.9999987,0 C49.7919988,0 47.9999988,1.79199996 47.9999988,3.9999999 C47.9999988,6.20799984 49.7919988,7.9999998 51.9999987,7.9999998 C54.2079986,7.9999998 55.9999986,6.20799984 55.9999986,3.9999999 Z" id="path4450" transform="translate(51.999999, 4.000000) scale(-1, 1) rotate(-180.000000) translate(-51.999999, -4.000000) "></path>
            <path d="M39.999999,53.333332 L39.999999,43.9999989" id="path4454" transform="translate(40.666666, 48.666665) scale(-1, 1) rotate(-180.000000) translate(-40.666666, -48.666665) "></path>
            <path d="M39.999999,78.6666647 L39.999999,67.9999983 C39.999999,59.8999985 46.5666655,53.333332 54.6666653,53.333332 C62.7666651,53.333332 69.3333316,59.8999985 69.3333316,67.9999983 C69.3333316,76.0999981 62.7666651,82.6666646 54.6666653,82.6666646 L15.9999996,82.6666646" id="path4458" transform="translate(42.666666, 67.999998) scale(-1, 1) rotate(-180.000000) translate(-42.666666, -67.999998) "></path>
            <path d="M57.3333319,33.3333325 C57.3333319,33.3333325 51.781332,29.3333326 39.999999,29.3333326 C28.218666,29.3333326 22.6666661,33.3333325 22.6666661,33.3333325" id="path4462" transform="translate(39.999999, 31.333333) scale(-1, 1) rotate(-180.000000) translate(-39.999999, -31.333333) "></path>
            <path d="M63.9999984,67.9999983 C63.9999984,62.8453318 59.8213318,58.6666652 54.6666653,58.6666652 C49.5119988,58.6666652 45.3333322,62.8453318 45.3333322,67.9999983 C45.3333322,73.1546648 49.5119988,77.3333314 54.6666653,77.3333314" id="path4466" transform="translate(54.666665, 67.999998) scale(-1, 1) rotate(-180.000000) translate(-54.666665, -67.999998) "></path>
            <path d="M15.9999996,53.333332 C15.9999996,48.9159988 12.417333,45.3333322 7.9999998,45.3333322 C3.58266658,45.3333322 0,48.9159988 0,53.333332 C0,57.7506652 3.58266658,61.3333318 7.9999998,61.3333318 C12.417333,61.3333318 15.9999996,57.7506652 15.9999996,53.333332 Z" id="path4470" transform="translate(8.000000, 53.333332) scale(-1, 1) rotate(-180.000000) translate(-8.000000, -53.333332) "></path>
            <path d="M9.3333331,53.333332 C9.3333331,52.5959987 8.73733311,51.9999987 7.9999998,51.9999987 C7.26266649,51.9999987 6.6666665,52.5959987 6.6666665,53.333332 C6.6666665,54.0706653 7.26266649,54.6666653 7.9999998,54.6666653 C8.73733311,54.6666653 9.3333331,54.0706653 9.3333331,53.333332 Z" id="path4474" transform="translate(8.000000, 53.333332) scale(-1, 1) rotate(-180.000000) translate(-8.000000, -53.333332) "></path>
        </g>
    </g>
</svg>