<?xml version="1.0" encoding="UTF-8"?>
<svg width="73px" height="86px" viewBox="0 0 73 86" version="1.1" xmlns="http://www.w3.org/2000/svg" xmlns:xlink="http://www.w3.org/1999/xlink">
    <!-- Generator: Sketch 43.2 (39069) - http://www.bohemiancoding.com/sketch -->
    <title>symptoms-inverted</title>
    <desc>Created with Sketch.</desc>
    <defs></defs>
    <g id="Page-1" stroke="none" stroke-width="1" fill="none" fill-rule="evenodd">
        <g id="symptoms-inverted" transform="translate(2.000000, 2.000000)" stroke="#FFFFFF" stroke-width="2.6666666">
            <path d="M55.9999986,43.9999981 C58.9453319,43.9999981 61.3333318,41.6119982 61.3333318,38.6666649 L61.3333318,29.3333318 C61.3333318,15.3426655 39.999999,3.9999991 39.999999,3.9999991 C39.999999,3.9999991 18.6666662,15.3426655 18.6666662,29.3333318 L18.6666662,38.6666649 C18.6666662,41.6119982 21.0546661,43.9999981 23.9999994,43.9999981" id="path4442" transform="translate(39.999999, 23.999999) scale(-1, 1) rotate(-180.000000) translate(-39.999999, -23.999999) "></path>
            <path d="M31.9999992,4.0000001 C31.9999992,1.79200016 30.2079992,1.99999999e-07 27.9999993,1.99999999e-07 C25.7919994,1.99999999e-07 23.9999994,1.79200016 23.9999994,4.0000001 C23.9999994,6.20800004 25.7919994,8 27.9999993,8 C30.2079992,8 31.9999992,6.20800004 31.9999992,4.0000001 Z" id="path4446" transform="translate(27.999999, 4.000000) scale(-1, 1) rotate(-180.000000) translate(-27.999999, -4.000000) "></path>
            <path d="M55.9999986,4.0000001 C55.9999986,1.79200016 54.2079986,2.00000001e-07 51.9999987,2.00000001e-07 C49.7919988,2.00000001e-07 47.9999988,1.79200016 47.9999988,4.0000001 C47.9999988,6.20800004 49.7919988,8 51.9999987,8 C54.2079986,8 55.9999986,6.20800004 55.9999986,4.0000001 Z" id="path4450" transform="translate(51.999999, 4.000000) scale(-1, 1) rotate(-180.000000) translate(-51.999999, -4.000000) "></path>
            <path d="M39,53.3333311 L39,43.999998" id="path4454" transform="translate(40.333333, 48.666665) scale(-1, 1) rotate(-180.000000) translate(-40.333333, -48.666665) "></path>
            <path d="M39.999999,78.6666641 L39.999999,67.9999977 C39.999999,59.8999979 46.5666655,53.3333314 54.6666653,53.3333314 C62.7666651,53.3333314 69.3333316,59.8999979 69.3333316,67.9999977 C69.3333316,76.0999975 62.7666651,82.666664 54.6666653,82.666664 L15.9999996,82.666664" id="path4458" transform="translate(42.666666, 67.999998) scale(-1, 1) rotate(-180.000000) translate(-42.666666, -67.999998) "></path>
            <path d="M57.3333319,33.3333334 C57.3333319,33.3333334 51.781332,29.3333335 39.999999,29.3333335 C28.218666,29.3333335 22.6666661,33.3333334 22.6666661,33.3333334" id="path4462" transform="translate(39.999999, 31.333333) scale(-1, 1) rotate(-180.000000) translate(-39.999999, -31.333333) "></path>
            <path d="M63.9999984,67.9999977 C63.9999984,62.8453312 59.8213318,58.6666646 54.6666653,58.6666646 C49.5119988,58.6666646 45.3333322,62.8453312 45.3333322,67.9999977 C45.3333322,73.1546642 49.5119988,77.3333308 54.6666653,77.3333308" id="path4466" transform="translate(54.666665, 67.999998) scale(-1, 1) rotate(-180.000000) translate(-54.666665, -67.999998) "></path>
            <path d="M15.9999996,53.333332 C15.9999996,48.9159988 12.417333,45.3333322 7.9999998,45.3333322 C3.58266658,45.3333322 0,48.9159988 0,53.333332 C0,57.7506652 3.58266658,61.3333318 7.9999998,61.3333318 C12.417333,61.3333318 15.9999996,57.7506652 15.9999996,53.333332 Z" id="path4470" transform="translate(8.000000, 53.333332) scale(-1, 1) rotate(-180.000000) translate(-8.000000, -53.333332) "></path>
            <path d="M9.3333331,53.333332 C9.3333331,52.5959987 8.73733311,51.9999987 7.9999998,51.9999987 C7.26266649,51.9999987 6.6666665,52.5959987 6.6666665,53.333332 C6.6666665,54.0706653 7.26266649,54.6666653 7.9999998,54.6666653 C8.73733311,54.6666653 9.3333331,54.0706653 9.3333331,53.333332 Z" id="path4474" transform="translate(8.000000, 53.333332) scale(-1, 1) rotate(-180.000000) translate(-8.000000, -53.333332) "></path>
        </g>
    </g>
</svg>